<svg viewBox="0 0 574 675" fill="none"
  xmlns="http://www.w3.org/2000/svg">
  <defs>
    <symbol id="bolt">
      <path d="M 38.939 18.639 C 38.735 18.234 38.424 17.894 38.038 17.656 C 37.653 17.418 37.209 17.291 36.757 17.29 L 24.494 17.29 L 24.494 2.575 C 24.521 2.037 24.369 1.506 24.063 1.063 C 23.758 0.619 23.314 0.289 22.802 0.123 C 22.31 -0.039 21.779 -0.041 21.285 0.118 C 20.792 0.276 20.361 0.587 20.055 1.006 L 0.436 27.983 C 0.19 28.338 0.042 28.752 0.008 29.183 C -0.027 29.613 0.053 30.045 0.24 30.435 C 0.411 30.881 0.709 31.267 1.097 31.546 C 1.484 31.825 1.945 31.984 2.422 32.005 L 14.685 32.005 L 14.685 46.72 C 14.685 47.237 14.849 47.74 15.153 48.159 C 15.457 48.577 15.885 48.889 16.377 49.049 C 16.623 49.126 16.879 49.167 17.137 49.172 C 17.524 49.173 17.906 49.082 18.251 48.908 C 18.596 48.733 18.895 48.479 19.123 48.166 L 38.743 21.189 C 39.007 20.824 39.165 20.392 39.2 19.942 C 39.235 19.492 39.144 19.041 38.939 18.639 Z" fill="#E6B209"/>
    </symbol>
    <pattern id="pattern" x="0" y="0" width="66.597" height="99.896" patternUnits="userSpaceOnUse">
      <use href="#bolt" x="20" y="12" />
    </pattern>
  </defs>
  <rect y="82" width="574" height="510" rx="12" fill="#634700"/>
  <rect x="20" y="112" width="266.388" height="499.48" fill="url(#pattern)"/>
  <rect x="20" y="112" width="266.388" height="499.48" fill="url(#pattern)" transform="translate(295 0)"/>
</svg>