<svg width="323" height="662" viewBox="0 0 323 662" fill="none" xmlns="http://www.w3.org/2000/svg">
<rect width="319" height="662" rx="48" fill="white"/>
<mask id="mask0_1442_30985" style="mask-type:alpha" maskUnits="userSpaceOnUse" x="12" y="12" width="295" height="638">
<rect x="12" y="12" width="295" height="638" rx="36" fill="#EEEEEE"/>
</mask>
<g mask="url(#mask0_1442_30985)">
<rect x="12" y="12" width="295" height="638.773" rx="31.4667" fill="#110F18"/>
<path d="M37.7555 112.813V110.257H31.9877V99.1709H29.0833V112.813H37.7555ZM41.0166 101.871C41.8756 101.871 42.571 101.175 42.571 100.316C42.571 99.4573 41.8756 98.7823 41.0166 98.7823C40.178 98.7823 39.4621 99.4573 39.4621 100.316C39.4621 101.175 40.178 101.871 41.0166 101.871ZM42.3256 112.813V102.934H39.728V112.813H42.3256ZM50.26 112.813L54.228 102.934H51.4259L48.8487 109.807L46.2716 102.934H43.49L47.4579 112.813H50.26ZM56.6761 101.871C57.5352 101.871 58.2306 101.175 58.2306 100.316C58.2306 99.4573 57.5352 98.7823 56.6761 98.7823C55.8376 98.7823 55.1217 99.4573 55.1217 100.316C55.1217 101.175 55.8376 101.871 56.6761 101.871ZM57.9852 112.813V102.934H55.3876V112.813H57.9852ZM69.8262 112.813V105.839C69.8262 103.916 68.7831 102.689 66.615 102.689C64.9992 102.689 63.7925 103.466 63.1584 104.223V102.934H60.5608V112.813H63.1584V106.166C63.5879 105.573 64.3856 105 65.4083 105C66.5128 105 67.2286 105.471 67.2286 106.841V112.813H69.8262ZM76.4552 116.822C78.8891 116.822 81.7935 115.902 81.7935 112.138V102.934H79.1755V104.202C78.3778 103.2 77.3142 102.689 76.1279 102.689C73.6326 102.689 71.7713 104.489 71.7713 107.72C71.7713 111.013 73.6531 112.752 76.1279 112.752C77.3347 112.752 78.3982 112.179 79.1755 111.198V112.2C79.1755 114.143 77.7028 114.695 76.4552 114.695C75.2075 114.695 74.1644 114.347 73.3667 113.468L72.2009 115.35C73.4485 116.434 74.7575 116.822 76.4552 116.822ZM76.946 110.441C75.4734 110.441 74.4507 109.418 74.4507 107.72C74.4507 106.023 75.4734 105 76.946 105C77.8051 105 78.7459 105.471 79.1755 106.125V109.316C78.7459 109.95 77.8051 110.441 76.946 110.441ZM100.709 112.813L97.6411 107.618C99.1138 107.27 100.627 105.982 100.627 103.568C100.627 101.032 98.8888 99.1709 96.0458 99.1709H89.6643V112.813H92.5687V107.966H94.6959L97.3752 112.813H100.709ZM95.6163 105.409H92.5687V101.728H95.6163C96.7821 101.728 97.6616 102.423 97.6616 103.568C97.6616 104.714 96.7821 105.409 95.6163 105.409ZM106.708 113.059C109.981 113.059 111.944 110.686 111.944 107.864C111.944 105.062 109.981 102.689 106.708 102.689C103.456 102.689 101.493 105.062 101.493 107.864C101.493 110.686 103.456 113.059 106.708 113.059ZM106.708 110.748C105.092 110.748 104.192 109.418 104.192 107.864C104.192 106.33 105.092 105 106.708 105C108.324 105 109.244 106.33 109.244 107.864C109.244 109.418 108.324 110.748 106.708 110.748ZM118.453 113.059C121.725 113.059 123.689 110.686 123.689 107.864C123.689 105.062 121.725 102.689 118.453 102.689C115.201 102.689 113.237 105.062 113.237 107.864C113.237 110.686 115.201 113.059 118.453 113.059ZM118.453 110.748C116.837 110.748 115.937 109.418 115.937 107.864C115.937 106.33 116.837 105 118.453 105C120.069 105 120.989 106.33 120.989 107.864C120.989 109.418 120.069 110.748 118.453 110.748ZM140.486 112.813V105.675C140.486 103.65 139.402 102.689 137.581 102.689C136.068 102.689 134.759 103.589 134.186 104.489C133.818 103.364 132.897 102.689 131.445 102.689C129.932 102.689 128.623 103.63 128.214 104.223V102.934H125.616V112.813H128.214V106.166C128.602 105.614 129.359 105 130.259 105C131.323 105 131.732 105.655 131.732 106.575V112.813H134.35V106.146C134.718 105.614 135.475 105 136.395 105C137.459 105 137.868 105.655 137.868 106.575V112.813H140.486ZM151.232 112.813V107.168H157.839V104.612H151.232V101.728H157.982V99.1709H148.328V112.813H151.232ZM164.533 113.059C167.805 113.059 169.769 110.686 169.769 107.864C169.769 105.062 167.805 102.689 164.533 102.689C161.281 102.689 159.317 105.062 159.317 107.864C159.317 110.686 161.281 113.059 164.533 113.059ZM164.533 110.748C162.917 110.748 162.017 109.418 162.017 107.864C162.017 106.33 162.917 105 164.533 105C166.149 105 167.069 106.33 167.069 107.864C167.069 109.418 166.149 110.748 164.533 110.748ZM174.294 112.813V106.289C174.723 105.655 175.868 105.164 176.727 105.164C177.014 105.164 177.259 105.184 177.443 105.225V102.689C176.216 102.689 174.989 103.405 174.294 104.284V102.934H171.696V112.813H174.294ZM183.709 113.059C185.243 113.059 186.798 112.588 187.779 111.688L186.634 110.011C186 110.625 184.834 110.993 183.996 110.993C182.318 110.993 181.316 109.95 181.153 108.702H188.495V108.13C188.495 104.898 186.491 102.689 183.546 102.689C180.539 102.689 178.432 105 178.432 107.864C178.432 111.034 180.703 113.059 183.709 113.059ZM185.98 106.943H181.112C181.234 105.961 181.93 104.755 183.546 104.755C185.264 104.755 185.918 106.002 185.98 106.943ZM194.974 113.059C196.998 113.059 198.226 112.179 198.88 111.259L197.183 109.684C196.712 110.338 195.996 110.748 195.096 110.748C193.521 110.748 192.417 109.582 192.417 107.864C192.417 106.146 193.521 105 195.096 105C195.996 105 196.712 105.368 197.183 106.064L198.88 104.468C198.226 103.568 196.998 102.689 194.974 102.689C191.926 102.689 189.738 104.837 189.738 107.864C189.738 110.911 191.926 113.059 194.974 113.059ZM209.107 112.813V106.432C209.107 103.589 207.042 102.689 204.792 102.689C203.237 102.689 201.683 103.18 200.476 104.243L201.458 105.982C202.296 105.205 203.278 104.816 204.342 104.816C205.651 104.816 206.51 105.471 206.51 106.473V107.802C205.855 107.025 204.689 106.596 203.38 106.596C201.805 106.596 199.944 107.475 199.944 109.786C199.944 111.995 201.805 113.059 203.38 113.059C204.669 113.059 205.835 112.588 206.51 111.791V112.813H209.107ZM204.424 111.3C203.401 111.3 202.562 110.768 202.562 109.848C202.562 108.886 203.401 108.354 204.424 108.354C205.262 108.354 206.08 108.641 206.51 109.214V110.441C206.08 111.013 205.262 111.3 204.424 111.3ZM215.243 113.059C217.983 113.059 219.517 111.688 219.517 109.888C219.517 105.9 213.668 107.127 213.668 105.655C213.668 105.102 214.281 104.673 215.222 104.673C216.429 104.673 217.554 105.184 218.147 105.818L219.19 104.039C218.208 103.262 216.879 102.689 215.202 102.689C212.604 102.689 211.152 104.141 211.152 105.798C211.152 109.684 217.022 108.354 217.022 109.991C217.022 110.604 216.49 111.054 215.365 111.054C214.138 111.054 212.666 110.379 211.95 109.704L210.825 111.525C211.868 112.486 213.525 113.059 215.243 113.059ZM224.745 113.059C225.829 113.059 226.524 112.772 226.913 112.425L226.36 110.461C226.217 110.604 225.849 110.748 225.46 110.748C224.888 110.748 224.56 110.277 224.56 109.664V105.205H226.565V102.934H224.56V100.235H221.942V102.934H220.306V105.205H221.942V110.359C221.942 112.118 222.924 113.059 224.745 113.059Z" fill="white"/>
<path d="M32.3024 134.96V128.138H34.7442V126.565H28.0481V128.138H30.5025V134.96H32.3024ZM41.5665 134.96V130.643C41.5665 129.46 40.9246 128.73 39.5904 128.73C38.5961 128.73 37.8409 129.208 37.4507 129.674V126.565H35.8522V134.96H37.4507V130.869C37.7276 130.504 38.2185 130.152 38.8352 130.152C39.5275 130.152 39.968 130.416 39.968 131.26V134.96H41.5665ZM46.0106 135.111C46.9546 135.111 47.9112 134.822 48.5154 134.268L47.8105 133.236C47.4203 133.613 46.7029 133.84 46.1868 133.84C45.1547 133.84 44.538 133.198 44.4373 132.43H48.9559V132.078C48.9559 130.089 47.7224 128.73 45.9099 128.73C44.0597 128.73 42.7633 130.152 42.7633 131.914C42.7633 133.865 44.1604 135.111 46.0106 135.111ZM47.4077 131.348H44.4121C44.4876 130.743 44.9156 130.001 45.9099 130.001C46.9672 130.001 47.37 130.769 47.4077 131.348ZM51.709 134.96V130.945C51.9734 130.555 52.6782 130.253 53.2068 130.253C53.3831 130.253 53.5341 130.265 53.6474 130.29V128.73C52.8922 128.73 52.137 129.17 51.709 129.711V128.881H50.1105V134.96H51.709ZM63.7967 134.96V130.567C63.7967 129.321 63.1296 128.73 62.0094 128.73C61.0779 128.73 60.2724 129.283 59.92 129.837C59.6934 129.145 59.127 128.73 58.2334 128.73C57.3019 128.73 56.4964 129.309 56.2447 129.674V128.881H54.6462V134.96H56.2447V130.869C56.4838 130.529 56.9495 130.152 57.5033 130.152C58.1578 130.152 58.4096 130.555 58.4096 131.121V134.96H60.0207V130.857C60.2472 130.529 60.7129 130.152 61.2793 130.152C61.9338 130.152 62.1856 130.555 62.1856 131.121V134.96H63.7967ZM68.1839 135.111C70.1978 135.111 71.4061 133.651 71.4061 131.914C71.4061 130.19 70.1978 128.73 68.1839 128.73C66.1826 128.73 64.9743 130.19 64.9743 131.914C64.9743 133.651 66.1826 135.111 68.1839 135.111ZM68.1839 133.689C67.1896 133.689 66.6357 132.871 66.6357 131.914C66.6357 130.97 67.1896 130.152 68.1839 130.152C69.1782 130.152 69.7446 130.97 69.7446 131.914C69.7446 132.871 69.1782 133.689 68.1839 133.689ZM74.7821 135.111C76.4687 135.111 77.4127 134.268 77.4127 133.16C77.4127 130.706 73.8129 131.461 73.8129 130.555C73.8129 130.215 74.1905 129.95 74.7695 129.95C75.5121 129.95 76.2044 130.265 76.5694 130.655L77.2113 129.56C76.6071 129.082 75.789 128.73 74.7569 128.73C73.1584 128.73 72.2647 129.623 72.2647 130.643C72.2647 133.034 75.8771 132.216 75.8771 133.223C75.8771 133.601 75.5499 133.878 74.8576 133.878C74.1024 133.878 73.1961 133.462 72.7556 133.047L72.0633 134.167C72.7053 134.759 73.7248 135.111 74.7821 135.111ZM80.6294 135.111C81.2965 135.111 81.7244 134.935 81.9635 134.721L81.6237 133.513C81.5356 133.601 81.309 133.689 81.0699 133.689C80.7175 133.689 80.5161 133.399 80.5161 133.022V130.278H81.7496V128.881H80.5161V127.219H78.905V128.881H77.8981V130.278H78.905V133.45C78.905 134.532 79.5091 135.111 80.6294 135.111ZM88.0919 134.96V131.033C88.0919 129.283 86.8206 128.73 85.4361 128.73C84.4795 128.73 83.5229 129.032 82.7803 129.686L83.3845 130.756C83.9005 130.278 84.5047 130.039 85.1592 130.039C85.9647 130.039 86.4934 130.441 86.4934 131.058V131.876C86.0906 131.398 85.3732 131.134 84.5676 131.134C83.5984 131.134 82.453 131.675 82.453 133.097C82.453 134.457 83.5984 135.111 84.5676 135.111C85.3606 135.111 86.078 134.822 86.4934 134.331V134.96H88.0919ZM85.2095 134.029C84.5802 134.029 84.0641 133.701 84.0641 133.135C84.0641 132.543 84.5802 132.216 85.2095 132.216C85.7256 132.216 86.229 132.392 86.4934 132.745V133.5C86.229 133.852 85.7256 134.029 85.2095 134.029ZM91.7164 135.111C92.3835 135.111 92.8115 134.935 93.0506 134.721L92.7108 133.513C92.6227 133.601 92.3961 133.689 92.157 133.689C91.8045 133.689 91.6032 133.399 91.6032 133.022V130.278H92.8367V128.881H91.6032V127.219H89.9921V128.881H88.9851V130.278H89.9921V133.45C89.9921 134.532 90.5962 135.111 91.7164 135.111Z" fill="white"/>
<path d="M30.0619 154.258C31.7863 154.258 33.0198 153.339 33.0198 151.35V145.711H31.2325V151.325C31.2325 152.143 30.7164 152.672 29.9235 152.672C29.3445 152.672 28.9165 152.382 28.5893 152.068L27.8089 153.44C28.4131 154.031 29.2186 154.258 30.0619 154.258ZM37.5048 154.258C38.4488 154.258 39.4054 153.968 40.0095 153.414L39.3047 152.382C38.9145 152.76 38.197 152.986 37.681 152.986C36.6489 152.986 36.0321 152.345 35.9314 151.577H40.4501V151.224C40.4501 149.236 39.2166 147.876 37.4041 147.876C35.5538 147.876 34.2574 149.299 34.2574 151.061C34.2574 153.012 35.6545 154.258 37.5048 154.258ZM38.9019 150.494H35.9063C35.9818 149.89 36.4097 149.148 37.4041 149.148C38.4614 149.148 38.8641 149.915 38.9019 150.494ZM43.5682 154.107V149.424H44.8017V148.027H43.5682V147.7C43.5682 147.134 43.8829 146.844 44.3234 146.844C44.6129 146.844 44.8269 146.932 44.9905 147.096L45.5947 146.152C45.2045 145.737 44.5877 145.585 44.0087 145.585C42.7878 145.585 41.9571 146.404 41.9571 147.7V148.027H40.9502V149.424H41.9571V154.107H43.5682ZM47.6841 154.107V149.424H48.9175V148.027H47.6841V147.7C47.6841 147.134 47.9987 146.844 48.4393 146.844C48.7287 146.844 48.9427 146.932 49.1063 147.096L49.7105 146.152C49.3203 145.737 48.7036 145.585 48.1246 145.585C46.9037 145.585 46.073 146.404 46.073 147.7V148.027H45.066V149.424H46.073V154.107H47.6841ZM52.5768 146.869C52.5768 146.051 52.0356 145.585 51.444 145.585C50.9154 145.585 50.4623 146.039 50.4623 146.592C50.4623 147.121 50.8399 147.499 51.3182 147.499C51.4063 147.499 51.5195 147.473 51.5573 147.448C51.4566 147.901 50.9909 148.43 50.5881 148.644L51.2804 149.21C52.0482 148.657 52.5768 147.813 52.5768 146.869ZM55.6808 154.258C57.3674 154.258 58.3114 153.414 58.3114 152.307C58.3114 149.852 54.7116 150.608 54.7116 149.701C54.7116 149.361 55.0892 149.097 55.6682 149.097C56.4108 149.097 57.1031 149.412 57.4681 149.802L58.11 148.707C57.5059 148.229 56.6877 147.876 55.6556 147.876C54.0571 147.876 53.1635 148.77 53.1635 149.789C53.1635 152.181 56.7759 151.363 56.7759 152.37C56.7759 152.747 56.4486 153.024 55.7563 153.024C55.0011 153.024 54.0949 152.609 53.6544 152.193L52.9621 153.314C53.604 153.905 54.6235 154.258 55.6808 154.258ZM70.2992 154.107V145.711H68.4994V149.009H64.5346V145.711H62.7472V154.107H64.5346V150.582H68.4994V154.107H70.2992ZM74.7354 154.258C76.7492 154.258 77.9575 152.798 77.9575 151.061C77.9575 149.336 76.7492 147.876 74.7354 147.876C72.7341 147.876 71.5258 149.336 71.5258 151.061C71.5258 152.798 72.7341 154.258 74.7354 154.258ZM74.7354 152.835C73.741 152.835 73.1872 152.017 73.1872 151.061C73.1872 150.117 73.741 149.299 74.7354 149.299C75.7297 149.299 76.2961 150.117 76.2961 151.061C76.2961 152.017 75.7297 152.835 74.7354 152.835ZM84.8452 154.107V148.027H83.2467V152.143C82.9698 152.496 82.4789 152.835 81.8622 152.835C81.1825 152.835 80.7419 152.558 80.7419 151.715V148.027H79.1434V152.345C79.1434 153.528 79.7728 154.258 81.107 154.258C82.1013 154.258 82.8313 153.805 83.2467 153.339V154.107H84.8452ZM88.6225 154.258C90.3091 154.258 91.2531 153.414 91.2531 152.307C91.2531 149.852 87.6533 150.608 87.6533 149.701C87.6533 149.361 88.0309 149.097 88.6099 149.097C89.3525 149.097 90.0448 149.412 90.4098 149.802L91.0517 148.707C90.4475 148.229 89.6294 147.876 88.5973 147.876C86.9988 147.876 86.1051 148.77 86.1051 149.789C86.1051 152.181 89.7175 151.363 89.7175 152.37C89.7175 152.747 89.3903 153.024 88.698 153.024C87.9428 153.024 87.0366 152.609 86.596 152.193L85.9038 153.314C86.5457 153.905 87.5652 154.258 88.6225 154.258ZM95.2879 154.258C96.2319 154.258 97.1885 153.968 97.7927 153.414L97.0878 152.382C96.6976 152.76 95.9802 152.986 95.4641 152.986C94.432 152.986 93.8153 152.345 93.7146 151.577H98.2332V151.224C98.2332 149.236 96.9997 147.876 95.1872 147.876C93.337 147.876 92.0405 149.299 92.0405 151.061C92.0405 153.012 93.4377 154.258 95.2879 154.258ZM96.685 150.494H93.6894C93.7649 149.89 94.1929 149.148 95.1872 149.148C96.2445 149.148 96.6473 149.915 96.685 150.494Z" fill="#7F7C8C"/>
<g clip-path="url(#clip0_1442_30985)">
<rect width="87.8444" height="29.3733" transform="translate(27.7334 170.693)" fill="#282439"/>
<path d="M53.4365 188.987V187.413H50.0129C52.1904 185.828 53.3735 184.581 53.3735 183.147C53.3735 181.473 51.9512 180.466 50.1639 180.466C48.9934 180.466 47.7473 180.894 46.9292 181.838L47.9487 183.021C48.5151 182.429 49.2451 182.052 50.2017 182.052C50.894 182.052 51.5611 182.417 51.5611 183.147C51.5611 184.179 50.5541 185.047 47.118 187.59V188.987H53.4365ZM60.1906 188.987V187.25H61.273V185.676H60.1906V180.591H57.7236L54.3881 185.84V187.25H58.4033V188.987H60.1906ZM58.4033 185.676H56.1377L58.4033 182.177V185.676ZM71.3114 188.987V184.67C71.3114 183.486 70.6695 182.756 69.3353 182.756C68.3409 182.756 67.5857 183.235 67.1956 183.7V180.591H65.5971V188.987H67.1956V184.896C67.4725 184.531 67.9633 184.179 68.5801 184.179C69.2724 184.179 69.7129 184.443 69.7129 185.286V188.987H71.3114ZM75.7177 189.138C77.7316 189.138 78.9399 187.678 78.9399 185.941C78.9399 184.216 77.7316 182.756 75.7177 182.756C73.7164 182.756 72.5081 184.216 72.5081 185.941C72.5081 187.678 73.7164 189.138 75.7177 189.138ZM75.7177 187.716C74.7234 187.716 74.1696 186.897 74.1696 185.941C74.1696 184.997 74.7234 184.179 75.7177 184.179C76.7121 184.179 77.2785 184.997 77.2785 185.941C77.2785 186.897 76.7121 187.716 75.7177 187.716ZM85.8276 188.987V182.907H84.2291V187.023C83.9522 187.376 83.4613 187.716 82.8445 187.716C82.1648 187.716 81.7243 187.439 81.7243 186.595V182.907H80.1258V187.225C80.1258 188.408 80.7551 189.138 82.0893 189.138C83.0837 189.138 83.8137 188.685 84.2291 188.219V188.987H85.8276ZM89.0133 188.987V184.972C89.2776 184.581 89.9824 184.279 90.5111 184.279C90.6873 184.279 90.8383 184.292 90.9516 184.317V182.756C90.1964 182.756 89.4412 183.197 89.0133 183.738V182.907H87.4148V188.987H89.0133ZM94.1405 189.138C95.8271 189.138 96.7711 188.294 96.7711 187.187C96.7711 184.732 93.1713 185.488 93.1713 184.581C93.1713 184.242 93.5489 183.977 94.1279 183.977C94.8705 183.977 95.5628 184.292 95.9278 184.682L96.5697 183.587C95.9655 183.109 95.1474 182.756 94.1153 182.756C92.5168 182.756 91.6231 183.65 91.6231 184.67C91.6231 187.061 95.2355 186.243 95.2355 187.25C95.2355 187.627 94.9083 187.904 94.216 187.904C93.4608 187.904 92.5545 187.489 92.114 187.074L91.4217 188.194C92.0637 188.785 93.0832 189.138 94.1405 189.138Z" fill="white"/>
<path d="M152.95 188.987L155.342 180.591H153.328L151.868 186.658L150.282 180.591H148.885L147.286 186.658L145.814 180.591H143.812L146.216 188.987H148.117L149.577 183.222L151.05 188.987H152.95ZM158.5 189.138C159.444 189.138 160.401 188.848 161.005 188.294L160.3 187.262C159.91 187.64 159.192 187.867 158.676 187.867C157.644 187.867 157.027 187.225 156.927 186.457H161.445V186.104C161.445 184.116 160.212 182.756 158.399 182.756C156.549 182.756 155.253 184.179 155.253 185.941C155.253 187.892 156.65 189.138 158.5 189.138ZM159.897 185.374H156.902C156.977 184.77 157.405 184.028 158.399 184.028C159.457 184.028 159.859 184.795 159.897 185.374ZM165.457 189.138C166.401 189.138 167.358 188.848 167.962 188.294L167.257 187.262C166.867 187.64 166.149 187.867 165.633 187.867C164.601 187.867 163.985 187.225 163.884 186.457H168.402V186.104C168.402 184.116 167.169 182.756 165.357 182.756C163.506 182.756 162.21 184.179 162.21 185.941C162.21 187.892 163.607 189.138 165.457 189.138ZM166.854 185.374H163.859C163.934 184.77 164.362 184.028 165.357 184.028C166.414 184.028 166.817 184.795 166.854 185.374ZM175.498 188.987L173.018 185.664L175.423 182.907H173.459L171.156 185.614V180.591H169.557V188.987H171.156V187.426L171.886 186.646L173.497 188.987H175.498Z" fill="white"/>
<path d="M238.937 188.987V180.591H236.42L234.381 185.664L232.342 180.591H229.837V188.987H231.625V183.109L233.991 188.987H234.771L237.138 183.109V188.987H238.937ZM243.386 189.138C245.4 189.138 246.609 187.678 246.609 185.941C246.609 184.216 245.4 182.756 243.386 182.756C241.385 182.756 240.177 184.216 240.177 185.941C240.177 187.678 241.385 189.138 243.386 189.138ZM243.386 187.716C242.392 187.716 241.838 186.897 241.838 185.941C241.838 184.997 242.392 184.179 243.386 184.179C244.381 184.179 244.947 184.997 244.947 185.941C244.947 186.897 244.381 187.716 243.386 187.716ZM253.496 188.987V184.695C253.496 183.512 252.854 182.756 251.52 182.756C250.526 182.756 249.783 183.235 249.393 183.7V182.907H247.795V188.987H249.393V184.896C249.657 184.531 250.148 184.179 250.778 184.179C251.457 184.179 251.898 184.468 251.898 185.311V188.987H253.496ZM257.123 189.138C257.79 189.138 258.218 188.962 258.457 188.748L258.117 187.539C258.029 187.627 257.802 187.716 257.563 187.716C257.211 187.716 257.009 187.426 257.009 187.048V184.305H258.243V182.907H257.009V181.246H255.398V182.907H254.391V184.305H255.398V187.476C255.398 188.559 256.002 189.138 257.123 189.138ZM265.051 188.987V184.67C265.051 183.486 264.409 182.756 263.075 182.756C262.08 182.756 261.325 183.235 260.935 183.7V180.591H259.336V188.987H260.935V184.896C261.212 184.531 261.703 184.179 262.319 184.179C263.012 184.179 263.452 184.443 263.452 185.286V188.987H265.051Z" fill="white"/>
</g>
<rect x="28.1267" y="171.087" width="262.747" height="28.5867" rx="5.9" stroke="#282439" stroke-width="0.786667"/>
<path d="M119.328 246.019H121.271V244.157C124.257 243.851 125.73 242.112 125.73 239.842C125.73 237.06 123.378 236.242 121.271 235.71V232.826C122.192 233.051 123.071 233.481 123.807 234.156L125.423 232.029C124.319 231.026 122.928 230.392 121.271 230.208V228.265H119.328V230.167C116.567 230.454 114.931 232.213 114.931 234.279C114.931 237.06 117.221 237.837 119.328 238.369V241.601C117.937 241.355 116.833 240.64 116.076 239.842L114.501 242.051C115.606 243.176 117.18 243.994 119.328 244.178V246.019ZM122.785 240.169C122.785 240.803 122.273 241.396 121.271 241.601V238.86C122.151 239.146 122.785 239.494 122.785 240.169ZM117.896 234.033C117.896 233.338 118.408 232.826 119.328 232.704V235.199C118.469 234.953 117.896 234.626 117.896 234.033ZM132.117 243.973L137.189 232.356V230.331H126.942V232.888H133.814L128.926 243.973H132.117ZM138.297 244.198C139.197 244.198 139.954 243.442 139.954 242.542C139.954 241.642 139.197 240.885 138.297 240.885C137.397 240.885 136.64 241.642 136.64 242.542C136.64 243.442 137.397 244.198 138.297 244.198ZM147.171 244.219C150.464 244.219 152.632 242.399 152.632 239.494C152.632 236.733 150.566 235.076 148.255 235.076C147.007 235.076 145.903 235.567 145.248 236.222V232.888H151.712V230.331H142.344V238.165L144.369 238.696C145.187 237.919 146.107 237.592 147.232 237.592C148.787 237.592 149.687 238.41 149.687 239.617C149.687 240.721 148.766 241.642 147.151 241.642C145.719 241.642 144.451 241.11 143.53 240.149L141.914 242.174C143.08 243.442 144.798 244.219 147.171 244.219ZM160.412 243.973V230.331H157.876L153.581 234.647L155.238 236.385L157.508 234.074V243.973H160.412ZM163.647 244.382L168.494 229.922H166.612L161.765 244.382H163.647ZM179.193 243.973V230.331H176.575V235.363C175.798 234.36 174.694 233.849 173.528 233.849C171.012 233.849 169.151 235.813 169.151 239.044C169.151 242.337 171.032 244.219 173.528 244.219C174.714 244.219 175.798 243.687 176.575 242.705V243.973H179.193ZM174.325 241.908C172.853 241.908 171.83 240.742 171.83 239.044C171.83 237.326 172.853 236.16 174.325 236.16C175.205 236.16 176.146 236.631 176.575 237.285V240.783C176.146 241.437 175.205 241.908 174.325 241.908ZM190.298 243.973V237.592C190.298 234.749 188.232 233.849 185.983 233.849C184.428 233.849 182.874 234.34 181.667 235.403L182.649 237.142C183.487 236.365 184.469 235.976 185.533 235.976C186.842 235.976 187.701 236.631 187.701 237.633V238.962C187.046 238.185 185.88 237.756 184.571 237.756C182.996 237.756 181.135 238.635 181.135 240.946C181.135 243.155 182.996 244.219 184.571 244.219C185.86 244.219 187.026 243.748 187.701 242.951V243.973H190.298ZM185.614 242.46C184.592 242.46 183.753 241.928 183.753 241.008C183.753 240.046 184.592 239.515 185.614 239.515C186.453 239.515 187.271 239.801 187.701 240.374V241.601C187.271 242.174 186.453 242.46 185.614 242.46ZM192.527 247.839C192.854 247.921 193.509 247.982 193.816 247.982C195.513 247.941 196.822 247.45 197.559 245.589L202.201 234.094H199.399L196.822 240.967L194.245 234.094H191.463L195.472 244.117L195.104 244.955C194.859 245.487 194.409 245.671 193.734 245.671C193.488 245.671 193.141 245.61 192.916 245.507L192.527 247.839Z" fill="white"/>
<path d="M122.276 263.124C124.038 263.124 125.649 262.357 125.649 260.796C125.649 259.776 124.844 258.996 123.837 258.644C124.768 258.316 125.511 257.712 125.511 256.667C125.511 255.094 123.824 254.452 122.276 254.452C120.715 254.452 119.041 255.094 119.041 256.667C119.041 257.712 119.771 258.316 120.703 258.644C119.696 258.996 118.903 259.776 118.903 260.796C118.903 262.369 120.514 263.124 122.276 263.124ZM122.276 257.939C121.76 257.863 120.854 257.574 120.854 256.944C120.854 256.34 121.445 255.988 122.276 255.988C123.094 255.988 123.686 256.34 123.686 256.944C123.686 257.574 122.792 257.863 122.276 257.939ZM122.276 261.589C121.395 261.589 120.715 261.186 120.715 260.569C120.715 259.865 121.747 259.525 122.276 259.449C122.792 259.525 123.837 259.865 123.837 260.569C123.837 261.186 123.132 261.589 122.276 261.589ZM129.657 263.124C131.671 263.124 132.968 262.105 132.968 260.657C132.968 259.399 131.86 258.732 131.004 258.644C131.936 258.48 132.842 257.788 132.842 256.73C132.842 255.333 131.634 254.452 129.67 254.452C128.197 254.452 127.14 255.019 126.46 255.786L127.354 256.907C127.946 256.34 128.676 256.038 129.481 256.038C130.362 256.038 131.042 256.365 131.042 257.033C131.042 257.649 130.425 257.926 129.494 257.926C129.179 257.926 128.6 257.926 128.449 257.914V259.525C128.575 259.512 129.141 259.499 129.494 259.499C130.664 259.499 131.18 259.802 131.18 260.469C131.18 261.098 130.614 261.539 129.594 261.539C128.776 261.539 127.858 261.186 127.279 260.582L126.347 261.778C126.964 262.533 128.109 263.124 129.657 263.124ZM135.094 263.112C135.648 263.112 136.113 262.646 136.113 262.092C136.113 261.539 135.648 261.073 135.094 261.073C134.54 261.073 134.074 261.539 134.074 262.092C134.074 262.646 134.54 263.112 135.094 263.112ZM142.82 262.973V261.236H143.903V259.663H142.82V254.578H140.353L137.018 259.827V261.236H141.033V262.973H142.82ZM141.033 259.663H138.767L141.033 256.164V259.663ZM154.168 262.973L151.688 259.651L154.092 256.894H152.129L149.825 259.6V254.578H148.227V262.973H149.825V261.413L150.555 260.632L152.166 262.973H154.168ZM162.988 262.973L165.38 254.578H163.366L161.906 260.645L160.32 254.578H158.923L157.324 260.645L155.852 254.578H153.85L156.254 262.973H158.155L159.615 257.209L161.088 262.973H162.988ZM171.899 262.973V258.656C171.899 257.473 171.257 256.743 169.923 256.743C168.929 256.743 168.174 257.221 167.783 257.687V254.578H166.185V262.973H167.783V258.883C168.06 258.518 168.551 258.165 169.168 258.165C169.86 258.165 170.301 258.43 170.301 259.273V262.973H171.899ZM173.851 263.225L176.834 254.326H175.676L172.693 263.225H173.851ZM183.418 262.973V254.578H181.807V257.674C181.329 257.058 180.649 256.743 179.932 256.743C178.384 256.743 177.238 257.951 177.238 259.94C177.238 261.966 178.396 263.124 179.932 263.124C180.662 263.124 181.329 262.797 181.807 262.193V262.973H183.418ZM180.423 261.702C179.516 261.702 178.887 260.985 178.887 259.94C178.887 258.883 179.516 258.165 180.423 258.165C180.964 258.165 181.543 258.455 181.807 258.858V261.01C181.543 261.413 180.964 261.702 180.423 261.702ZM190.252 262.973V259.046C190.252 257.297 188.981 256.743 187.596 256.743C186.64 256.743 185.683 257.045 184.94 257.7L185.545 258.769C186.061 258.291 186.665 258.052 187.319 258.052C188.125 258.052 188.653 258.455 188.653 259.072V259.89C188.251 259.411 187.533 259.147 186.728 259.147C185.759 259.147 184.613 259.688 184.613 261.111C184.613 262.47 185.759 263.124 186.728 263.124C187.521 263.124 188.238 262.835 188.653 262.344V262.973H190.252ZM187.37 262.042C186.74 262.042 186.224 261.715 186.224 261.148C186.224 260.557 186.74 260.23 187.37 260.23C187.886 260.23 188.389 260.406 188.653 260.758V261.513C188.389 261.866 187.886 262.042 187.37 262.042ZM191.624 265.352C191.825 265.403 192.228 265.44 192.417 265.44C193.461 265.415 194.267 265.113 194.72 263.968L197.577 256.894H195.853L194.267 261.123L192.681 256.894H190.969L193.436 263.062L193.209 263.578C193.058 263.905 192.782 264.018 192.366 264.018C192.215 264.018 192.001 263.98 191.863 263.917L191.624 265.352Z" fill="#E6B209"/>
<path d="M30.3207 302.158C31.4543 302.158 32.3889 301.569 32.3889 300.591C32.3889 299.821 31.7312 299.293 31.013 299.077C31.6793 298.887 32.3024 298.454 32.3024 297.692C32.3024 296.654 31.2726 296.195 30.3207 296.195C29.3602 296.195 28.3478 296.654 28.3478 297.692C28.3478 298.454 28.9622 298.887 29.6285 299.077C28.9103 299.293 28.2526 299.821 28.2526 300.591C28.2526 301.578 29.1785 302.158 30.3207 302.158ZM30.3207 298.783C29.9746 298.722 29.066 298.489 29.066 297.788C29.066 297.191 29.6198 296.836 30.3207 296.836C31.013 296.836 31.5755 297.191 31.5755 297.788C31.5755 298.489 30.6755 298.722 30.3207 298.783ZM30.3207 301.517C29.6025 301.517 28.9708 301.136 28.9708 300.513C28.9708 299.761 29.966 299.44 30.3207 299.397C30.6755 299.44 31.662 299.761 31.662 300.513C31.662 301.136 31.0303 301.517 30.3207 301.517ZM35.4925 302.158C37.0674 302.158 37.6991 300.574 37.6991 299.172C37.6991 297.762 37.0674 296.195 35.4925 296.195C33.9089 296.195 33.2859 297.762 33.2859 299.172C33.2859 300.574 33.9089 302.158 35.4925 302.158ZM35.4925 301.517C34.3935 301.517 34.0214 300.323 34.0214 299.172C34.0214 298.021 34.3935 296.836 35.4925 296.836C36.5914 296.836 36.9635 298.021 36.9635 299.172C36.9635 300.323 36.5914 301.517 35.4925 301.517ZM40.3873 297.251C40.3873 296.671 39.9113 296.195 39.3229 296.195C38.7431 296.195 38.2759 296.671 38.2759 297.251C38.2759 297.84 38.7431 298.307 39.3229 298.307C39.9113 298.307 40.3873 297.84 40.3873 297.251ZM39.9719 297.251C39.9719 297.606 39.6777 297.891 39.3229 297.891C38.9768 297.891 38.6999 297.606 38.6999 297.251C38.6999 296.905 38.9768 296.611 39.3229 296.611C39.6777 296.611 39.9719 296.905 39.9719 297.251Z" fill="#7F7C8C"/>
<path d="M29.9313 329.52L32.2937 324.242V323.749H28.3564V324.389H31.463L29.1352 329.52H29.9313ZM35.5357 329.624C36.6953 329.624 37.5866 328.897 37.5866 327.72C37.5866 326.535 36.7126 325.877 35.7521 325.877C35.1723 325.877 34.6791 326.12 34.4021 326.397V324.389H37.2145V323.749H33.6839V326.864L34.2118 327.046C34.6012 326.665 35.0338 326.5 35.5444 326.5C36.3232 326.5 36.8683 326.985 36.8683 327.746C36.8683 328.447 36.3232 328.984 35.5357 328.984C34.8262 328.984 34.3243 328.707 33.9435 328.222L33.5022 328.698C33.9349 329.269 34.5579 329.624 35.5357 329.624ZM40.3873 324.718C40.3873 324.138 39.9113 323.662 39.3229 323.662C38.7431 323.662 38.2759 324.138 38.2759 324.718C38.2759 325.306 38.7431 325.773 39.3229 325.773C39.9113 325.773 40.3873 325.306 40.3873 324.718ZM39.9719 324.718C39.9719 325.073 39.6777 325.358 39.3229 325.358C38.9768 325.358 38.6999 325.073 38.6999 324.718C38.6999 324.372 38.9768 324.077 39.3229 324.077C39.6777 324.077 39.9719 324.372 39.9719 324.718Z" fill="#7F7C8C"/>
<path d="M29.9313 356.987L32.2937 351.708V351.215H28.3564V351.856H31.463L29.1352 356.987H29.9313ZM35.4925 357.091C37.0674 357.091 37.6991 355.507 37.6991 354.105C37.6991 352.695 37.0674 351.129 35.4925 351.129C33.9089 351.129 33.2859 352.695 33.2859 354.105C33.2859 355.507 33.9089 357.091 35.4925 357.091ZM35.4925 356.45C34.3935 356.45 34.0214 355.256 34.0214 354.105C34.0214 352.955 34.3935 351.769 35.4925 351.769C36.5914 351.769 36.9635 352.955 36.9635 354.105C36.9635 355.256 36.5914 356.45 35.4925 356.45ZM40.3873 352.184C40.3873 351.605 39.9113 351.129 39.3229 351.129C38.7431 351.129 38.2759 351.605 38.2759 352.184C38.2759 352.773 38.7431 353.24 39.3229 353.24C39.9113 353.24 40.3873 352.773 40.3873 352.184ZM39.9719 352.184C39.9719 352.539 39.6777 352.825 39.3229 352.825C38.9768 352.825 38.6999 352.539 38.6999 352.184C38.6999 351.838 38.9768 351.544 39.3229 351.544C39.6777 351.544 39.9719 351.838 39.9719 352.184Z" fill="#7F7C8C"/>
<path d="M30.4592 384.558C31.7226 384.558 32.4841 383.675 32.4841 382.671C32.4841 381.442 31.6361 380.828 30.5977 380.828C29.8535 380.828 29.2131 381.33 28.9622 381.728C28.9535 381.65 28.9535 381.581 28.9535 381.503C28.9535 380.369 29.4641 379.236 30.5803 379.236C31.1861 379.236 31.5236 379.478 31.8178 379.824L32.1812 379.288C31.8264 378.881 31.3245 378.595 30.5803 378.595C28.9622 378.595 28.2353 380.015 28.2353 381.581C28.2353 383.147 28.8497 384.558 30.4592 384.558ZM30.4332 383.917C29.4295 383.917 29.0487 383.035 28.9795 382.316C29.2997 381.806 29.8535 381.451 30.4246 381.451C31.1688 381.451 31.7572 381.849 31.7572 382.697C31.7572 383.251 31.3245 383.917 30.4332 383.917ZM35.5357 384.558C36.6953 384.558 37.5866 383.831 37.5866 382.654C37.5866 381.468 36.7126 380.811 35.7521 380.811C35.1723 380.811 34.6791 381.053 34.4021 381.33V379.322H37.2145V378.682H33.6839V381.797L34.2118 381.979C34.6012 381.598 35.0338 381.434 35.5444 381.434C36.3232 381.434 36.8683 381.918 36.8683 382.68C36.8683 383.381 36.3232 383.917 35.5357 383.917C34.8262 383.917 34.3243 383.64 33.9435 383.156L33.5022 383.632C33.9349 384.203 34.5579 384.558 35.5357 384.558ZM40.3873 379.651C40.3873 379.071 39.9113 378.595 39.3229 378.595C38.7431 378.595 38.2759 379.071 38.2759 379.651C38.2759 380.24 38.7431 380.707 39.3229 380.707C39.9113 380.707 40.3873 380.24 40.3873 379.651ZM39.9719 379.651C39.9719 380.006 39.6777 380.291 39.3229 380.291C38.9768 380.291 38.6999 380.006 38.6999 379.651C38.6999 379.305 38.9768 379.011 39.3229 379.011C39.6777 379.011 39.9719 379.305 39.9719 379.651Z" fill="#7F7C8C"/>
<path d="M30.4592 412.024C31.7226 412.024 32.4841 411.142 32.4841 410.138C32.4841 408.909 31.6361 408.295 30.5977 408.295C29.8535 408.295 29.2131 408.796 28.9622 409.195C28.9535 409.117 28.9535 409.047 28.9535 408.97C28.9535 407.836 29.4641 406.702 30.5803 406.702C31.1861 406.702 31.5236 406.945 31.8178 407.291L32.1812 406.754C31.8264 406.348 31.3245 406.062 30.5803 406.062C28.9622 406.062 28.2353 407.481 28.2353 409.047C28.2353 410.614 28.8497 412.024 30.4592 412.024ZM30.4332 411.384C29.4295 411.384 29.0487 410.501 28.9795 409.783C29.2997 409.272 29.8535 408.918 30.4246 408.918C31.1688 408.918 31.7572 409.316 31.7572 410.164C31.7572 410.718 31.3245 411.384 30.4332 411.384ZM35.4925 412.024C37.0674 412.024 37.6991 410.441 37.6991 409.039C37.6991 407.628 37.0674 406.062 35.4925 406.062C33.9089 406.062 33.2859 407.628 33.2859 409.039C33.2859 410.441 33.9089 412.024 35.4925 412.024ZM35.4925 411.384C34.3935 411.384 34.0214 410.19 34.0214 409.039C34.0214 407.888 34.3935 406.702 35.4925 406.702C36.5914 406.702 36.9635 407.888 36.9635 409.039C36.9635 410.19 36.5914 411.384 35.4925 411.384ZM40.3873 407.118C40.3873 406.538 39.9113 406.062 39.3229 406.062C38.7431 406.062 38.2759 406.538 38.2759 407.118C38.2759 407.706 38.7431 408.173 39.3229 408.173C39.9113 408.173 40.3873 407.706 40.3873 407.118ZM39.9719 407.118C39.9719 407.473 39.6777 407.758 39.3229 407.758C38.9768 407.758 38.6999 407.473 38.6999 407.118C38.6999 406.772 38.9768 406.477 39.3229 406.477C39.6777 406.477 39.9719 406.772 39.9719 407.118Z" fill="#7F7C8C"/>
<path d="M67.9082 420.054V414.282H67.2765L65.8314 415.77L66.2641 416.211L67.19 415.234V420.054H67.9082Z" fill="#7F7C8C"/>
<path d="M143.194 420.149C144.812 420.149 145.539 418.73 145.539 417.172C145.539 415.597 144.925 414.187 143.306 414.187C142.052 414.187 141.29 415.078 141.29 416.073C141.29 417.302 142.147 417.916 143.185 417.916C143.921 417.916 144.561 417.414 144.812 417.016C144.821 417.094 144.821 417.172 144.821 417.25C144.821 418.34 144.362 419.508 143.194 419.508C142.597 419.508 142.251 419.266 141.957 418.92L141.593 419.456C141.957 419.872 142.458 420.149 143.194 420.149ZM143.35 417.293C142.606 417.293 142.017 416.895 142.017 416.047C142.017 415.502 142.458 414.827 143.341 414.827C144.345 414.827 144.726 415.718 144.786 416.436C144.483 416.947 143.921 417.293 143.35 417.293Z" fill="white"/>
<path d="M182.368 420.053V414.282H181.736L180.291 415.77L180.724 416.211L181.65 415.234V420.053H182.368Z" fill="#7F7C8C"/>
<path d="M284.746 420.054V414.282H284.115L282.67 415.77L283.102 416.211L284.028 415.234V420.054H284.746ZM289.851 420.054V419.413H287.021C288.631 418.141 289.825 417.068 289.825 415.891C289.825 414.74 288.847 414.195 287.886 414.195C287.073 414.195 286.32 414.524 285.879 415.104L286.32 415.562C286.658 415.13 287.194 414.836 287.886 414.836C288.484 414.836 289.089 415.156 289.089 415.891C289.089 416.886 287.964 417.847 285.888 419.482V420.054H289.851Z" fill="#7F7C8C"/>
<mask id="mask1_1442_30985" style="mask-type:alpha" maskUnits="userSpaceOnUse" x="62" y="291" width="230" height="119">
<path d="M62.3467 387.42C63.5859 346.707 86.4995 333.828 100.107 333.828C113.714 333.828 129.649 309.963 141.8 310.675C155.456 311.475 162.851 306.301 176.807 306.295C195.293 306.287 190.967 290.994 209.453 291.054C225.973 291.107 230.366 303.527 242.1 314.653C253.507 325.47 251.35 327.157 263.34 333.828C274.747 340.175 291.267 355.462 291.267 355.462V409.053H62.3467V387.42Z" fill="#F47457"/>
</mask>
<g mask="url(#mask1_1442_30985)">
<rect x="62.3467" y="291.053" width="228.92" height="118" fill="#F47457"/>
<rect x="262.947" y="291.053" width="28.32" height="117.213" fill="#20A5D6"/>
<rect x="62.3467" y="291.053" width="43.2667" height="117.213" fill="#20A5D6"/>
</g>
<mask id="mask2_1442_30985" style="mask-type:alpha" maskUnits="userSpaceOnUse" x="61" y="325" width="231" height="15">
<path d="M61.5605 338.647C61.5605 338.647 85.1193 333.927 105.221 333.927C105.221 333.927 144.546 333.927 181.921 333.927C198.441 333.927 207.881 326.06 225.581 326.06C246.034 326.06 252.789 329.957 262.554 332.747C276.321 336.68 291.267 336.68 291.267 336.68" stroke="#20A5D6" stroke-width="1.57333"/>
</mask>
<g mask="url(#mask2_1442_30985)">
<rect x="62.3472" y="313.867" width="43.2667" height="44.0533" fill="#F47457"/>
<rect width="157.333" height="44.0533" transform="matrix(-1 0 0 1 262.947 313.867)" fill="#20A5D6"/>
<rect x="262.947" y="313.867" width="28.32" height="44.0533" fill="#F47457"/>
</g>
<rect x="62.3467" y="408.267" width="228.92" height="0.786667" fill="#27252E"/>
<path d="M142.587 311.507C142.587 311.072 142.939 310.72 143.374 310.72V310.72C143.808 310.72 144.16 311.072 144.16 311.507V408.267H142.587V311.507Z" fill="white"/>
<path d="M66.5431 431.067L64.2154 425.295H63.3241L61.005 431.067H61.827L62.3376 429.786H65.2105L65.721 431.067H66.5431ZM64.9942 429.146H62.5453L63.774 426.039L64.9942 429.146ZM72.9483 431.067V425.295H71.9186L70.1187 429.639L68.3275 425.295H67.2977V431.067H68.0159V426.316L69.9716 431.067H70.2658L72.2301 426.316V431.067H72.9483Z" fill="#7F7C8C"/>
<path d="M178.269 431.067V428.774H179.87C181.012 428.774 181.678 427.978 181.678 427.034C181.678 426.091 181.029 425.295 179.87 425.295H177.551V431.067H178.269ZM179.783 428.133H178.269V425.935H179.783C180.467 425.935 180.934 426.385 180.934 427.034C180.934 427.683 180.467 428.133 179.783 428.133ZM188.28 431.067V425.295H187.25L185.45 429.639L183.659 425.295H182.629V431.067H183.348V426.316L185.303 431.067H185.597L187.562 426.316V431.067H188.28Z" fill="#7F7C8C"/>
<rect x="119.773" y="284.76" width="47.32" height="18.88" rx="3.14667" fill="#F47457"/>
<path d="M139.44 291.84H138.81C138.729 291.487 138.591 291.15 138.401 290.841L138.842 290.4C138.971 290.25 139.038 290.056 139.03 289.858C139.023 289.66 138.941 289.473 138.801 289.333C138.661 289.192 138.473 289.11 138.275 289.103C138.077 289.095 137.883 289.162 137.733 289.291L137.292 289.732C136.984 289.542 136.646 289.404 136.293 289.323V288.693C136.293 288.485 136.21 288.285 136.063 288.137C135.915 287.99 135.715 287.907 135.506 287.907C135.298 287.907 135.098 287.99 134.95 288.137C134.803 288.285 134.72 288.485 134.72 288.693V289.323C134.369 289.403 134.034 289.541 133.729 289.732L133.28 289.291C133.13 289.162 132.936 289.095 132.738 289.103C132.54 289.11 132.352 289.192 132.212 289.333C132.072 289.473 131.99 289.66 131.982 289.858C131.975 290.056 132.042 290.25 132.171 290.4L132.612 290.849C132.541 290.967 132.486 291.101 132.423 291.226C132.018 291.112 131.6 291.054 131.18 291.053C130.046 291.053 128.95 291.46 128.092 292.201C127.234 292.942 126.671 293.967 126.507 295.089C125.867 295.269 125.313 295.674 124.948 296.23C124.584 296.785 124.432 297.455 124.522 298.113C124.613 298.772 124.938 299.376 125.439 299.813C125.939 300.251 126.582 300.492 127.246 300.493H134.46C135.364 300.493 136.23 300.135 136.869 299.496C137.508 298.857 137.866 297.991 137.866 297.087C137.866 296.669 137.786 296.256 137.63 295.868L137.733 295.962C137.879 296.108 138.077 296.189 138.283 296.19C138.387 296.191 138.49 296.171 138.585 296.132C138.681 296.093 138.768 296.035 138.842 295.962C138.988 295.815 139.071 295.615 139.071 295.408C139.071 295.2 138.988 295 138.842 294.853L138.401 294.412C138.591 294.104 138.729 293.766 138.81 293.413H139.44C139.648 293.413 139.849 293.331 139.996 293.183C140.144 293.035 140.226 292.835 140.226 292.627C140.226 292.418 140.144 292.218 139.996 292.07C139.849 291.923 139.648 291.84 139.44 291.84ZM134.46 298.92H127.246C126.934 298.92 126.633 298.796 126.412 298.574C126.191 298.353 126.066 298.053 126.066 297.74C126.066 297.427 126.191 297.127 126.412 296.906C126.633 296.684 126.934 296.56 127.246 296.56C127.455 296.56 127.655 296.477 127.803 296.33C127.95 296.182 128.033 295.982 128.033 295.773C128.036 295.031 128.303 294.313 128.784 293.747C129.266 293.182 129.932 292.805 130.665 292.683C131.398 292.562 132.15 292.704 132.789 293.083C133.427 293.463 133.91 294.057 134.153 294.759C134.198 294.894 134.279 295.014 134.387 295.107C134.495 295.2 134.627 295.262 134.767 295.286C135.214 295.369 135.613 295.615 135.888 295.977C136.164 296.338 136.295 296.789 136.257 297.242C136.218 297.694 136.013 298.117 135.682 298.427C135.35 298.737 134.914 298.913 134.46 298.92ZM136.82 293.925C136.682 294.055 136.522 294.162 136.348 294.239C136.087 294.069 135.804 293.934 135.506 293.838C135.145 293.049 134.577 292.372 133.862 291.879C133.948 291.678 134.071 291.494 134.224 291.337C134.576 291.01 135.038 290.829 135.518 290.829C135.998 290.829 136.46 291.01 136.812 291.337V291.337C137.15 291.684 137.338 292.15 137.338 292.635C137.338 293.119 137.15 293.585 136.812 293.933L136.82 293.925Z" fill="white"/>
<path d="M148.733 298.2L151.854 291.051V289.805H145.549V291.378H149.778L146.769 298.2H148.733ZM155.919 298.351C157.681 298.351 159.292 297.583 159.292 296.023C159.292 295.003 158.487 294.223 157.48 293.87C158.411 293.543 159.154 292.939 159.154 291.894C159.154 290.321 157.467 289.679 155.919 289.679C154.358 289.679 152.684 290.321 152.684 291.894C152.684 292.939 153.414 293.543 154.346 293.87C153.339 294.223 152.546 295.003 152.546 296.023C152.546 297.596 154.157 298.351 155.919 298.351ZM155.919 293.165C155.403 293.09 154.497 292.8 154.497 292.171C154.497 291.567 155.088 291.214 155.919 291.214C156.737 291.214 157.329 291.567 157.329 292.171C157.329 292.8 156.435 293.09 155.919 293.165ZM155.919 296.816C155.038 296.816 154.358 296.413 154.358 295.796C154.358 295.091 155.39 294.751 155.919 294.676C156.435 294.751 157.48 295.091 157.48 295.796C157.48 296.413 156.775 296.816 155.919 296.816ZM163.388 291.391C163.388 290.447 162.633 289.679 161.689 289.679C160.745 289.679 159.99 290.447 159.99 291.391C159.99 292.335 160.745 293.077 161.689 293.077C162.633 293.077 163.388 292.335 163.388 291.391ZM162.52 291.391C162.52 291.844 162.142 292.209 161.689 292.209C161.224 292.209 160.871 291.844 160.871 291.391C160.871 290.925 161.224 290.547 161.689 290.547C162.142 290.547 162.52 290.925 162.52 291.391Z" fill="white"/>
<path d="M143.433 307.534L139.54 303.64L147.327 303.64L143.433 307.534Z" fill="#F47457"/>
<path d="M143.433 336.68L147.327 340.574H139.54L143.433 336.68Z" fill="#20A5D6"/>
<rect x="119.773" y="340.574" width="47.32" height="18.88" rx="3.14667" fill="#20A5D6"/>
<path d="M139.959 348.637L132.879 342.344C132.736 342.218 132.551 342.148 132.36 342.148C132.169 342.148 131.985 342.218 131.841 342.344L124.761 348.637C124.641 348.744 124.556 348.884 124.518 349.04C124.48 349.197 124.491 349.361 124.549 349.51C124.606 349.658 124.706 349.785 124.837 349.875C124.967 349.965 125.122 350.013 125.28 350.014H126.067V357.094C126.067 357.302 126.15 357.503 126.297 357.65C126.445 357.798 126.645 357.881 126.854 357.881H137.867C138.076 357.881 138.276 357.798 138.423 357.65C138.571 357.503 138.654 357.302 138.654 357.094V350.014H139.44C139.599 350.013 139.753 349.965 139.884 349.875C140.014 349.785 140.115 349.658 140.172 349.51C140.23 349.361 140.241 349.197 140.203 349.04C140.165 348.884 140.08 348.744 139.959 348.637ZM133.147 356.307H131.574V353.947C131.574 353.739 131.656 353.538 131.804 353.391C131.952 353.243 132.152 353.161 132.36 353.161C132.569 353.161 132.769 353.243 132.917 353.391C133.064 353.538 133.147 353.739 133.147 353.947V356.307ZM137.08 356.307H134.72V353.947C134.72 353.321 134.472 352.721 134.029 352.278C133.586 351.836 132.986 351.587 132.36 351.587C131.734 351.587 131.134 351.836 130.691 352.278C130.249 352.721 130 353.321 130 353.947V356.307H127.64V348.441L137.08 348.441L137.08 356.307ZM127.349 348.441L132.36 343.988L137.371 348.441H127.349Z" fill="white"/>
<path d="M148.856 354.014L151.977 346.865V345.619H145.671V347.192H149.901L146.892 354.014H148.856ZM155.79 354.165C157.804 354.165 159.1 353.145 159.1 351.698C159.1 350.439 157.993 349.772 157.137 349.684C158.068 349.52 158.975 348.828 158.975 347.771C158.975 346.374 157.766 345.493 155.803 345.493C154.33 345.493 153.273 346.059 152.593 346.827L153.487 347.947C154.078 347.381 154.808 347.079 155.614 347.079C156.495 347.079 157.175 347.406 157.175 348.073C157.175 348.69 156.558 348.967 155.627 348.967C155.312 348.967 154.733 348.967 154.582 348.954V350.565C154.708 350.553 155.274 350.54 155.627 350.54C156.797 350.54 157.313 350.842 157.313 351.509C157.313 352.138 156.747 352.579 155.727 352.579C154.909 352.579 153.99 352.227 153.411 351.622L152.48 352.818C153.097 353.573 154.242 354.165 155.79 354.165ZM163.266 347.204C163.266 346.26 162.51 345.493 161.566 345.493C160.622 345.493 159.867 346.26 159.867 347.204C159.867 348.148 160.622 348.891 161.566 348.891C162.51 348.891 163.266 348.148 163.266 347.204ZM162.397 347.204C162.397 347.658 162.019 348.023 161.566 348.023C161.101 348.023 160.748 347.658 160.748 347.204C160.748 346.739 161.101 346.361 161.566 346.361C162.019 346.361 162.397 346.739 162.397 347.204Z" fill="white"/>
<rect x="251.933" y="370.507" width="22.0267" height="22.0267" rx="11.0133" fill="white"/>
<path fill-rule="evenodd" clip-rule="evenodd" d="M260.37 377.472C259.566 378.116 258.589 378.898 257.047 378.898C256.685 378.898 256.391 378.604 256.391 378.242C256.391 377.88 256.685 377.587 257.047 377.587C258.104 377.587 258.759 377.082 259.587 376.419C259.599 376.41 259.611 376.4 259.624 376.39C260.428 375.747 261.405 374.965 262.947 374.965C263.309 374.965 263.602 375.258 263.602 375.62C263.602 375.982 263.309 376.276 262.947 376.276C261.89 376.276 261.234 376.781 260.406 377.443C260.394 377.453 260.382 377.463 260.37 377.472ZM263.316 380.098C261.696 381.394 259.899 382.831 257.047 382.831C256.685 382.831 256.391 382.538 256.391 382.176C256.391 381.814 256.685 381.52 257.047 381.52C259.415 381.52 260.89 380.359 262.537 379.042L262.578 379.009C264.198 377.713 265.994 376.276 268.847 376.276C269.209 376.276 269.502 376.569 269.502 376.931C269.502 377.293 269.209 377.587 268.847 377.587C266.479 377.587 265.003 378.748 263.356 380.065L263.316 380.098ZM263.316 384.031C261.696 385.327 259.899 386.765 257.047 386.765C256.685 386.765 256.391 386.471 256.391 386.109C256.391 385.747 256.685 385.453 257.047 385.453C259.415 385.453 260.89 384.293 262.537 382.975L262.578 382.942C264.198 381.646 265.994 380.209 268.847 380.209C269.209 380.209 269.502 380.503 269.502 380.865C269.502 381.227 269.209 381.52 268.847 381.52C266.479 381.52 265.003 382.681 263.356 383.999L263.316 384.031ZM266.27 386.65C265.466 387.294 264.489 388.076 262.947 388.076C262.585 388.076 262.291 387.782 262.291 387.42C262.291 387.058 262.585 386.765 262.947 386.765C264.004 386.765 264.659 386.259 265.487 385.597C265.499 385.587 265.511 385.578 265.524 385.568C266.328 384.924 267.305 384.142 268.847 384.142C269.209 384.142 269.502 384.436 269.502 384.798C269.502 385.16 269.209 385.453 268.847 385.453C267.79 385.453 267.134 385.959 266.306 386.621C266.294 386.631 266.282 386.64 266.27 386.65Z" fill="#F47457"/>
<rect x="94.6001" y="370.507" width="22.0267" height="22.0267" rx="11.0133" fill="white"/>
<path fill-rule="evenodd" clip-rule="evenodd" d="M103.037 377.472C102.233 378.116 101.256 378.898 99.7137 378.898C99.3516 378.898 99.0581 378.604 99.0581 378.242C99.0581 377.88 99.3516 377.587 99.7137 377.587C100.771 377.587 101.426 377.082 102.254 376.419C102.266 376.41 102.278 376.4 102.291 376.39C103.095 375.747 104.072 374.965 105.614 374.965C105.976 374.965 106.269 375.258 106.269 375.62C106.269 375.982 105.976 376.276 105.614 376.276C104.557 376.276 103.901 376.781 103.073 377.443C103.061 377.453 103.049 377.463 103.037 377.472ZM105.983 380.098C104.363 381.394 102.566 382.831 99.7137 382.831C99.3516 382.831 99.0581 382.538 99.0581 382.176C99.0581 381.814 99.3516 381.52 99.7137 381.52C102.082 381.52 103.557 380.359 105.204 379.042L105.245 379.009C106.865 377.713 108.661 376.276 111.514 376.276C111.876 376.276 112.169 376.569 112.169 376.931C112.169 377.293 111.876 377.587 111.514 377.587C109.146 377.587 107.67 378.748 106.023 380.065L105.983 380.098ZM105.983 384.031C104.363 385.327 102.566 386.765 99.7137 386.765C99.3516 386.765 99.0581 386.471 99.0581 386.109C99.0581 385.747 99.3516 385.453 99.7137 385.453C102.082 385.453 103.557 384.293 105.204 382.975L105.245 382.942C106.865 381.646 108.661 380.209 111.514 380.209C111.876 380.209 112.169 380.503 112.169 380.865C112.169 381.227 111.876 381.52 111.514 381.52C109.146 381.52 107.67 382.681 106.023 383.999L105.983 384.031ZM108.937 386.65C108.133 387.294 107.156 388.076 105.614 388.076C105.252 388.076 104.958 387.782 104.958 387.42C104.958 387.058 105.252 386.765 105.614 386.765C106.671 386.765 107.326 386.259 108.154 385.597C108.166 385.587 108.178 385.578 108.191 385.568C108.995 384.924 109.972 384.142 111.514 384.142C111.876 384.142 112.169 384.436 112.169 384.798C112.169 385.16 111.876 385.453 111.514 385.453C110.457 385.453 109.801 385.959 108.973 386.621C108.961 386.631 108.949 386.64 108.937 386.65Z" fill="#20A5D6"/>
<rect x="12" y="586" width="295" height="65" fill="#2A2933"/>
<rect x="12" y="585" width="295" height="1" fill="#34323B"/>
<rect x="106.4" y="641.32" width="105" height="4" rx="2" fill="white"/>
<rect width="295" height="38.5467" transform="translate(12 586)" fill="#2A2933"/>
<path fill-rule="evenodd" clip-rule="evenodd" d="M43.3359 597.955L48.8425 602.782C49.1329 603.042 49.3648 603.36 49.523 603.716C49.6813 604.072 49.7621 604.458 49.7603 604.847V612.878C49.7603 613.608 49.4702 614.308 48.9539 614.825C48.4375 615.341 47.7372 615.631 47.007 615.631H35.9937C35.2634 615.631 34.5631 615.341 34.0468 614.825C33.5304 614.308 33.2403 613.608 33.2403 612.878V604.856C33.2372 604.465 33.3175 604.078 33.4757 603.72C33.634 603.363 33.8666 603.043 34.1581 602.782L39.6648 597.955C40.1696 597.503 40.8231 597.254 41.5003 597.254C42.1776 597.254 42.8311 597.503 43.3359 597.955ZM45.1715 613.796V609.207C45.1715 608.476 44.8814 607.776 44.365 607.26C43.8487 606.743 43.1484 606.453 42.4181 606.453H40.5826C39.8524 606.453 39.152 606.743 38.6357 607.26C38.1193 607.776 37.8293 608.476 37.8293 609.207V613.796H45.1715Z" fill="white"/>
<path fill-rule="evenodd" clip-rule="evenodd" d="M100.5 611.96C103.541 611.96 106.007 609.495 106.007 606.453C106.007 603.412 103.541 600.947 100.5 600.947C97.4588 600.947 94.9934 603.412 94.9934 606.453C94.9934 609.495 97.4588 611.96 100.5 611.96ZM100.5 615.631C105.569 615.631 109.678 611.522 109.678 606.453C109.678 601.385 105.569 597.276 100.5 597.276C95.4313 597.276 91.3223 601.385 91.3223 606.453C91.3223 611.522 95.4313 615.631 100.5 615.631Z" fill="#E6B209"/>
<rect x="99.5825" y="600.947" width="1.83556" height="3.67111" fill="#E6B209"/>
<path opacity="0.5" fill-rule="evenodd" clip-rule="evenodd" d="M100.5 611.96C103.542 611.96 106.007 609.495 106.007 606.453C106.007 603.412 103.542 600.947 100.5 600.947C97.4591 600.947 94.9937 603.412 94.9937 606.453C94.9937 609.495 97.4591 611.96 100.5 611.96Z" fill="#E6B209"/>
<path d="M166.742 604.205C166.665 604.053 166.549 603.926 166.404 603.837C166.26 603.748 166.094 603.701 165.925 603.7H161.336V598.193C161.346 597.992 161.289 597.793 161.175 597.627C161.06 597.461 160.894 597.338 160.703 597.276C160.518 597.215 160.32 597.214 160.135 597.274C159.95 597.333 159.789 597.449 159.675 597.606L152.332 607.702C152.24 607.834 152.185 607.989 152.172 608.151C152.159 608.312 152.189 608.473 152.259 608.619C152.323 608.786 152.435 608.931 152.58 609.035C152.725 609.139 152.897 609.199 153.076 609.207H157.665V614.713C157.665 614.907 157.726 615.095 157.84 615.252C157.954 615.409 158.114 615.525 158.298 615.585C158.39 615.614 158.486 615.629 158.583 615.631C158.727 615.632 158.87 615.598 158.999 615.532C159.129 615.467 159.241 615.372 159.326 615.255L166.668 605.159C166.767 605.022 166.826 604.861 166.839 604.692C166.852 604.524 166.818 604.355 166.742 604.205Z" fill="white"/>
<path d="M218.5 609.207C217.955 609.207 217.423 609.368 216.97 609.671C216.517 609.973 216.164 610.403 215.956 610.906C215.748 611.409 215.693 611.963 215.799 612.497C215.906 613.031 216.168 613.522 216.553 613.907C216.938 614.292 217.428 614.554 217.963 614.66C218.497 614.767 219.05 614.712 219.553 614.504C220.056 614.295 220.486 613.942 220.789 613.49C221.092 613.037 221.253 612.505 221.253 611.96C221.253 611.23 220.963 610.529 220.447 610.013C219.93 609.497 219.23 609.207 218.5 609.207ZM218.5 605.536C216.797 605.541 215.165 606.217 213.957 607.417C213.786 607.589 213.69 607.822 213.69 608.064C213.69 608.306 213.786 608.539 213.957 608.711C214.129 608.882 214.361 608.978 214.604 608.978C214.846 608.978 215.079 608.882 215.251 608.711C215.677 608.284 216.183 607.945 216.741 607.713C217.298 607.482 217.896 607.363 218.5 607.363C219.103 607.363 219.701 607.482 220.258 607.713C220.816 607.945 221.322 608.284 221.749 608.711C221.918 608.884 222.149 608.983 222.391 608.986C222.577 608.997 222.762 608.951 222.922 608.854C223.081 608.757 223.207 608.613 223.283 608.443C223.358 608.272 223.38 608.083 223.346 607.9C223.311 607.716 223.221 607.548 223.089 607.417C222.485 606.817 221.769 606.343 220.981 606.02C220.194 605.697 219.351 605.532 218.5 605.536ZM218.5 601.864C215.823 601.872 213.258 602.933 211.359 604.82C211.274 604.905 211.206 605.007 211.16 605.119C211.113 605.23 211.089 605.35 211.089 605.471C211.089 605.716 211.187 605.95 211.359 606.123C211.532 606.296 211.767 606.393 212.011 606.393C212.255 606.393 212.49 606.296 212.663 606.123C214.211 604.576 216.311 603.707 218.5 603.707C220.689 603.707 222.788 604.576 224.337 606.123C224.423 606.208 224.524 606.275 224.636 606.321C224.748 606.367 224.868 606.39 224.988 606.389C225.109 606.39 225.229 606.367 225.341 606.321C225.453 606.275 225.554 606.208 225.64 606.123C225.726 606.038 225.794 605.936 225.841 605.824C225.888 605.712 225.912 605.592 225.912 605.471C225.912 605.35 225.888 605.23 225.841 605.118C225.794 605.006 225.726 604.905 225.64 604.82C223.742 602.933 221.176 601.872 218.5 601.864ZM228.237 602.222C226.959 600.943 225.441 599.928 223.77 599.236C222.099 598.543 220.308 598.187 218.5 598.187C216.691 598.187 214.9 598.543 213.229 599.236C211.559 599.928 210.041 600.943 208.762 602.222C208.589 602.395 208.492 602.63 208.492 602.874C208.492 603.118 208.589 603.353 208.762 603.526C208.935 603.698 209.169 603.796 209.414 603.796C209.658 603.796 209.893 603.698 210.065 603.526C212.303 601.289 215.336 600.033 218.5 600.033C221.663 600.033 224.697 601.289 226.934 603.526C227.019 603.612 227.121 603.68 227.233 603.726C227.345 603.773 227.465 603.797 227.586 603.797C227.707 603.797 227.827 603.773 227.939 603.726C228.051 603.68 228.152 603.612 228.237 603.526C228.323 603.44 228.392 603.339 228.438 603.227C228.485 603.115 228.509 602.995 228.509 602.874C228.509 602.753 228.485 602.633 228.438 602.521C228.392 602.409 228.323 602.308 228.237 602.222Z" fill="white"/>
<path fill-rule="evenodd" clip-rule="evenodd" d="M270.158 597.276H284.842C285.086 597.276 285.319 597.372 285.491 597.544C285.664 597.717 285.76 597.95 285.76 598.193V614.713C285.76 614.883 285.712 615.049 285.623 615.193C285.534 615.337 285.407 615.454 285.255 615.53C285.103 615.607 284.932 615.641 284.762 615.626C284.592 615.612 284.429 615.55 284.292 615.448L282.392 614.025L280.501 615.448C280.343 615.567 280.149 615.631 279.951 615.631C279.752 615.631 279.559 615.567 279.4 615.448L277.5 614.025L275.6 615.448C275.442 615.567 275.248 615.631 275.05 615.631C274.851 615.631 274.658 615.567 274.499 615.448L272.608 614.025L270.709 615.448C270.572 615.55 270.41 615.612 270.24 615.627C270.071 615.643 269.9 615.61 269.748 615.534C269.595 615.458 269.467 615.341 269.377 615.196C269.288 615.051 269.24 614.884 269.24 614.713V598.193C269.24 597.95 269.337 597.717 269.509 597.544C269.681 597.372 269.915 597.276 270.158 597.276ZM279.338 604.159H277.044C276.922 604.159 276.805 604.207 276.719 604.293C276.633 604.379 276.585 604.496 276.585 604.618C276.585 604.74 276.633 604.856 276.719 604.942C276.805 605.028 276.922 605.077 277.044 605.077H277.961C278.53 605.076 279.079 605.287 279.502 605.668C279.924 606.05 280.189 606.574 280.247 607.141C280.304 607.707 280.149 608.274 279.811 608.732C279.474 609.19 278.978 609.506 278.42 609.62V610.124C278.42 610.368 278.324 610.601 278.152 610.773C277.979 610.946 277.746 611.042 277.503 611.042C277.259 611.042 277.026 610.946 276.854 610.773C276.681 610.601 276.585 610.368 276.585 610.124V609.666H275.667C275.424 609.666 275.19 609.569 275.018 609.397C274.846 609.225 274.749 608.991 274.749 608.748C274.749 608.504 274.846 608.271 275.018 608.099C275.19 607.927 275.424 607.83 275.667 607.83H277.961C278.083 607.83 278.2 607.782 278.286 607.696C278.372 607.61 278.42 607.493 278.42 607.371C278.42 607.249 278.372 607.133 278.286 607.047C278.2 606.961 278.083 606.912 277.961 606.912H277.044C276.475 606.913 275.926 606.702 275.503 606.321C275.081 605.939 274.816 605.415 274.759 604.848C274.701 604.282 274.857 603.715 275.194 603.257C275.531 602.799 276.027 602.482 276.585 602.369V601.864C276.585 601.621 276.681 601.388 276.854 601.216C277.026 601.043 277.259 600.947 277.503 600.947C277.746 600.947 277.979 601.043 278.152 601.216C278.324 601.388 278.42 601.621 278.42 601.864V602.323H279.338C279.582 602.323 279.815 602.42 279.987 602.592C280.159 602.764 280.256 602.998 280.256 603.241C280.256 603.485 280.159 603.718 279.987 603.89C279.815 604.062 279.582 604.159 279.338 604.159Z" fill="white"/>
<rect x="12" y="12" width="295" height="69.08" fill="#282439"/>
<path d="M287.504 64.5257C287.357 64.3583 287.276 64.1429 287.276 63.92C287.276 63.6971 287.357 63.4818 287.504 63.3143L288.679 61.9927C288.808 61.8483 288.889 61.6666 288.909 61.4737C288.928 61.2808 288.887 61.0865 288.789 60.9189L286.954 57.7434C286.857 57.5759 286.71 57.4431 286.534 57.364C286.358 57.2849 286.161 57.2635 285.972 57.3028L284.246 57.6516C284.027 57.697 283.798 57.6604 283.604 57.5488C283.409 57.4372 283.262 57.2583 283.191 57.0459L282.631 55.3663C282.569 55.184 282.452 55.0257 282.295 54.9137C282.139 54.8017 281.951 54.7417 281.759 54.7422H278.088C277.888 54.7318 277.69 54.7871 277.524 54.8998C277.358 55.0125 277.234 55.1764 277.17 55.3663L276.656 57.0459C276.584 57.2583 276.438 57.4372 276.243 57.5488C276.049 57.6604 275.82 57.697 275.601 57.6516L273.829 57.3028C273.65 57.2775 273.467 57.3058 273.304 57.3842C273.14 57.4626 273.004 57.5876 272.912 57.7434L271.076 60.9189C270.976 61.0847 270.931 61.2778 270.948 61.4707C270.964 61.6635 271.041 61.8462 271.168 61.9927L272.333 63.3143C272.48 63.4818 272.562 63.6971 272.562 63.92C272.562 64.1429 272.48 64.3583 272.333 64.5257L271.168 65.8473C271.041 65.9938 270.964 66.1765 270.948 66.3694C270.931 66.5622 270.976 66.7553 271.076 66.9211L272.912 70.0967C273.008 70.2641 273.155 70.3969 273.331 70.476C273.508 70.5551 273.704 70.5765 273.894 70.5372L275.619 70.1884C275.839 70.1431 276.067 70.1796 276.262 70.2912C276.456 70.4028 276.603 70.5817 276.674 70.7942L277.234 72.4737C277.298 72.6637 277.422 72.8275 277.588 72.9402C277.754 73.0529 277.952 73.1082 278.152 73.0978H281.823C282.016 73.0983 282.203 73.0383 282.36 72.9263C282.516 72.8143 282.633 72.656 282.695 72.4737L283.255 70.7942C283.326 70.5817 283.473 70.4028 283.668 70.2912C283.862 70.1796 284.091 70.1431 284.31 70.1884L286.036 70.5372C286.225 70.5765 286.422 70.5551 286.598 70.476C286.774 70.3969 286.921 70.2641 287.018 70.0967L288.853 66.9211C288.951 66.7535 288.993 66.5593 288.973 66.3663C288.953 66.1734 288.873 65.9917 288.743 65.8473L287.504 64.5257ZM279.923 65.7556C279.56 65.7556 279.205 65.6479 278.904 65.4462C278.602 65.2445 278.366 64.9578 278.228 64.6224C278.089 64.287 278.052 63.918 278.123 63.5619C278.194 63.2058 278.369 62.8788 278.625 62.6221C278.882 62.3654 279.209 62.1905 279.565 62.1197C279.921 62.0489 280.29 62.0852 280.626 62.2242C280.961 62.3631 281.248 62.5984 281.45 62.9002C281.651 63.2021 281.759 63.557 281.759 63.92C281.759 64.4068 281.566 64.8737 281.221 65.2179C280.877 65.5622 280.41 65.7556 279.923 65.7556Z" fill="white"/>
<path d="M38.0902 58.6826L33.5013 63.2715C33.4178 63.3587 33.3523 63.4617 33.3086 63.5743C33.2168 63.7978 33.2168 64.0484 33.3086 64.2718C33.3523 64.3845 33.4178 64.4874 33.5013 64.5747L38.0902 69.1636C38.1758 69.2492 38.2774 69.317 38.3892 69.3634C38.501 69.4097 38.6208 69.4335 38.7418 69.4335C38.9862 69.4335 39.2206 69.3364 39.3935 69.1636C39.5663 68.9908 39.6634 68.7564 39.6634 68.512C39.6634 68.2676 39.5663 68.0332 39.3935 67.8603L36.3648 64.8409L43.3307 64.8409C43.5741 64.8409 43.8076 64.7442 43.9797 64.572C44.1518 64.3999 44.2485 64.1665 44.2485 63.9231C44.2485 63.6797 44.1518 63.4462 43.9797 63.2741C43.8076 63.102 43.5741 63.0053 43.3307 63.0053L36.3648 63.0053L39.3935 59.9858C39.4795 59.9005 39.5478 59.799 39.5944 59.6871C39.6409 59.5753 39.6649 59.4553 39.6649 59.3342C39.6649 59.213 39.6409 59.0931 39.5944 58.9812C39.5478 58.8694 39.4795 58.7679 39.3935 58.6826C39.3081 58.5965 39.2066 58.5283 39.0948 58.4817C38.983 58.4351 38.863 58.4111 38.7418 58.4111C38.6207 58.4111 38.5007 58.4351 38.3889 58.4817C38.277 58.5283 38.1755 58.5965 38.0902 58.6826Z" fill="white"/>
<path fill-rule="evenodd" clip-rule="evenodd" d="M142.581 61.9335C142.581 62.0622 142.699 62.1781 142.829 62.1781H144.01C144.153 62.1781 144.259 62.0622 144.259 61.9335V56.4082H144.283L149.61 62.2167C149.675 62.2796 149.74 62.3068 149.831 62.3068H150.012C150.142 62.3068 150.26 62.2024 150.26 62.0751V53.426C150.26 53.2959 150.142 53.1815 150.012 53.1815H148.817C148.674 53.1815 148.57 53.2959 148.57 53.426V58.7339H148.546L143.244 53.1428C143.18 53.0799 143.113 53.0527 143.024 53.0527H142.829C142.699 53.0527 142.581 53.1543 142.581 53.2844V61.9335ZM154.287 61.9335C154.287 62.0622 154.391 62.1781 154.534 62.1781H159.822C159.965 62.1781 160.069 62.0622 160.069 61.9335V60.8808C160.069 60.7521 159.965 60.6362 159.822 60.6362H155.977V58.3863H159.184C159.314 58.3863 159.433 58.2834 159.433 58.1432V57.0762C159.433 56.9474 159.314 56.8316 159.184 56.8316H155.977V54.7233H159.822C159.965 54.7233 160.069 54.6075 160.069 54.4802V53.426C160.069 53.2959 159.965 53.1815 159.822 53.1815H154.534C154.391 53.1815 154.287 53.2959 154.287 53.426V61.9335ZM165.291 57.2807V54.7233H167.41C168.098 54.7233 168.696 55.2883 168.696 55.9706C168.696 56.69 168.098 57.2807 167.41 57.2807H165.291ZM163.591 61.9335C163.591 62.0622 163.694 62.1781 163.837 62.1781H165.031C165.161 62.1781 165.28 62.0622 165.28 61.9335V58.6567H166.721L168.449 62.0622C168.475 62.1137 168.54 62.1781 168.657 62.1781H170.021C170.242 62.1781 170.333 61.9707 170.242 61.8048L168.461 58.5408C169.593 58.0903 170.385 57.1277 170.385 55.9434C170.385 54.4144 169.111 53.1815 167.553 53.1815H163.837C163.694 53.1815 163.591 53.2959 163.591 53.426V61.9335ZM173.452 57.6926C173.452 60.2629 175.529 62.2925 178.115 62.2925C179.999 62.2925 181.337 61.4586 181.337 61.4586C181.389 61.42 181.44 61.3556 181.44 61.2512V57.963C181.44 57.8342 181.337 57.7184 181.207 57.7184H178.713C178.57 57.7184 178.466 57.8214 178.466 57.963V58.977C178.466 59.1058 178.57 59.2088 178.713 59.2088H179.753V60.3015C179.493 60.4045 178.934 60.6219 178.206 60.6219C176.569 60.6219 175.284 59.2731 175.284 57.6783C175.284 56.0721 176.569 54.6976 178.193 54.6976C178.908 54.6976 179.597 54.955 180.155 55.4428C180.272 55.5458 180.389 55.5458 180.493 55.4428L181.298 54.6075C181.402 54.5045 181.389 54.35 181.285 54.2485C180.402 53.5018 179.284 53.0527 178.115 53.0527C175.529 53.0527 173.452 55.121 173.452 57.6926ZM186.911 61.9335C186.911 62.0622 187.014 62.1781 187.158 62.1781H188.353C188.483 62.1781 188.6 62.0622 188.6 61.9335V57.8342L191.6 53.5548C191.704 53.386 191.6 53.1815 191.392 53.1815H190.054C189.95 53.1815 189.885 53.2458 189.846 53.2959L187.767 56.2523L185.689 53.2959C185.65 53.2458 185.585 53.1815 185.481 53.1815H184.155C183.949 53.1815 183.845 53.386 183.949 53.5548L186.911 57.8471V61.9335ZM133.279 61.9335C133.279 62.0622 133.383 62.1781 133.526 62.1781H138.814C138.957 62.1781 139.059 62.0622 139.059 61.9335V60.8808C139.059 60.7521 138.957 60.6362 138.814 60.6362H134.968V58.3863H138.177C138.306 58.3863 138.425 58.2834 138.425 58.1432V57.0762C138.425 56.9474 138.306 56.8316 138.177 56.8316H134.968V54.7233H138.814C138.957 54.7233 139.059 54.6075 139.059 54.4802V53.426C139.059 53.2959 138.957 53.1815 138.814 53.1815H133.526C133.383 53.1815 133.279 53.2959 133.279 53.426V61.9335Z" fill="#E6B209"/>
<path fill-rule="evenodd" clip-rule="evenodd" d="M196.629 54.1828V56.9018H197.136C198.453 56.9018 199.11 56.4484 199.11 55.5416C199.11 55.0324 198.951 54.6777 198.63 54.4803C198.31 54.2815 197.852 54.1828 197.256 54.1828H196.629ZM196.629 57.9974V61.1384H197.23C198.012 61.1384 198.62 61.0154 199.05 60.7694C199.483 60.5234 199.698 60.0971 199.698 59.4893C199.698 58.4952 198.995 57.9974 197.59 57.9974H196.629ZM206.213 54.2629V61.1126H206.92C207.053 61.1126 207.12 61.1799 207.12 61.31V61.958C207.12 62.0881 207.053 62.1553 206.92 62.1553H204.011C203.878 62.1553 203.812 62.0881 203.812 61.958V61.31C203.812 61.1799 203.878 61.1126 204.011 61.1126H204.718V54.2629H204.011C203.878 54.2629 203.812 54.1971 203.812 54.0641V53.3904C203.812 53.2589 203.878 53.1931 204.011 53.1931H206.92C207.053 53.1931 207.12 53.2589 207.12 53.3904V54.0641C207.12 54.1971 207.053 54.2629 206.92 54.2629H206.213ZM212.271 54.2629V61.1126H215.692L215.64 60.1887C215.633 60.0557 215.692 59.9913 215.825 59.9913H216.573C216.707 59.9913 216.774 60.0585 216.774 60.1887V61.9622C216.774 62.0924 216.704 62.1611 216.573 62.1611L210.068 62.1553C209.939 62.1553 209.87 62.0881 209.87 61.958V61.31C209.87 61.1799 209.936 61.1126 210.068 61.1126H210.776V54.2629H210.068C209.936 54.2629 209.87 54.1971 209.87 54.0641V53.3904C209.87 53.2589 209.936 53.1931 210.068 53.1931H213.246C213.377 53.1931 213.445 53.2589 213.445 53.3904V54.0641C213.445 54.1971 213.377 54.2629 213.246 54.2629H212.271ZM221.548 54.2629V61.1126H224.97L224.917 60.1887C224.911 60.0557 224.97 59.9913 225.103 59.9913H225.851C225.984 59.9913 226.052 60.0585 226.052 60.1887V61.9622C226.052 62.0924 225.981 62.1611 225.851 62.1611L219.346 62.1553C219.216 62.1553 219.146 62.0881 219.146 61.958V61.31C219.146 61.1799 219.213 61.1126 219.346 61.1126H220.053V54.2629H219.346C219.213 54.2629 219.146 54.1971 219.146 54.0641V53.3904C219.146 53.2589 219.213 53.1931 219.346 53.1931H222.522C222.655 53.1931 222.722 53.2589 222.722 53.3904V54.0641C222.722 54.1971 222.655 54.2629 222.522 54.2629H221.548ZM194.227 61.958V61.31C194.227 61.1799 194.294 61.1126 194.428 61.1126H195.135V54.2629H194.441C194.308 54.2629 194.242 54.1971 194.242 54.0641V53.3904C194.242 53.2503 194.308 53.1802 194.441 53.1802C195.508 53.1358 196.523 53.1144 197.483 53.1144C198.445 53.1144 199.211 53.296 199.785 53.6622C200.359 54.0269 200.645 54.5476 200.645 55.2255C200.645 55.7175 200.492 56.1466 200.184 56.5128C199.877 56.8789 199.516 57.1436 199.098 57.3123C199.782 57.4167 200.304 57.6685 200.665 58.0632C201.025 58.4594 201.206 58.9429 201.206 59.5164C201.206 60.263 200.926 60.8681 200.365 61.3301C199.805 61.792 199.062 62.0552 198.137 62.1153C197.753 62.141 197.14 62.1553 196.295 62.1553H194.428C194.294 62.1553 194.227 62.0881 194.227 61.958Z" fill="#D1F0DB"/>
<path fill-rule="evenodd" clip-rule="evenodd" d="M115.808 60.6288C114.658 59.5656 113.618 58.3308 112.508 57.1799C112.157 56.8182 111.736 56.9461 111.923 57.4594C112.399 58.7911 113.118 60.3602 114.065 61.8326C115.605 64.2311 118.423 63.0455 115.808 60.6288ZM102.042 60.6288C103.192 59.5656 104.23 58.3308 105.342 57.1799C105.691 56.8182 106.114 56.9461 105.929 57.4594C105.451 58.7911 104.732 60.3602 103.785 61.8326C102.245 64.2311 99.4271 63.0455 102.042 60.6288ZM106.051 51.4513C103.853 52.7008 100.836 53.7055 98.2379 55.1815C89.426 60.194 92.6243 68.5933 101.599 60.004C109.775 52.1765 108.16 52.2478 116.264 60.004C125.235 68.5933 128.437 60.194 119.623 55.1815C117.027 53.7055 114.01 52.7008 111.81 51.4513C111.454 51.2559 111.153 51.4714 111.341 51.7783C111.637 52.2624 112.093 52.772 112.722 53.2068L121.473 59.8963C121.571 59.9693 121.592 60.1082 121.518 60.205C121.446 60.2981 121.307 60.3182 121.209 60.247L112.359 53.7859C111.114 52.8524 110.494 51.961 110.217 51.2595C109.938 50.5599 109.991 49.2392 110.453 48.6053C110.614 48.3843 110.78 48.1797 110.953 47.9879C111.306 47.6006 111.679 47.2736 112.063 46.9923C112.157 46.9229 112.178 46.7932 112.108 46.6982C112.037 46.605 111.904 46.5849 111.81 46.6562C111.4 46.9539 111.007 47.2974 110.638 47.7065C108.965 49.5515 108.466 49.0766 107.225 47.7065C106.854 47.2974 106.461 46.9539 106.053 46.6562C105.957 46.5849 105.826 46.605 105.755 46.6982C105.685 46.7932 105.704 46.9229 105.8 46.9923C106.184 47.2736 106.557 47.6006 106.909 47.9879C107.081 48.1797 107.249 48.3843 107.41 48.6053C107.872 49.2392 107.923 50.5599 107.646 51.2595C107.369 51.961 106.749 52.8524 105.502 53.7859L96.6536 60.247C96.5575 60.3182 96.4172 60.2981 96.3452 60.205C96.2713 60.1082 96.2916 59.9693 96.3876 59.8963L105.14 53.2068C105.768 52.772 106.226 52.2624 106.522 51.7783C106.706 51.4714 106.409 51.2559 106.051 51.4513Z" fill="#D1F0DB"/>
<path fill-rule="evenodd" clip-rule="evenodd" d="M106.987 64.5515C106.841 64.5515 106.708 64.6099 106.614 64.7049H106.612C106.516 64.7999 106.458 64.9296 106.458 65.0739C106.458 65.2182 106.516 65.3516 106.614 65.4429C106.708 65.5397 106.841 65.5963 106.987 65.5963C107.129 65.5963 107.256 65.5415 107.347 65.4484C107.347 65.4484 107.349 65.4484 107.349 65.4502C107.446 65.3516 107.509 65.2146 107.515 65.0629C107.544 64.4364 107.633 64.5496 106.987 64.5515ZM110.876 64.5515C111.021 64.5515 111.154 64.6099 111.25 64.7049H111.252C111.345 64.7999 111.405 64.9296 111.405 65.0739C111.405 65.2182 111.345 65.3516 111.25 65.4429C111.154 65.5397 111.021 65.5963 110.876 65.5963C110.731 65.5963 110.606 65.5415 110.514 65.4484V65.4502C110.414 65.3516 110.353 65.2146 110.346 65.0629C110.318 64.4364 110.229 64.5496 110.876 64.5515ZM109.614 64.0455C109.788 64.0455 109.788 63.9907 109.782 63.839C109.653 61.046 109.526 58.2547 109.4 55.4617C109.365 54.7237 108.493 54.7292 108.464 55.4617C108.335 58.2547 108.207 61.046 108.082 63.839C108.074 63.9907 108.076 64.0455 108.248 64.0455C108.706 64.0436 109.156 64.0436 109.614 64.0455ZM104.374 65.3059C104.527 67.5235 106.239 68.7657 108.137 69.0324C108.41 69.0708 108.482 69.1731 108.53 69.2754C108.7 69.6535 109.149 69.6352 109.334 69.2717C109.385 69.1731 109.479 69.0708 109.777 69.0251C111.655 68.7438 113.337 67.5016 113.488 65.3059C113.632 63.2545 112 60.5966 111.4 58.3717C111.117 57.3322 110.892 56.428 110.567 55.8873C110.292 55.4288 109.912 55.5548 109.934 56.028C110.052 58.6256 110.172 61.2232 110.288 63.8208C110.298 64.0034 110.301 64.0473 110.482 64.0473C110.613 64.0491 110.744 64.0491 110.876 64.0491C111.162 64.0491 111.422 64.1624 111.61 64.3487C111.797 64.535 111.915 64.7926 111.915 65.0739C111.915 65.357 111.797 65.6146 111.61 65.8009C111.422 65.9873 111.162 66.1023 110.876 66.1023C110.591 66.1023 110.338 65.9891 110.153 65.8064C109.967 65.6219 109.851 65.3662 109.838 65.0867C109.832 64.9643 109.827 64.8437 109.821 64.7232C109.816 64.5862 109.777 64.5478 109.629 64.546H108.235C108.087 64.5478 108.047 64.5862 108.039 64.7232C108.034 64.8437 108.028 64.9643 108.024 65.0867C108.011 65.3662 107.893 65.6219 107.71 65.8064C107.522 65.9891 107.271 66.1023 106.987 66.1023C106.7 66.1023 106.44 65.9873 106.252 65.8009C106.063 65.6146 105.947 65.357 105.947 65.0739C105.947 64.7926 106.065 64.535 106.254 64.3487H106.252C106.44 64.1624 106.7 64.0491 106.987 64.0491C107.118 64.0491 107.249 64.0491 107.38 64.0473C107.563 64.0473 107.565 64.0034 107.572 63.8208C107.692 61.2232 107.81 58.6256 107.928 56.028C107.949 55.5548 107.57 55.4288 107.295 55.8873C106.97 56.428 106.745 57.3322 106.464 58.3717C105.862 60.5966 104.23 63.2545 104.374 65.3059Z" fill="#E6B209"/>
<path fill-rule="evenodd" clip-rule="evenodd" d="M114.865 67.2275C114.725 67.0978 114.725 66.8859 114.865 66.758C115.004 66.6283 115.229 66.6283 115.369 66.758L121.291 72.2565C121.431 72.3843 121.431 72.5944 121.291 72.7259C121.153 72.8538 120.925 72.8538 120.787 72.7259L114.865 67.2275ZM105.651 71.3376C105.7 71.1604 105.898 71.0563 106.086 71.102C106.278 71.1495 106.389 71.3303 106.339 71.5075L104.842 76.6899C104.792 76.8653 104.596 76.9712 104.406 76.9256C104.216 76.8763 104.103 76.6972 104.153 76.52L105.651 71.3376ZM102.484 66.7653C102.624 66.6375 102.849 66.6375 102.988 66.7653C103.13 66.895 103.13 67.1051 102.988 67.2348L97.0751 72.7259C96.9347 72.8538 96.7095 72.8538 96.571 72.7259C96.4306 72.5944 96.4306 72.3843 96.571 72.2565L102.484 66.7653ZM108.574 72.441C108.574 72.2583 108.734 72.1103 108.93 72.1103C109.13 72.1103 109.287 72.2583 109.287 72.441V75.1336C109.287 75.3181 109.13 75.466 108.93 75.466C108.734 75.466 108.574 75.3181 108.574 75.1336V72.441ZM113.846 69.8141C113.75 69.6552 113.809 69.4543 113.979 69.3629C114.147 69.2716 114.365 69.3264 114.462 69.4853L116.717 73.1095C116.815 73.2685 116.756 73.4694 116.586 73.5607C116.416 73.6521 116.2 73.5955 116.1 73.4384L113.846 69.8141ZM103.394 69.489C103.494 69.3319 103.712 69.2789 103.882 69.3702C104.053 69.4616 104.111 69.6643 104.011 69.8214L101.76 73.4384C101.662 73.5973 101.444 73.6521 101.274 73.5607C101.104 73.4694 101.045 73.2666 101.143 73.1095L103.394 69.489ZM99.5957 65.8721C99.7674 65.7807 99.9834 65.8337 100.081 65.9926C100.179 66.1516 100.122 66.3525 99.952 66.4438L96.1555 68.4788C95.9838 68.5683 95.7677 68.5135 95.6698 68.3564C95.572 68.1975 95.6311 67.9966 95.8009 67.9052L99.5957 65.8721ZM117.897 66.4365C117.727 66.3452 117.668 66.1443 117.764 65.9853C117.864 65.8264 118.08 65.7734 118.252 65.8629L122.059 67.9052C122.229 67.9966 122.29 68.1975 122.192 68.3564C122.094 68.5135 121.876 68.5683 121.707 68.4788L117.897 66.4365ZM111.521 71.5039C111.471 71.3267 111.584 71.1476 111.774 71.0983C111.964 71.0527 112.16 71.1568 112.21 71.334L113.707 76.52C113.757 76.6972 113.646 76.8763 113.454 76.9256C113.264 76.9712 113.068 76.8653 113.018 76.6899L111.521 71.5039Z" fill="#E6B209"/>
<g clip-path="url(#clip1_1442_30985)">
<path opacity="0.35" d="M278.418 26.0289H291.529C292.471 26.0289 293.234 26.792 293.234 27.7334V32.4534C293.234 33.3947 292.471 34.1578 291.529 34.1578H278.418C277.477 34.1578 276.714 33.3947 276.714 32.4534V27.7334C276.714 26.792 277.477 26.0289 278.418 26.0289Z" stroke="white" stroke-width="0.786667"/>
<path opacity="0.4" d="M294.414 28.52V31.6667C295.047 31.4002 295.458 30.7802 295.458 30.0934C295.458 29.4065 295.047 28.7865 294.414 28.52" fill="white"/>
<path d="M277.894 28.0743C277.894 27.5963 278.281 27.2089 278.759 27.2089H291.188C291.666 27.2089 292.054 27.5963 292.054 28.0743V32.1125C292.054 32.5904 291.666 32.9778 291.188 32.9778H278.759C278.281 32.9778 277.894 32.5904 277.894 32.1125V28.0743Z" fill="white"/>
<path fill-rule="evenodd" clip-rule="evenodd" d="M266.353 27.4251C268.096 27.4251 269.773 28.0949 271.036 29.296C271.131 29.3888 271.283 29.3876 271.377 29.2934L272.286 28.3756C272.334 28.3279 272.36 28.2632 272.36 28.1958C272.36 28.1285 272.332 28.0641 272.284 28.0169C268.968 24.8391 263.737 24.8391 260.421 28.0169C260.373 28.0641 260.346 28.1285 260.346 28.1958C260.345 28.2631 260.372 28.3278 260.419 28.3756L261.329 29.2934C261.422 29.3877 261.575 29.3889 261.67 29.296C262.933 28.0949 264.61 27.4251 266.353 27.4251ZM266.353 30.411C267.311 30.4109 268.235 30.7669 268.944 31.4098C269.04 31.501 269.192 31.4991 269.285 31.4053L270.194 30.4876C270.242 30.4394 270.268 30.3741 270.267 30.3063C270.267 30.2384 270.239 30.1736 270.19 30.1265C268.028 28.1155 264.68 28.1155 262.518 30.1265C262.469 30.1736 262.441 30.2384 262.441 30.3063C262.44 30.3742 262.467 30.4395 262.515 30.4876L263.423 31.4053C263.516 31.4991 263.668 31.501 263.764 31.4098C264.473 30.7674 265.396 30.4114 266.353 30.411ZM268.173 32.42C268.174 32.4881 268.147 32.5537 268.099 32.6013L266.528 34.187C266.481 34.2336 266.419 34.2598 266.353 34.2598C266.288 34.2598 266.225 34.2336 266.179 34.187L264.607 32.6013C264.559 32.5536 264.532 32.488 264.533 32.4199C264.535 32.3519 264.564 32.2875 264.615 32.2418C265.618 31.3931 267.088 31.3931 268.091 32.2418C268.142 32.2875 268.171 32.3519 268.173 32.42Z" fill="white"/>
<path fill-rule="evenodd" clip-rule="evenodd" d="M255.605 25.8978H254.818C254.384 25.8978 254.031 26.25 254.031 26.6845V33.5023C254.031 33.9368 254.384 34.289 254.818 34.289H255.605C256.039 34.289 256.391 33.9368 256.391 33.5023V26.6845C256.391 26.25 256.039 25.8978 255.605 25.8978ZM251.147 27.7334H251.934C252.368 27.7334 252.72 28.0856 252.72 28.5201V33.5023C252.72 33.9368 252.368 34.289 251.934 34.289H251.147C250.712 34.289 250.36 33.9368 250.36 33.5023V28.5201C250.36 28.0856 250.712 27.7334 251.147 27.7334ZM248.263 29.569H247.476C247.041 29.569 246.689 29.9212 246.689 30.3556V33.5023C246.689 33.9368 247.041 34.289 247.476 34.289H248.263C248.697 34.289 249.049 33.9368 249.049 33.5023V30.3556C249.049 29.9212 248.697 29.569 248.263 29.569ZM244.591 31.1423H243.805C243.37 31.1423 243.018 31.4945 243.018 31.929V33.5023C243.018 33.9368 243.37 34.289 243.805 34.289H244.591C245.026 34.289 245.378 33.9368 245.378 33.5023V31.929C245.378 31.4945 245.026 31.1423 244.591 31.1423Z" fill="white"/>
<path d="M41.5117 25.7051C39.7083 25.7051 38.4234 26.9381 38.4234 28.6263V28.6378C38.4234 30.2165 39.5412 31.3804 41.1372 31.3804C42.278 31.3804 43.004 30.7984 43.3094 30.1416H43.4246C43.4246 30.205 43.4188 30.2684 43.4188 30.3317C43.3555 31.922 42.7966 33.2126 41.4771 33.2126C40.7454 33.2126 40.2326 32.8323 40.0137 32.2504L39.9964 32.1928H38.5329L38.5444 32.2562C38.8095 33.5295 39.9503 34.4341 41.4771 34.4341C43.5686 34.4341 44.8305 32.7747 44.8305 29.9745V29.963C44.8305 26.9669 43.2863 25.7051 41.5117 25.7051ZM41.506 30.2396C40.561 30.2396 39.8754 29.5482 39.8754 28.5859V28.5744C39.8754 27.6468 40.6071 26.915 41.5232 26.915C42.4451 26.915 43.1653 27.6583 43.1653 28.609V28.6205C43.1653 29.5597 42.4451 30.2396 41.506 30.2396ZM47.0529 28.8395C47.583 28.8395 47.9691 28.4361 47.9691 27.9291C47.9691 27.4163 47.583 27.0188 47.0529 27.0188C46.5286 27.0188 46.1368 27.4163 46.1368 27.9291C46.1368 28.4361 46.5286 28.8395 47.0529 28.8395ZM47.0529 33.1147C47.583 33.1147 47.9691 32.7171 47.9691 32.2043C47.9691 31.6915 47.583 31.294 47.0529 31.294C46.5286 31.294 46.1368 31.6915 46.1368 32.2043C46.1368 32.7171 46.5286 33.1147 47.0529 33.1147ZM53.3086 34.2267H54.7318V32.6307H55.8496V31.4034H54.7318V25.9125H52.6288C51.4995 27.6295 50.3183 29.5424 49.2409 31.415V32.6307H53.3086V34.2267ZM50.6237 31.438V31.3516C51.4303 29.94 52.3925 28.4016 53.2453 27.0994H53.3317V31.438H50.6237ZM58.9017 34.2267H60.3883V25.9125H58.9075L56.7353 27.4394V28.8395L58.8038 27.376H58.9017V34.2267Z" fill="white"/>
</g>
</g>
<path d="M319 110V110C321.209 110 323 111.791 323 114V148C323 150.209 321.209 152 319 152V152V110Z" fill="white"/>
<path d="M319 178V178C321.209 178 323 179.791 323 182V216C323 218.209 321.209 220 319 220V220V178Z" fill="white"/>
<path d="M319 220V220C321.209 220 323 221.791 323 224V258C323 260.209 321.209 262 319 262V262V220Z" fill="white"/>
<path d="M100 12H224V23.9238C224 30.5933 218.593 36 211.924 36H112.076C105.407 36 100 30.5933 100 23.9238V12Z" fill="white"/>
<defs>
<clipPath id="clip0_1442_30985">
<rect x="27.7334" y="170.693" width="263.533" height="29.3733" rx="6.29333" fill="white"/>
</clipPath>
<clipPath id="clip1_1442_30985">
<rect width="295" height="34.6133" fill="white" transform="translate(12 12)"/>
</clipPath>
</defs>
</svg>
