<svg width="323" height="662" viewBox="0 0 323 662" fill="none" xmlns="http://www.w3.org/2000/svg">
<rect width="319" height="662" rx="48" fill="white"/>
<mask id="mask0_1464_31381" style="mask-type:alpha" maskUnits="userSpaceOnUse" x="12" y="12" width="295" height="638">
<rect x="12" y="12" width="295" height="638" rx="36" fill="#EEEEEE"/>
</mask>
<g mask="url(#mask0_1464_31381)">
<rect width="295" height="638.773" transform="translate(12 12)" fill="#110F18"/>
<path d="M37.7555 112.813V110.257H31.9877V99.1709H29.0833V112.813H37.7555ZM41.0166 101.871C41.8756 101.871 42.571 101.175 42.571 100.316C42.571 99.4573 41.8756 98.7823 41.0166 98.7823C40.178 98.7823 39.4621 99.4573 39.4621 100.316C39.4621 101.175 40.178 101.871 41.0166 101.871ZM42.3256 112.813V102.934H39.728V112.813H42.3256ZM50.26 112.813L54.228 102.934H51.4259L48.8487 109.807L46.2716 102.934H43.49L47.4579 112.813H50.26ZM56.6761 101.871C57.5352 101.871 58.2306 101.175 58.2306 100.316C58.2306 99.4573 57.5352 98.7823 56.6761 98.7823C55.8376 98.7823 55.1217 99.4573 55.1217 100.316C55.1217 101.175 55.8376 101.871 56.6761 101.871ZM57.9852 112.813V102.934H55.3876V112.813H57.9852ZM69.8262 112.813V105.839C69.8262 103.916 68.7831 102.689 66.615 102.689C64.9992 102.689 63.7925 103.466 63.1584 104.223V102.934H60.5608V112.813H63.1584V106.166C63.5879 105.573 64.3856 105 65.4083 105C66.5128 105 67.2286 105.471 67.2286 106.841V112.813H69.8262ZM76.4552 116.822C78.8891 116.822 81.7935 115.902 81.7935 112.138V102.934H79.1755V104.202C78.3778 103.2 77.3142 102.689 76.1279 102.689C73.6326 102.689 71.7713 104.489 71.7713 107.72C71.7713 111.013 73.6531 112.752 76.1279 112.752C77.3347 112.752 78.3982 112.179 79.1755 111.198V112.2C79.1755 114.143 77.7028 114.695 76.4552 114.695C75.2075 114.695 74.1644 114.347 73.3667 113.468L72.2009 115.35C73.4485 116.434 74.7575 116.822 76.4552 116.822ZM76.946 110.441C75.4734 110.441 74.4507 109.418 74.4507 107.72C74.4507 106.023 75.4734 105 76.946 105C77.8051 105 78.7459 105.471 79.1755 106.125V109.316C78.7459 109.95 77.8051 110.441 76.946 110.441ZM100.709 112.813L97.6411 107.618C99.1138 107.27 100.627 105.982 100.627 103.568C100.627 101.032 98.8888 99.1709 96.0458 99.1709H89.6643V112.813H92.5687V107.966H94.6959L97.3752 112.813H100.709ZM95.6163 105.409H92.5687V101.728H95.6163C96.7821 101.728 97.6616 102.423 97.6616 103.568C97.6616 104.714 96.7821 105.409 95.6163 105.409ZM106.708 113.059C109.981 113.059 111.944 110.686 111.944 107.864C111.944 105.062 109.981 102.689 106.708 102.689C103.456 102.689 101.493 105.062 101.493 107.864C101.493 110.686 103.456 113.059 106.708 113.059ZM106.708 110.748C105.092 110.748 104.192 109.418 104.192 107.864C104.192 106.33 105.092 105 106.708 105C108.324 105 109.244 106.33 109.244 107.864C109.244 109.418 108.324 110.748 106.708 110.748ZM118.453 113.059C121.725 113.059 123.689 110.686 123.689 107.864C123.689 105.062 121.725 102.689 118.453 102.689C115.201 102.689 113.237 105.062 113.237 107.864C113.237 110.686 115.201 113.059 118.453 113.059ZM118.453 110.748C116.837 110.748 115.937 109.418 115.937 107.864C115.937 106.33 116.837 105 118.453 105C120.069 105 120.989 106.33 120.989 107.864C120.989 109.418 120.069 110.748 118.453 110.748ZM140.486 112.813V105.675C140.486 103.65 139.402 102.689 137.581 102.689C136.068 102.689 134.759 103.589 134.186 104.489C133.818 103.364 132.897 102.689 131.445 102.689C129.932 102.689 128.623 103.63 128.214 104.223V102.934H125.616V112.813H128.214V106.166C128.602 105.614 129.359 105 130.259 105C131.323 105 131.732 105.655 131.732 106.575V112.813H134.35V106.146C134.718 105.614 135.475 105 136.395 105C137.459 105 137.868 105.655 137.868 106.575V112.813H140.486Z" fill="white"/>
<path d="M32.3024 134.96V128.138H34.7442V126.565H28.0481V128.138H30.5025V134.96H32.3024ZM41.5665 134.96V130.643C41.5665 129.46 40.9246 128.73 39.5904 128.73C38.5961 128.73 37.8409 129.208 37.4507 129.674V126.565H35.8522V134.96H37.4507V130.869C37.7276 130.504 38.2185 130.152 38.8352 130.152C39.5275 130.152 39.968 130.416 39.968 131.26V134.96H41.5665ZM46.0106 135.111C46.9546 135.111 47.9112 134.822 48.5154 134.268L47.8105 133.236C47.4203 133.613 46.7029 133.84 46.1868 133.84C45.1547 133.84 44.538 133.198 44.4373 132.43H48.9559V132.078C48.9559 130.089 47.7224 128.73 45.9099 128.73C44.0597 128.73 42.7633 130.152 42.7633 131.914C42.7633 133.865 44.1604 135.111 46.0106 135.111ZM47.4077 131.348H44.4121C44.4876 130.743 44.9156 130.001 45.9099 130.001C46.9672 130.001 47.37 130.769 47.4077 131.348ZM51.709 134.96V130.945C51.9734 130.555 52.6782 130.253 53.2068 130.253C53.3831 130.253 53.5341 130.265 53.6474 130.29V128.73C52.8922 128.73 52.137 129.17 51.709 129.711V128.881H50.1105V134.96H51.709ZM63.7967 134.96V130.567C63.7967 129.321 63.1296 128.73 62.0094 128.73C61.0779 128.73 60.2724 129.283 59.92 129.837C59.6934 129.145 59.127 128.73 58.2334 128.73C57.3019 128.73 56.4964 129.309 56.2447 129.674V128.881H54.6462V134.96H56.2447V130.869C56.4838 130.529 56.9495 130.152 57.5033 130.152C58.1578 130.152 58.4096 130.555 58.4096 131.121V134.96H60.0207V130.857C60.2472 130.529 60.7129 130.152 61.2793 130.152C61.9338 130.152 62.1856 130.555 62.1856 131.121V134.96H63.7967ZM68.1839 135.111C70.1978 135.111 71.4061 133.651 71.4061 131.914C71.4061 130.19 70.1978 128.73 68.1839 128.73C66.1826 128.73 64.9743 130.19 64.9743 131.914C64.9743 133.651 66.1826 135.111 68.1839 135.111ZM68.1839 133.689C67.1896 133.689 66.6357 132.871 66.6357 131.914C66.6357 130.97 67.1896 130.152 68.1839 130.152C69.1782 130.152 69.7446 130.97 69.7446 131.914C69.7446 132.871 69.1782 133.689 68.1839 133.689ZM74.7821 135.111C76.4687 135.111 77.4127 134.268 77.4127 133.16C77.4127 130.706 73.8129 131.461 73.8129 130.555C73.8129 130.215 74.1905 129.95 74.7695 129.95C75.5121 129.95 76.2044 130.265 76.5694 130.655L77.2113 129.56C76.6071 129.082 75.789 128.73 74.7569 128.73C73.1584 128.73 72.2647 129.623 72.2647 130.643C72.2647 133.034 75.8771 132.216 75.8771 133.223C75.8771 133.601 75.5499 133.878 74.8576 133.878C74.1024 133.878 73.1961 133.462 72.7556 133.047L72.0633 134.167C72.7053 134.759 73.7248 135.111 74.7821 135.111ZM80.6294 135.111C81.2965 135.111 81.7244 134.935 81.9635 134.721L81.6237 133.513C81.5356 133.601 81.309 133.689 81.0699 133.689C80.7175 133.689 80.5161 133.399 80.5161 133.022V130.278H81.7496V128.881H80.5161V127.219H78.905V128.881H77.8981V130.278H78.905V133.45C78.905 134.532 79.5091 135.111 80.6294 135.111ZM88.0919 134.96V131.033C88.0919 129.283 86.8206 128.73 85.4361 128.73C84.4795 128.73 83.5229 129.032 82.7803 129.686L83.3845 130.756C83.9005 130.278 84.5047 130.039 85.1592 130.039C85.9647 130.039 86.4934 130.441 86.4934 131.058V131.876C86.0906 131.398 85.3732 131.134 84.5676 131.134C83.5984 131.134 82.453 131.675 82.453 133.097C82.453 134.457 83.5984 135.111 84.5676 135.111C85.3606 135.111 86.078 134.822 86.4934 134.331V134.96H88.0919ZM85.2095 134.029C84.5802 134.029 84.0641 133.701 84.0641 133.135C84.0641 132.543 84.5802 132.216 85.2095 132.216C85.7256 132.216 86.229 132.392 86.4934 132.745V133.5C86.229 133.852 85.7256 134.029 85.2095 134.029ZM91.7164 135.111C92.3835 135.111 92.8115 134.935 93.0506 134.721L92.7108 133.513C92.6227 133.601 92.3961 133.689 92.157 133.689C91.8045 133.689 91.6032 133.399 91.6032 133.022V130.278H92.8367V128.881H91.6032V127.219H89.9921V128.881H88.9851V130.278H89.9921V133.45C89.9921 134.532 90.5962 135.111 91.7164 135.111Z" fill="white"/>
<path d="M30.0619 154.258C31.7863 154.258 33.0198 153.339 33.0198 151.35V145.711H31.2325V151.325C31.2325 152.143 30.7164 152.672 29.9235 152.672C29.3445 152.672 28.9165 152.382 28.5893 152.068L27.8089 153.44C28.4131 154.031 29.2186 154.258 30.0619 154.258ZM37.5048 154.258C38.4488 154.258 39.4054 153.968 40.0095 153.414L39.3047 152.382C38.9145 152.76 38.197 152.986 37.681 152.986C36.6489 152.986 36.0321 152.345 35.9314 151.577H40.4501V151.224C40.4501 149.236 39.2166 147.876 37.4041 147.876C35.5538 147.876 34.2574 149.299 34.2574 151.061C34.2574 153.012 35.6545 154.258 37.5048 154.258ZM38.9019 150.494H35.9063C35.9818 149.89 36.4097 149.148 37.4041 149.148C38.4614 149.148 38.8641 149.915 38.9019 150.494ZM43.5682 154.107V149.424H44.8017V148.027H43.5682V147.7C43.5682 147.134 43.8829 146.844 44.3234 146.844C44.6129 146.844 44.8269 146.932 44.9905 147.096L45.5947 146.152C45.2045 145.737 44.5877 145.585 44.0087 145.585C42.7878 145.585 41.9571 146.404 41.9571 147.7V148.027H40.9502V149.424H41.9571V154.107H43.5682ZM47.6841 154.107V149.424H48.9175V148.027H47.6841V147.7C47.6841 147.134 47.9987 146.844 48.4393 146.844C48.7287 146.844 48.9427 146.932 49.1063 147.096L49.7105 146.152C49.3203 145.737 48.7036 145.585 48.1246 145.585C46.9037 145.585 46.073 146.404 46.073 147.7V148.027H45.066V149.424H46.073V154.107H47.6841ZM52.5768 146.869C52.5768 146.051 52.0356 145.585 51.444 145.585C50.9154 145.585 50.4623 146.039 50.4623 146.592C50.4623 147.121 50.8399 147.499 51.3182 147.499C51.4063 147.499 51.5195 147.473 51.5573 147.448C51.4566 147.901 50.9909 148.43 50.5881 148.644L51.2804 149.21C52.0482 148.657 52.5768 147.813 52.5768 146.869ZM55.6808 154.258C57.3674 154.258 58.3114 153.414 58.3114 152.307C58.3114 149.852 54.7116 150.608 54.7116 149.701C54.7116 149.361 55.0892 149.097 55.6682 149.097C56.4108 149.097 57.1031 149.412 57.4681 149.802L58.11 148.707C57.5059 148.229 56.6877 147.876 55.6556 147.876C54.0571 147.876 53.1635 148.77 53.1635 149.789C53.1635 152.181 56.7759 151.363 56.7759 152.37C56.7759 152.747 56.4486 153.024 55.7563 153.024C55.0011 153.024 54.0949 152.609 53.6544 152.193L52.9621 153.314C53.604 153.905 54.6235 154.258 55.6808 154.258ZM70.2992 154.107V145.711H68.4994V149.009H64.5346V145.711H62.7472V154.107H64.5346V150.582H68.4994V154.107H70.2992ZM74.7354 154.258C76.7492 154.258 77.9575 152.798 77.9575 151.061C77.9575 149.336 76.7492 147.876 74.7354 147.876C72.7341 147.876 71.5258 149.336 71.5258 151.061C71.5258 152.798 72.7341 154.258 74.7354 154.258ZM74.7354 152.835C73.741 152.835 73.1872 152.017 73.1872 151.061C73.1872 150.117 73.741 149.299 74.7354 149.299C75.7297 149.299 76.2961 150.117 76.2961 151.061C76.2961 152.017 75.7297 152.835 74.7354 152.835ZM84.8452 154.107V148.027H83.2467V152.143C82.9698 152.496 82.4789 152.835 81.8622 152.835C81.1825 152.835 80.7419 152.558 80.7419 151.715V148.027H79.1434V152.345C79.1434 153.528 79.7728 154.258 81.107 154.258C82.1013 154.258 82.8313 153.805 83.2467 153.339V154.107H84.8452ZM88.6225 154.258C90.3091 154.258 91.2531 153.414 91.2531 152.307C91.2531 149.852 87.6533 150.608 87.6533 149.701C87.6533 149.361 88.0309 149.097 88.6099 149.097C89.3525 149.097 90.0448 149.412 90.4098 149.802L91.0517 148.707C90.4475 148.229 89.6294 147.876 88.5973 147.876C86.9988 147.876 86.1051 148.77 86.1051 149.789C86.1051 152.181 89.7175 151.363 89.7175 152.37C89.7175 152.747 89.3903 153.024 88.698 153.024C87.9428 153.024 87.0366 152.609 86.596 152.193L85.9038 153.314C86.5457 153.905 87.5652 154.258 88.6225 154.258ZM95.2879 154.258C96.2319 154.258 97.1885 153.968 97.7927 153.414L97.0878 152.382C96.6976 152.76 95.9802 152.986 95.4641 152.986C94.432 152.986 93.8153 152.345 93.7146 151.577H98.2332V151.224C98.2332 149.236 96.9997 147.876 95.1872 147.876C93.337 147.876 92.0405 149.299 92.0405 151.061C92.0405 153.012 93.4377 154.258 95.2879 154.258ZM96.685 150.494H93.6894C93.7649 149.89 94.1929 149.148 95.1872 149.148C96.2445 149.148 96.6473 149.915 96.685 150.494Z" fill="white"/>
<circle cx="159.5" cy="301.1" r="116.033" fill="#20A5D6"/>
<circle cx="159.5" cy="301.1" r="116.033" stroke="#282439" stroke-width="31.4667"/>
<circle cx="159.5" cy="301.1" r="116.033" stroke="#20A5D6" stroke-opacity="0.5" stroke-width="31.4667"/>
<circle opacity="0.15" cx="159.5" cy="301.1" r="116.033" stroke="white" stroke-width="31.4667" stroke-dasharray="1.57 6.29"/>
<mask id="mask1_1464_31381" style="mask-type:alpha" maskUnits="userSpaceOnUse" x="66" y="301" width="187" height="132">
<path d="M66.3264 394.273C78.5621 406.509 93.0879 416.215 109.075 422.837C125.061 429.459 142.196 432.867 159.5 432.867C176.803 432.867 193.938 429.459 209.924 422.837C225.911 416.215 240.437 406.509 252.673 394.273L159.5 301.1L66.3264 394.273Z" fill="white"/>
</mask>
<g mask="url(#mask1_1464_31381)">
<circle cx="159.5" cy="301.1" r="116.033" stroke="#20A5D6" stroke-width="31.4667"/>
<circle cx="159.5" cy="301.1" r="116.033" stroke="black" stroke-opacity="0.2" stroke-width="31.4667"/>
<circle cx="159.501" cy="301.1" r="116.033" transform="rotate(-15 159.501 301.1)" stroke="#20A5D6" stroke-width="31.4667" stroke-dasharray="0.79 62.93"/>
</g>
<mask id="mask2_1464_31381" style="mask-type:alpha" maskUnits="userSpaceOnUse" x="104" y="168" width="56" height="134">
<path d="M145.733 168.94C126.27 168.94 121.638 172.82 104.04 181.133L159.499 301.1L145.733 168.94Z" fill="white"/>
</mask>
<g mask="url(#mask2_1464_31381)">
<circle cx="159.5" cy="301.1" r="116.033" stroke="#20A5D6" stroke-width="31.4667"/>
<circle cx="159.5" cy="301.1" r="116.033" stroke="white" stroke-opacity="0.1" stroke-width="31.4667"/>
<path d="M145.733 170.12L149.666 201.193" stroke="white" stroke-width="4.72"/>
<path d="M106.399 180.347L124.493 218.894" stroke="white" stroke-width="4.72"/>
</g>
<path d="M95.6486 397.86C95.6486 397.073 96.1731 396.549 96.9597 396.549C97.3531 396.549 97.6153 396.68 97.8775 396.942L102.466 401.531L107.055 396.942C107.58 396.418 108.366 396.418 108.891 396.942C109.415 397.467 109.415 398.253 108.891 398.778L103.384 404.284C102.86 404.809 102.073 404.809 101.549 404.284L96.042 398.778C95.7797 398.516 95.6486 398.122 95.6486 397.86Z" fill="white"/>
<path d="M224.138 403.367C224.138 404.153 223.614 404.678 222.827 404.678C222.434 404.678 222.171 404.547 221.909 404.284L217.32 399.696L212.731 404.284C212.207 404.809 211.42 404.809 210.896 404.284C210.371 403.76 210.371 402.973 210.896 402.449L216.402 396.942C216.927 396.418 217.714 396.418 218.238 396.942L223.745 402.449C224.007 402.711 224.138 403.104 224.138 403.367Z" fill="white"/>
<path d="M140.389 263.298C142.24 263.298 143.297 262.278 143.901 261.233L142.365 260.491C142.013 261.183 141.258 261.712 140.389 261.712C138.866 261.712 137.759 260.541 137.759 258.955C137.759 257.369 138.866 256.199 140.389 256.199C141.258 256.199 142.013 256.74 142.365 257.42L143.901 256.665C143.309 255.62 142.24 254.613 140.389 254.613C137.872 254.613 135.921 256.375 135.921 258.955C135.921 261.536 137.872 263.298 140.389 263.298ZM147.747 263.298C149.76 263.298 150.969 261.838 150.969 260.101C150.969 258.376 149.76 256.916 147.747 256.916C145.745 256.916 144.537 258.376 144.537 260.101C144.537 261.838 145.745 263.298 147.747 263.298ZM147.747 261.875C146.752 261.875 146.198 261.057 146.198 260.101C146.198 259.157 146.752 258.339 147.747 258.339C148.741 258.339 149.307 259.157 149.307 260.101C149.307 261.057 148.741 261.875 147.747 261.875ZM154.974 263.298C156.988 263.298 158.196 261.838 158.196 260.101C158.196 258.376 156.988 256.916 154.974 256.916C152.973 256.916 151.764 258.376 151.764 260.101C151.764 261.838 152.973 263.298 154.974 263.298ZM154.974 261.875C153.98 261.875 153.426 261.057 153.426 260.101C153.426 259.157 153.98 258.339 154.974 258.339C155.968 258.339 156.535 259.157 156.535 260.101C156.535 261.057 155.968 261.875 154.974 261.875ZM160.981 263.147V254.751H159.382V263.147H160.981ZM163.359 256.413C163.887 256.413 164.315 255.985 164.315 255.456C164.315 254.928 163.887 254.512 163.359 254.512C162.843 254.512 162.402 254.928 162.402 255.456C162.402 255.985 162.843 256.413 163.359 256.413ZM164.164 263.147V257.067H162.566V263.147H164.164ZM171.451 263.147V258.855C171.451 257.671 170.809 256.916 169.475 256.916C168.481 256.916 167.738 257.395 167.348 257.86V257.067H165.749V263.147H167.348V259.056C167.612 258.691 168.103 258.339 168.732 258.339C169.412 258.339 169.853 258.628 169.853 259.471V263.147H171.451ZM175.53 265.614C177.028 265.614 178.815 265.047 178.815 262.731V257.067H177.204V257.848C176.714 257.231 176.059 256.916 175.329 256.916C173.793 256.916 172.648 258.024 172.648 260.013C172.648 262.039 173.806 263.109 175.329 263.109C176.072 263.109 176.726 262.756 177.204 262.152V262.769C177.204 263.965 176.298 264.305 175.53 264.305C174.763 264.305 174.121 264.091 173.63 263.549L172.912 264.707C173.68 265.375 174.486 265.614 175.53 265.614ZM175.832 261.687C174.926 261.687 174.297 261.057 174.297 260.013C174.297 258.968 174.926 258.339 175.832 258.339C176.361 258.339 176.94 258.628 177.204 259.031V260.994C176.94 261.385 176.361 261.687 175.832 261.687Z" fill="white"/>
<path d="M135.9 315.44L147.672 288.703V285.007H125.725V289.707H141.512L130.014 315.44H135.9ZM162.876 315.988C171.408 315.988 175.012 307.866 175.012 300.246C175.012 292.581 171.408 284.551 162.876 284.551C154.298 284.551 150.693 292.581 150.693 300.246C150.693 307.866 154.298 315.988 162.876 315.988ZM162.876 311.242C157.902 311.242 156.123 306.041 156.123 300.246C156.123 294.406 157.902 289.296 162.876 289.296C167.849 289.296 169.583 294.406 169.583 300.246C169.583 306.041 167.803 311.242 162.876 311.242ZM189.758 290.482C189.758 287.197 187.066 284.551 183.827 284.551C180.542 284.551 177.941 287.197 177.941 290.482C177.941 293.722 180.542 296.368 183.827 296.368C187.066 296.368 189.758 293.722 189.758 290.482ZM187.021 290.482C187.021 292.216 185.561 293.585 183.827 293.585C182.093 293.585 180.678 292.216 180.678 290.482C180.678 288.748 182.093 287.288 183.827 287.288C185.561 287.288 187.021 288.748 187.021 290.482Z" fill="white"/>
<path d="M135.358 348.835H136.404V347.832C138.012 347.667 138.805 346.731 138.805 345.509C138.805 344.011 137.538 343.57 136.404 343.284V341.731C136.899 341.852 137.373 342.083 137.77 342.447L138.64 341.302C138.045 340.762 137.296 340.42 136.404 340.321V339.275H135.358V340.299C133.871 340.454 132.99 341.401 132.99 342.513C132.99 344.011 134.223 344.429 135.358 344.716V346.456C134.609 346.324 134.014 345.938 133.606 345.509L132.758 346.698C133.353 347.304 134.201 347.744 135.358 347.843V348.835ZM137.219 345.685C137.219 346.026 136.944 346.346 136.404 346.456V344.98C136.877 345.134 137.219 345.321 137.219 345.685ZM134.587 342.381C134.587 342.006 134.862 341.731 135.358 341.665V343.009C134.895 342.876 134.587 342.7 134.587 342.381ZM142.09 347.854C144.259 347.854 145.504 346.28 145.504 344.066C145.504 341.984 144.568 340.266 142.343 340.266C140.669 340.266 139.523 341.357 139.523 342.788C139.523 344.352 140.713 345.178 142.035 345.178C142.838 345.178 143.576 344.727 143.929 344.231C143.929 344.286 143.929 344.341 143.929 344.396C143.929 345.454 143.301 346.467 142.09 346.467C141.44 346.467 141.021 346.269 140.625 345.894L139.931 347.095C140.449 347.557 141.197 347.854 142.09 347.854ZM142.475 343.835C141.792 343.835 141.12 343.504 141.12 342.733C141.12 342.227 141.583 341.654 142.42 341.654C143.455 341.654 143.852 342.447 143.918 343.152C143.565 343.581 143.026 343.835 142.475 343.835ZM147.067 347.854C147.551 347.854 147.959 347.447 147.959 346.962C147.959 346.478 147.551 346.07 147.067 346.07C146.582 346.07 146.175 346.478 146.175 346.962C146.175 347.447 146.582 347.854 147.067 347.854ZM151.812 347.865C153.354 347.865 154.763 347.194 154.763 345.828C154.763 344.936 154.059 344.253 153.177 343.945C153.992 343.658 154.642 343.13 154.642 342.216C154.642 340.839 153.166 340.277 151.812 340.277C150.446 340.277 148.981 340.839 148.981 342.216C148.981 343.13 149.62 343.658 150.435 343.945C149.554 344.253 148.86 344.936 148.86 345.828C148.86 347.205 150.27 347.865 151.812 347.865ZM151.812 343.328C151.36 343.262 150.567 343.009 150.567 342.458C150.567 341.929 151.085 341.621 151.812 341.621C152.528 341.621 153.045 341.929 153.045 342.458C153.045 343.009 152.263 343.262 151.812 343.328ZM151.812 346.522C151.041 346.522 150.446 346.169 150.446 345.63C150.446 345.013 151.349 344.716 151.812 344.65C152.263 344.716 153.177 345.013 153.177 345.63C153.177 346.169 152.561 346.522 151.812 346.522ZM158.524 347.865C160.297 347.865 161.464 346.885 161.464 345.321C161.464 343.835 160.352 342.943 159.108 342.943C158.436 342.943 157.841 343.207 157.489 343.559V341.764H160.969V340.387H155.925V344.606L157.015 344.892C157.456 344.473 157.951 344.297 158.557 344.297C159.394 344.297 159.879 344.738 159.879 345.387C159.879 345.982 159.383 346.478 158.513 346.478C157.742 346.478 157.059 346.191 156.563 345.674L155.693 346.764C156.321 347.447 157.246 347.865 158.524 347.865ZM162.868 347.954L165.478 340.167H164.464L161.854 347.954H162.868ZM171.239 347.733V340.387H169.829V343.097C169.411 342.557 168.816 342.282 168.188 342.282C166.833 342.282 165.831 343.339 165.831 345.079C165.831 346.852 166.844 347.865 168.188 347.865C168.827 347.865 169.411 347.579 169.829 347.051V347.733H171.239ZM168.618 346.621C167.825 346.621 167.274 345.993 167.274 345.079C167.274 344.154 167.825 343.526 168.618 343.526C169.091 343.526 169.598 343.78 169.829 344.132V346.015C169.598 346.368 169.091 346.621 168.618 346.621ZM177.218 347.733V344.297C177.218 342.766 176.106 342.282 174.895 342.282C174.057 342.282 173.22 342.546 172.571 343.119L173.099 344.055C173.551 343.636 174.08 343.427 174.652 343.427C175.357 343.427 175.82 343.78 175.82 344.319V345.035C175.467 344.617 174.839 344.385 174.135 344.385C173.287 344.385 172.284 344.859 172.284 346.103C172.284 347.293 173.287 347.865 174.135 347.865C174.828 347.865 175.456 347.612 175.82 347.183V347.733H177.218ZM174.696 346.918C174.146 346.918 173.694 346.632 173.694 346.136C173.694 345.619 174.146 345.332 174.696 345.332C175.148 345.332 175.588 345.487 175.82 345.795V346.456C175.588 346.764 175.148 346.918 174.696 346.918ZM178.418 349.815C178.595 349.859 178.947 349.892 179.112 349.892C180.026 349.87 180.731 349.606 181.128 348.603L183.628 342.414H182.119L180.731 346.114L179.344 342.414H177.846L180.004 347.81L179.806 348.262C179.674 348.548 179.432 348.647 179.068 348.647C178.936 348.647 178.749 348.614 178.628 348.559L178.418 349.815Z" fill="white"/>
<circle cx="153.6" cy="563.453" r="3.14667" fill="white"/>
<circle opacity="0.3" cx="166.186" cy="563.453" r="3.14667" fill="white"/>
<rect x="27.7334" y="448.6" width="263.533" height="88.8933" rx="9.44" fill="#27252E"/>
<path d="M61.5599 464.333H60.7732V463.547C60.7732 463.075 60.4585 462.76 59.9865 462.76C59.5145 462.76 59.1999 463.075 59.1999 463.547V464.333H52.9065V463.547C52.9065 463.075 52.5919 462.76 52.1199 462.76C51.6479 462.76 51.3332 463.075 51.3332 463.547V464.333H50.5465C49.2092 464.333 48.1865 465.356 48.1865 466.693V467.48H63.9199V466.693C63.9199 465.356 62.8972 464.333 61.5599 464.333ZM48.1865 476.133C48.1865 477.471 49.2092 478.493 50.5465 478.493H61.5599C62.8972 478.493 63.9199 477.471 63.9199 476.133V469.053H48.1865V476.133ZM59.9865 470.627C60.4585 470.627 60.7732 470.941 60.7732 471.413C60.7732 471.885 60.4585 472.2 59.9865 472.2C59.5145 472.2 59.1999 471.885 59.1999 471.413C59.1999 470.941 59.5145 470.627 59.9865 470.627ZM59.9865 473.773C60.4585 473.773 60.7732 474.088 60.7732 474.56C60.7732 475.032 60.4585 475.347 59.9865 475.347C59.5145 475.347 59.1999 475.032 59.1999 474.56C59.1999 474.088 59.5145 473.773 59.9865 473.773ZM56.0532 470.627C56.5252 470.627 56.8399 470.941 56.8399 471.413C56.8399 471.885 56.5252 472.2 56.0532 472.2C55.5812 472.2 55.2665 471.885 55.2665 471.413C55.2665 470.941 55.5812 470.627 56.0532 470.627ZM56.0532 473.773C56.5252 473.773 56.8399 474.088 56.8399 474.56C56.8399 475.032 56.5252 475.347 56.0532 475.347C55.5812 475.347 55.2665 475.032 55.2665 474.56C55.2665 474.088 55.5812 473.773 56.0532 473.773ZM52.1199 470.627C52.5919 470.627 52.9065 470.941 52.9065 471.413C52.9065 471.885 52.5919 472.2 52.1199 472.2C51.6479 472.2 51.3332 471.885 51.3332 471.413C51.3332 470.941 51.6479 470.627 52.1199 470.627ZM52.1199 473.773C52.5919 473.773 52.9065 474.088 52.9065 474.56C52.9065 475.032 52.5919 475.347 52.1199 475.347C51.6479 475.347 51.3332 475.032 51.3332 474.56C51.3332 474.088 51.6479 473.773 52.1199 473.773Z" fill="white"/>
<path d="M88.1868 474.778C90.4524 474.778 91.5474 473.62 91.5474 472.084C91.5474 468.95 86.7268 469.844 86.7268 468.51C86.7268 468.006 87.1547 467.666 87.9225 467.666C88.7784 467.666 89.6846 467.956 90.3643 468.585L91.3586 467.276C90.5279 466.508 89.4203 466.105 88.0861 466.105C86.11 466.105 84.9017 467.263 84.9017 468.661C84.9017 471.82 89.735 470.8 89.735 472.286C89.735 472.764 89.2567 473.217 88.2749 473.217C87.1169 473.217 86.1981 472.701 85.6065 472.084L84.6374 473.444C85.4177 474.236 86.5757 474.778 88.1868 474.778ZM95.5451 474.778C96.7912 474.778 97.5464 474.236 97.9491 473.67L96.9045 472.701C96.615 473.104 96.1744 473.355 95.6206 473.355C94.6514 473.355 93.9718 472.638 93.9718 471.581C93.9718 470.523 94.6514 469.819 95.6206 469.819C96.1744 469.819 96.615 470.045 96.9045 470.473L97.9491 469.491C97.5464 468.937 96.7912 468.396 95.5451 468.396C93.6697 468.396 92.3229 469.718 92.3229 471.581C92.3229 473.456 93.6697 474.778 95.5451 474.778ZM104.708 474.627V470.309C104.708 469.126 104.067 468.396 102.732 468.396C101.738 468.396 100.983 468.875 100.593 469.34V466.231H98.9941V474.627H100.593V470.536C100.87 470.171 101.36 469.819 101.977 469.819C102.669 469.819 103.11 470.083 103.11 470.926V474.627H104.708ZM109.153 474.778C110.097 474.778 111.053 474.488 111.657 473.934L110.952 472.902C110.562 473.28 109.845 473.506 109.329 473.506C108.297 473.506 107.68 472.865 107.579 472.097H112.098V471.744C112.098 469.756 110.864 468.396 109.052 468.396C107.202 468.396 105.905 469.819 105.905 471.581C105.905 473.532 107.302 474.778 109.153 474.778ZM110.55 471.014H107.554C107.63 470.41 108.058 469.668 109.052 469.668C110.109 469.668 110.512 470.435 110.55 471.014ZM119.042 474.627V466.231H117.431V469.328C116.953 468.711 116.273 468.396 115.556 468.396C114.008 468.396 112.862 469.605 112.862 471.593C112.862 473.62 114.02 474.778 115.556 474.778C116.286 474.778 116.953 474.45 117.431 473.846V474.627H119.042ZM116.047 473.355C115.14 473.355 114.511 472.638 114.511 471.593C114.511 470.536 115.14 469.819 116.047 469.819C116.588 469.819 117.167 470.108 117.431 470.511V472.663C117.167 473.066 116.588 473.355 116.047 473.355ZM126.329 474.627V468.547H124.731V472.663C124.454 473.016 123.963 473.355 123.346 473.355C122.667 473.355 122.226 473.078 122.226 472.235V468.547H120.627V472.865C120.627 474.048 121.257 474.778 122.591 474.778C123.585 474.778 124.315 474.325 124.731 473.859V474.627H126.329ZM129.515 474.627V466.231H127.916V474.627H129.515ZM133.957 474.778C134.901 474.778 135.858 474.488 136.462 473.934L135.757 472.902C135.367 473.28 134.649 473.506 134.133 473.506C133.101 473.506 132.485 472.865 132.384 472.097H136.902V471.744C136.902 469.756 135.669 468.396 133.856 468.396C132.006 468.396 130.71 469.819 130.71 471.581C130.71 473.532 132.107 474.778 133.957 474.778ZM135.354 471.014H132.359C132.434 470.41 132.862 469.668 133.856 469.668C134.914 469.668 135.317 470.435 135.354 471.014Z" fill="white"/>
<path d="M265.739 475.399C265.188 475.399 264.821 475.032 264.821 474.481C264.821 474.206 264.913 474.022 265.097 473.839L268.309 470.627L265.097 467.414C264.73 467.047 264.73 466.497 265.097 466.13C265.464 465.762 266.014 465.762 266.382 466.13L270.236 469.984C270.603 470.351 270.603 470.902 270.236 471.269L266.382 475.124C266.198 475.307 265.923 475.399 265.739 475.399Z" fill="white"/>
<rect x="27.7334" y="492.653" width="263.533" height="0.786667" fill="#3A3842"/>
<path d="M63.1332 521.76H49.7599V521.335L53.6932 517.402L56.6825 520.391C56.8299 520.538 57.0293 520.62 57.2371 520.62C57.4449 520.62 57.6443 520.538 57.7917 520.391L63.6917 514.491C63.7655 514.418 63.824 514.331 63.8639 514.235C63.9039 514.139 63.9244 514.036 63.9244 513.933C63.9244 513.829 63.9039 513.726 63.8639 513.63C63.824 513.534 63.7655 513.447 63.6917 513.374C63.5443 513.228 63.3449 513.145 63.1371 513.145C62.9293 513.145 62.7299 513.228 62.5825 513.374L57.2332 518.723L54.2517 515.734C54.1043 515.588 53.9049 515.505 53.6971 515.505C53.4893 515.505 53.2899 515.588 53.1425 515.734L49.7599 519.109V515.042L53.6932 511.109L55.8959 513.311C56.0432 513.458 56.2426 513.54 56.4505 513.54C56.6583 513.54 56.8577 513.458 57.0051 513.311L60.7732 509.543L62.496 511.266C62.6441 511.413 62.8446 511.495 63.0534 511.494C63.2621 511.494 63.462 511.41 63.6091 511.262C63.7562 511.114 63.8384 510.913 63.8377 510.705C63.837 510.496 63.7533 510.296 63.6052 510.149L61.316 507.875C61.1686 507.729 60.9692 507.647 60.7614 507.647C60.5536 507.647 60.3542 507.729 60.2068 507.875L56.4308 511.651L54.236 509.449C54.0886 509.302 53.8892 509.22 53.6814 509.22C53.4736 509.22 53.2742 509.302 53.1268 509.449L49.7599 512.816V508.387C49.7599 508.178 49.677 507.978 49.5294 507.83C49.3819 507.683 49.1818 507.6 48.9732 507.6C48.7646 507.6 48.5645 507.683 48.4169 507.83C48.2694 507.978 48.1865 508.178 48.1865 508.387V522.547C48.1865 522.755 48.2694 522.955 48.4169 523.103C48.5645 523.25 48.7646 523.333 48.9732 523.333H63.1332C63.3418 523.333 63.5419 523.25 63.6894 523.103C63.837 522.955 63.9199 522.755 63.9199 522.547C63.9199 522.338 63.837 522.138 63.6894 521.99C63.5419 521.843 63.3418 521.76 63.1332 521.76Z" fill="white"/>
<path d="M86.9911 519.467V515.993H91.0566V514.419H86.9911V512.645H91.1447V511.071H85.2038V519.467H86.9911ZM95.176 519.618C97.1899 519.618 98.3982 518.158 98.3982 516.421C98.3982 514.696 97.1899 513.236 95.176 513.236C93.1748 513.236 91.9664 514.696 91.9664 516.421C91.9664 518.158 93.1748 519.618 95.176 519.618ZM95.176 518.195C94.1817 518.195 93.6279 517.377 93.6279 516.421C93.6279 515.477 94.1817 514.659 95.176 514.659C96.1704 514.659 96.7368 515.477 96.7368 516.421C96.7368 517.377 96.1704 518.195 95.176 518.195ZM101.183 519.467V515.452C101.447 515.061 102.152 514.759 102.68 514.759C102.857 514.759 103.008 514.772 103.121 514.797V513.236C102.366 513.236 101.611 513.677 101.183 514.218V513.387H99.5841V519.467H101.183ZM106.977 519.618C107.921 519.618 108.878 519.328 109.482 518.774L108.777 517.742C108.387 518.12 107.669 518.346 107.153 518.346C106.121 518.346 105.504 517.705 105.404 516.937H109.922V516.584C109.922 514.596 108.689 513.236 106.876 513.236C105.026 513.236 103.73 514.659 103.73 516.421C103.73 518.372 105.127 519.618 106.977 519.618ZM108.374 515.854H105.378C105.454 515.25 105.882 514.508 106.876 514.508C107.934 514.508 108.336 515.275 108.374 515.854ZM113.909 519.618C115.155 519.618 115.91 519.076 116.313 518.51L115.268 517.541C114.979 517.944 114.538 518.195 113.984 518.195C113.015 518.195 112.336 517.478 112.336 516.421C112.336 515.363 113.015 514.659 113.984 514.659C114.538 514.659 114.979 514.885 115.268 515.313L116.313 514.331C115.91 513.778 115.155 513.236 113.909 513.236C112.033 513.236 110.687 514.558 110.687 516.421C110.687 518.296 112.033 519.618 113.909 519.618ZM122.607 519.467V515.54C122.607 513.79 121.335 513.236 119.951 513.236C118.994 513.236 118.038 513.538 117.295 514.193L117.899 515.263C118.415 514.784 119.019 514.545 119.674 514.545C120.479 514.545 121.008 514.948 121.008 515.565V516.383C120.605 515.905 119.888 515.64 119.082 515.64C118.113 515.64 116.968 516.182 116.968 517.604C116.968 518.963 118.113 519.618 119.082 519.618C119.875 519.618 120.593 519.328 121.008 518.837V519.467H122.607ZM119.724 518.535C119.095 518.535 118.579 518.208 118.579 517.642C118.579 517.05 119.095 516.723 119.724 516.723C120.24 516.723 120.744 516.899 121.008 517.251V518.007C120.744 518.359 120.24 518.535 119.724 518.535ZM126.382 519.618C128.069 519.618 129.013 518.774 129.013 517.667C129.013 515.212 125.413 515.968 125.413 515.061C125.413 514.722 125.791 514.457 126.37 514.457C127.112 514.457 127.804 514.772 128.169 515.162L128.811 514.067C128.207 513.589 127.389 513.236 126.357 513.236C124.758 513.236 123.865 514.13 123.865 515.149C123.865 517.541 127.477 516.723 127.477 517.73C127.477 518.107 127.15 518.384 126.458 518.384C125.702 518.384 124.796 517.969 124.356 517.554L123.663 518.674C124.305 519.265 125.325 519.618 126.382 519.618ZM132.229 519.618C132.897 519.618 133.324 519.442 133.564 519.228L133.224 518.019C133.136 518.107 132.909 518.195 132.67 518.195C132.318 518.195 132.116 517.906 132.116 517.528V514.784H133.35V513.387H132.116V511.726H130.505V513.387H129.498V514.784H130.505V517.956C130.505 519.039 131.109 519.618 132.229 519.618Z" fill="white"/>
<path d="M265.739 520.239C265.188 520.239 264.821 519.872 264.821 519.321C264.821 519.046 264.913 518.862 265.097 518.679L268.309 515.467L265.097 512.254C264.73 511.887 264.73 511.337 265.097 510.97C265.464 510.602 266.014 510.602 266.382 510.97L270.236 514.824C270.603 515.191 270.603 515.742 270.236 516.109L266.382 519.964C266.198 520.147 265.923 520.239 265.739 520.239Z" fill="white"/>
<rect x="208.667" y="159.893" width="48.32" height="18.88" rx="3.14667" fill="#F47457"/>
<path d="M228.333 166.973H227.704C227.622 166.62 227.484 166.283 227.294 165.974L227.735 165.534C227.864 165.383 227.931 165.19 227.924 164.992C227.916 164.794 227.834 164.606 227.694 164.466C227.554 164.326 227.366 164.244 227.168 164.236C226.97 164.228 226.776 164.296 226.626 164.425L226.185 164.865C225.877 164.675 225.539 164.537 225.186 164.456V163.827C225.186 163.618 225.103 163.418 224.956 163.27C224.808 163.123 224.608 163.04 224.4 163.04C224.191 163.04 223.991 163.123 223.843 163.27C223.696 163.418 223.613 163.618 223.613 163.827V164.456C223.262 164.536 222.927 164.674 222.622 164.865L222.173 164.425C222.023 164.296 221.829 164.228 221.631 164.236C221.433 164.244 221.245 164.326 221.105 164.466C220.965 164.606 220.883 164.794 220.875 164.992C220.868 165.19 220.935 165.383 221.064 165.534L221.505 165.982C221.434 166.1 221.379 166.234 221.316 166.36C220.911 166.246 220.493 166.187 220.073 166.187C218.939 166.186 217.843 166.593 216.985 167.334C216.127 168.075 215.564 169.101 215.4 170.222C214.76 170.402 214.206 170.807 213.841 171.363C213.477 171.919 213.325 172.588 213.416 173.247C213.506 173.905 213.831 174.509 214.332 174.947C214.833 175.384 215.475 175.626 216.14 175.627H223.353C224.257 175.627 225.123 175.268 225.762 174.629C226.401 173.99 226.76 173.124 226.76 172.22C226.759 171.803 226.679 171.389 226.524 171.001L226.626 171.095C226.772 171.241 226.97 171.323 227.176 171.324C227.28 171.324 227.383 171.304 227.478 171.265C227.574 171.226 227.661 171.168 227.735 171.095C227.882 170.948 227.964 170.749 227.964 170.541C227.964 170.333 227.882 170.134 227.735 169.986L227.294 169.546C227.484 169.237 227.622 168.9 227.704 168.547H228.333C228.541 168.547 228.742 168.464 228.889 168.316C229.037 168.169 229.12 167.969 229.12 167.76C229.12 167.551 229.037 167.351 228.889 167.204C228.742 167.056 228.541 166.973 228.333 166.973ZM223.353 174.053H216.14C215.827 174.053 215.526 173.929 215.305 173.708C215.084 173.486 214.96 173.186 214.96 172.873C214.96 172.56 215.084 172.26 215.305 172.039C215.526 171.818 215.827 171.693 216.14 171.693C216.348 171.693 216.548 171.61 216.696 171.463C216.843 171.315 216.926 171.115 216.926 170.907C216.93 170.164 217.196 169.446 217.677 168.881C218.159 168.315 218.825 167.938 219.558 167.817C220.291 167.695 221.043 167.837 221.682 168.217C222.32 168.596 222.804 169.19 223.046 169.892C223.091 170.027 223.172 170.147 223.28 170.24C223.388 170.333 223.52 170.395 223.66 170.419C224.107 170.502 224.506 170.749 224.781 171.11C225.057 171.471 225.188 171.922 225.15 172.375C225.111 172.827 224.906 173.25 224.575 173.56C224.243 173.87 223.807 174.046 223.353 174.053ZM225.713 169.058C225.575 169.188 225.415 169.295 225.241 169.373C224.98 169.202 224.697 169.067 224.4 168.971C224.038 168.182 223.47 167.505 222.755 167.013C222.841 166.811 222.964 166.627 223.117 166.47C223.469 166.144 223.931 165.962 224.411 165.962C224.891 165.962 225.353 166.144 225.705 166.47V166.47C226.043 166.818 226.231 167.283 226.231 167.768C226.231 168.252 226.043 168.718 225.705 169.066L225.713 169.058Z" fill="white"/>
<path d="M238.054 173.484C239.816 173.484 241.427 172.717 241.427 171.156C241.427 170.136 240.621 169.356 239.615 169.003C240.546 168.676 241.289 168.072 241.289 167.027C241.289 165.454 239.602 164.812 238.054 164.812C236.493 164.812 234.819 165.454 234.819 167.027C234.819 168.072 235.549 168.676 236.48 169.003C235.474 169.356 234.681 170.136 234.681 171.156C234.681 172.729 236.292 173.484 238.054 173.484ZM238.054 168.299C237.538 168.223 236.632 167.934 236.632 167.304C236.632 166.7 237.223 166.348 238.054 166.348C238.872 166.348 239.464 166.7 239.464 167.304C239.464 167.934 238.57 168.223 238.054 168.299ZM238.054 171.949C237.173 171.949 236.493 171.546 236.493 170.929C236.493 170.224 237.525 169.885 238.054 169.809C238.57 169.885 239.615 170.224 239.615 170.929C239.615 171.546 238.91 171.949 238.054 171.949ZM245.725 173.484C247.751 173.484 249.085 172.364 249.085 170.577C249.085 168.878 247.814 167.858 246.392 167.858C245.624 167.858 244.944 168.16 244.542 168.563V166.511H248.519V164.938H242.754V169.759L244 170.086C244.504 169.608 245.07 169.406 245.762 169.406C246.719 169.406 247.273 169.91 247.273 170.652C247.273 171.332 246.706 171.898 245.712 171.898C244.831 171.898 244.051 171.571 243.484 170.98L242.49 172.226C243.207 173.006 244.265 173.484 245.725 173.484ZM253.181 166.524C253.181 165.58 252.426 164.812 251.482 164.812C250.538 164.812 249.783 165.58 249.783 166.524C249.783 167.468 250.538 168.211 251.482 168.211C252.426 168.211 253.181 167.468 253.181 166.524ZM252.313 166.524C252.313 166.977 251.935 167.342 251.482 167.342C251.016 167.342 250.664 166.977 250.664 166.524C250.664 166.058 251.016 165.681 251.482 165.681C251.935 165.681 252.313 166.058 252.313 166.524Z" fill="white"/>
<path d="M218.854 182.667L214.96 178.773L222.748 178.773L218.854 182.667Z" fill="#F47457"/>
<path d="M156.935 192.773L162.008 181.156V179.131H151.761V181.688H158.633L153.745 192.773H156.935ZM169.001 193.019C172.11 193.019 174.217 190.994 174.217 188.335C174.217 185.431 172.028 183.897 169.574 183.897C168.081 183.897 166.71 184.735 166.076 185.656C166.056 185.553 166.056 185.471 166.056 185.369C166.056 183.201 167.467 181.504 169.472 181.504C170.678 181.504 171.456 181.872 172.192 182.567L173.501 180.338C172.519 179.499 171.128 178.926 169.472 178.926C165.442 178.926 163.111 181.851 163.111 185.983C163.111 189.828 164.849 193.019 169.001 193.019ZM168.838 190.442C166.935 190.442 166.199 188.989 166.076 187.68C166.731 186.862 167.713 186.392 168.735 186.392C170.044 186.392 171.272 187.005 171.272 188.437C171.272 189.399 170.412 190.442 168.838 190.442ZM180.79 181.708C180.79 180.174 179.563 178.926 178.029 178.926C176.495 178.926 175.268 180.174 175.268 181.708C175.268 183.242 176.495 184.449 178.029 184.449C179.563 184.449 180.79 183.242 180.79 181.708ZM179.379 181.708C179.379 182.444 178.766 183.038 178.029 183.038C177.272 183.038 176.7 182.444 176.7 181.708C176.7 180.951 177.272 180.338 178.029 180.338C178.766 180.338 179.379 180.951 179.379 181.708Z" fill="white"/>
<rect x="12" y="586" width="295" height="65" fill="#2A2933"/>
<rect x="12" y="585" width="295" height="1" fill="#34323B"/>
<rect x="106.4" y="641.32" width="105" height="4" rx="2" fill="white"/>
<rect width="295" height="38.5467" transform="translate(12 586)" fill="#2A2933"/>
<path fill-rule="evenodd" clip-rule="evenodd" d="M43.3359 597.955L48.8425 602.782C49.1329 603.042 49.3648 603.36 49.523 603.716C49.6813 604.072 49.7621 604.458 49.7603 604.847V612.878C49.7603 613.608 49.4702 614.308 48.9539 614.825C48.4375 615.341 47.7372 615.631 47.007 615.631H35.9937C35.2634 615.631 34.5631 615.341 34.0468 614.825C33.5304 614.308 33.2403 613.608 33.2403 612.878V604.856C33.2372 604.465 33.3175 604.078 33.4757 603.72C33.634 603.363 33.8666 603.043 34.1581 602.782L39.6648 597.955C40.1696 597.503 40.8231 597.254 41.5003 597.254C42.1776 597.254 42.8311 597.503 43.3359 597.955ZM45.1715 613.796V609.207C45.1715 608.476 44.8814 607.776 44.365 607.26C43.8487 606.743 43.1484 606.453 42.4181 606.453H40.5826C39.8524 606.453 39.152 606.743 38.6357 607.26C38.1193 607.776 37.8293 608.476 37.8293 609.207V613.796H45.1715Z" fill="white"/>
<path fill-rule="evenodd" clip-rule="evenodd" d="M100.5 611.96C103.541 611.96 106.007 609.495 106.007 606.453C106.007 603.412 103.541 600.947 100.5 600.947C97.4588 600.947 94.9934 603.412 94.9934 606.453C94.9934 609.495 97.4588 611.96 100.5 611.96ZM100.5 615.631C105.569 615.631 109.678 611.522 109.678 606.453C109.678 601.385 105.569 597.276 100.5 597.276C95.4313 597.276 91.3223 601.385 91.3223 606.453C91.3223 611.522 95.4313 615.631 100.5 615.631Z" fill="#E6B209"/>
<rect x="99.5825" y="600.947" width="1.83556" height="3.67111" fill="#E6B209"/>
<path opacity="0.5" fill-rule="evenodd" clip-rule="evenodd" d="M100.5 611.96C103.542 611.96 106.007 609.495 106.007 606.453C106.007 603.412 103.542 600.947 100.5 600.947C97.4591 600.947 94.9937 603.412 94.9937 606.453C94.9937 609.495 97.4591 611.96 100.5 611.96Z" fill="#E6B209"/>
<path d="M166.742 604.205C166.665 604.053 166.549 603.926 166.404 603.837C166.26 603.748 166.094 603.701 165.925 603.7H161.336V598.193C161.346 597.992 161.289 597.793 161.175 597.627C161.06 597.461 160.894 597.338 160.703 597.276C160.518 597.215 160.32 597.214 160.135 597.274C159.95 597.333 159.789 597.449 159.675 597.606L152.332 607.702C152.24 607.834 152.185 607.989 152.172 608.151C152.159 608.312 152.189 608.473 152.259 608.619C152.323 608.786 152.435 608.931 152.58 609.035C152.725 609.139 152.897 609.199 153.076 609.207H157.665V614.713C157.665 614.907 157.726 615.095 157.84 615.252C157.954 615.409 158.114 615.525 158.298 615.585C158.39 615.614 158.486 615.629 158.583 615.631C158.727 615.632 158.87 615.598 158.999 615.532C159.129 615.467 159.241 615.372 159.326 615.255L166.668 605.159C166.767 605.022 166.826 604.861 166.839 604.692C166.852 604.524 166.818 604.355 166.742 604.205Z" fill="white"/>
<path d="M218.5 609.207C217.955 609.207 217.423 609.368 216.97 609.671C216.517 609.973 216.164 610.403 215.956 610.906C215.748 611.409 215.693 611.963 215.799 612.497C215.906 613.031 216.168 613.522 216.553 613.907C216.938 614.292 217.428 614.554 217.963 614.66C218.497 614.767 219.05 614.712 219.553 614.504C220.056 614.295 220.486 613.942 220.789 613.49C221.092 613.037 221.253 612.505 221.253 611.96C221.253 611.23 220.963 610.529 220.447 610.013C219.93 609.497 219.23 609.207 218.5 609.207ZM218.5 605.536C216.797 605.541 215.165 606.217 213.957 607.417C213.786 607.589 213.69 607.822 213.69 608.064C213.69 608.306 213.786 608.539 213.957 608.711C214.129 608.882 214.361 608.978 214.604 608.978C214.846 608.978 215.079 608.882 215.251 608.711C215.677 608.284 216.183 607.945 216.741 607.713C217.298 607.482 217.896 607.363 218.5 607.363C219.103 607.363 219.701 607.482 220.258 607.713C220.816 607.945 221.322 608.284 221.749 608.711C221.918 608.884 222.149 608.983 222.391 608.986C222.577 608.997 222.762 608.951 222.922 608.854C223.081 608.757 223.207 608.613 223.283 608.443C223.358 608.272 223.38 608.083 223.346 607.9C223.311 607.716 223.221 607.548 223.089 607.417C222.485 606.817 221.769 606.343 220.981 606.02C220.194 605.697 219.351 605.532 218.5 605.536ZM218.5 601.864C215.823 601.872 213.258 602.933 211.359 604.82C211.274 604.905 211.206 605.007 211.16 605.119C211.113 605.23 211.089 605.35 211.089 605.471C211.089 605.716 211.187 605.95 211.359 606.123C211.532 606.296 211.767 606.393 212.011 606.393C212.255 606.393 212.49 606.296 212.663 606.123C214.211 604.576 216.311 603.707 218.5 603.707C220.689 603.707 222.788 604.576 224.337 606.123C224.423 606.208 224.524 606.275 224.636 606.321C224.748 606.367 224.868 606.39 224.988 606.389C225.109 606.39 225.229 606.367 225.341 606.321C225.453 606.275 225.554 606.208 225.64 606.123C225.726 606.038 225.794 605.936 225.841 605.824C225.888 605.712 225.912 605.592 225.912 605.471C225.912 605.35 225.888 605.23 225.841 605.118C225.794 605.006 225.726 604.905 225.64 604.82C223.742 602.933 221.176 601.872 218.5 601.864ZM228.237 602.222C226.959 600.943 225.441 599.928 223.77 599.236C222.099 598.543 220.308 598.187 218.5 598.187C216.691 598.187 214.9 598.543 213.229 599.236C211.559 599.928 210.041 600.943 208.762 602.222C208.589 602.395 208.492 602.63 208.492 602.874C208.492 603.118 208.589 603.353 208.762 603.526C208.935 603.698 209.169 603.796 209.414 603.796C209.658 603.796 209.893 603.698 210.065 603.526C212.303 601.289 215.336 600.033 218.5 600.033C221.663 600.033 224.697 601.289 226.934 603.526C227.019 603.612 227.121 603.68 227.233 603.726C227.345 603.773 227.465 603.797 227.586 603.797C227.707 603.797 227.827 603.773 227.939 603.726C228.051 603.68 228.152 603.612 228.237 603.526C228.323 603.44 228.392 603.339 228.438 603.227C228.485 603.115 228.509 602.995 228.509 602.874C228.509 602.753 228.485 602.633 228.438 602.521C228.392 602.409 228.323 602.308 228.237 602.222Z" fill="white"/>
<path fill-rule="evenodd" clip-rule="evenodd" d="M270.158 597.276H284.842C285.086 597.276 285.319 597.372 285.491 597.544C285.664 597.717 285.76 597.95 285.76 598.193V614.713C285.76 614.883 285.712 615.049 285.623 615.193C285.534 615.337 285.407 615.454 285.255 615.53C285.103 615.607 284.932 615.641 284.762 615.626C284.592 615.612 284.429 615.55 284.292 615.448L282.392 614.025L280.501 615.448C280.343 615.567 280.149 615.631 279.951 615.631C279.752 615.631 279.559 615.567 279.4 615.448L277.5 614.025L275.6 615.448C275.442 615.567 275.248 615.631 275.05 615.631C274.851 615.631 274.658 615.567 274.499 615.448L272.608 614.025L270.709 615.448C270.572 615.55 270.41 615.612 270.24 615.627C270.071 615.643 269.9 615.61 269.748 615.534C269.595 615.458 269.467 615.341 269.377 615.196C269.288 615.051 269.24 614.884 269.24 614.713V598.193C269.24 597.95 269.337 597.717 269.509 597.544C269.681 597.372 269.915 597.276 270.158 597.276ZM279.338 604.159H277.044C276.922 604.159 276.805 604.207 276.719 604.293C276.633 604.379 276.585 604.496 276.585 604.618C276.585 604.74 276.633 604.856 276.719 604.942C276.805 605.028 276.922 605.077 277.044 605.077H277.961C278.53 605.076 279.079 605.287 279.502 605.668C279.924 606.05 280.189 606.574 280.247 607.141C280.304 607.707 280.149 608.274 279.811 608.732C279.474 609.19 278.978 609.506 278.42 609.62V610.124C278.42 610.368 278.324 610.601 278.152 610.773C277.979 610.946 277.746 611.042 277.503 611.042C277.259 611.042 277.026 610.946 276.854 610.773C276.681 610.601 276.585 610.368 276.585 610.124V609.666H275.667C275.424 609.666 275.19 609.569 275.018 609.397C274.846 609.225 274.749 608.991 274.749 608.748C274.749 608.504 274.846 608.271 275.018 608.099C275.19 607.927 275.424 607.83 275.667 607.83H277.961C278.083 607.83 278.2 607.782 278.286 607.696C278.372 607.61 278.42 607.493 278.42 607.371C278.42 607.249 278.372 607.133 278.286 607.047C278.2 606.961 278.083 606.912 277.961 606.912H277.044C276.475 606.913 275.926 606.702 275.503 606.321C275.081 605.939 274.816 605.415 274.759 604.848C274.701 604.282 274.857 603.715 275.194 603.257C275.531 602.799 276.027 602.482 276.585 602.369V601.864C276.585 601.621 276.681 601.388 276.854 601.216C277.026 601.043 277.259 600.947 277.503 600.947C277.746 600.947 277.979 601.043 278.152 601.216C278.324 601.388 278.42 601.621 278.42 601.864V602.323H279.338C279.582 602.323 279.815 602.42 279.987 602.592C280.159 602.764 280.256 602.998 280.256 603.241C280.256 603.485 280.159 603.718 279.987 603.89C279.815 604.062 279.582 604.159 279.338 604.159Z" fill="white"/>
<rect x="12" y="12" width="295" height="69.08" fill="#282439"/>
<path d="M287.504 64.5257C287.357 64.3583 287.276 64.1429 287.276 63.92C287.276 63.6971 287.357 63.4818 287.504 63.3143L288.679 61.9927C288.808 61.8483 288.889 61.6666 288.909 61.4737C288.928 61.2808 288.887 61.0865 288.789 60.9189L286.954 57.7434C286.857 57.5759 286.71 57.4431 286.534 57.364C286.358 57.2849 286.161 57.2635 285.972 57.3028L284.246 57.6516C284.027 57.697 283.798 57.6604 283.604 57.5488C283.409 57.4372 283.262 57.2583 283.191 57.0459L282.631 55.3663C282.569 55.184 282.452 55.0257 282.295 54.9137C282.139 54.8017 281.951 54.7417 281.759 54.7422H278.088C277.888 54.7318 277.69 54.7871 277.524 54.8998C277.358 55.0125 277.234 55.1764 277.17 55.3663L276.656 57.0459C276.584 57.2583 276.438 57.4372 276.243 57.5488C276.049 57.6604 275.82 57.697 275.601 57.6516L273.829 57.3028C273.65 57.2775 273.467 57.3058 273.304 57.3842C273.14 57.4626 273.004 57.5876 272.912 57.7434L271.076 60.9189C270.976 61.0847 270.931 61.2778 270.948 61.4707C270.964 61.6635 271.041 61.8462 271.168 61.9927L272.333 63.3143C272.48 63.4818 272.562 63.6971 272.562 63.92C272.562 64.1429 272.48 64.3583 272.333 64.5257L271.168 65.8473C271.041 65.9938 270.964 66.1765 270.948 66.3694C270.931 66.5622 270.976 66.7553 271.076 66.9211L272.912 70.0967C273.008 70.2641 273.155 70.3969 273.331 70.476C273.508 70.5551 273.704 70.5765 273.894 70.5372L275.619 70.1884C275.839 70.1431 276.067 70.1796 276.262 70.2912C276.456 70.4028 276.603 70.5817 276.674 70.7942L277.234 72.4737C277.298 72.6637 277.422 72.8275 277.588 72.9402C277.754 73.0529 277.952 73.1082 278.152 73.0978H281.823C282.016 73.0983 282.203 73.0383 282.36 72.9263C282.516 72.8143 282.633 72.656 282.695 72.4737L283.255 70.7942C283.326 70.5817 283.473 70.4028 283.668 70.2912C283.862 70.1796 284.091 70.1431 284.31 70.1884L286.036 70.5372C286.225 70.5765 286.422 70.5551 286.598 70.476C286.774 70.3969 286.921 70.2641 287.018 70.0967L288.853 66.9211C288.951 66.7535 288.993 66.5593 288.973 66.3663C288.953 66.1734 288.873 65.9917 288.743 65.8473L287.504 64.5257ZM279.923 65.7556C279.56 65.7556 279.205 65.6479 278.904 65.4462C278.602 65.2445 278.366 64.9578 278.228 64.6224C278.089 64.287 278.052 63.918 278.123 63.5619C278.194 63.2058 278.369 62.8788 278.625 62.6221C278.882 62.3654 279.209 62.1905 279.565 62.1197C279.921 62.0489 280.29 62.0852 280.626 62.2242C280.961 62.3631 281.248 62.5984 281.45 62.9002C281.651 63.2021 281.759 63.557 281.759 63.92C281.759 64.4068 281.566 64.8737 281.221 65.2179C280.877 65.5622 280.41 65.7556 279.923 65.7556Z" fill="white"/>
<path fill-rule="evenodd" clip-rule="evenodd" d="M142.581 61.9335C142.581 62.0622 142.699 62.1781 142.829 62.1781H144.01C144.153 62.1781 144.259 62.0622 144.259 61.9335V56.4082H144.283L149.61 62.2167C149.675 62.2796 149.74 62.3068 149.831 62.3068H150.012C150.142 62.3068 150.26 62.2024 150.26 62.0751V53.426C150.26 53.2959 150.142 53.1815 150.012 53.1815H148.817C148.674 53.1815 148.57 53.2959 148.57 53.426V58.7339H148.546L143.244 53.1428C143.18 53.0799 143.113 53.0527 143.024 53.0527H142.829C142.699 53.0527 142.581 53.1543 142.581 53.2844V61.9335ZM154.287 61.9335C154.287 62.0622 154.391 62.1781 154.534 62.1781H159.822C159.965 62.1781 160.069 62.0622 160.069 61.9335V60.8808C160.069 60.7521 159.965 60.6362 159.822 60.6362H155.977V58.3863H159.184C159.314 58.3863 159.433 58.2834 159.433 58.1432V57.0762C159.433 56.9474 159.314 56.8316 159.184 56.8316H155.977V54.7233H159.822C159.965 54.7233 160.069 54.6075 160.069 54.4802V53.426C160.069 53.2959 159.965 53.1815 159.822 53.1815H154.534C154.391 53.1815 154.287 53.2959 154.287 53.426V61.9335ZM165.291 57.2807V54.7233H167.41C168.098 54.7233 168.696 55.2883 168.696 55.9706C168.696 56.69 168.098 57.2807 167.41 57.2807H165.291ZM163.591 61.9335C163.591 62.0622 163.694 62.1781 163.837 62.1781H165.031C165.161 62.1781 165.28 62.0622 165.28 61.9335V58.6567H166.721L168.449 62.0622C168.475 62.1137 168.54 62.1781 168.657 62.1781H170.021C170.242 62.1781 170.333 61.9707 170.242 61.8048L168.461 58.5408C169.593 58.0903 170.385 57.1277 170.385 55.9434C170.385 54.4144 169.111 53.1815 167.553 53.1815H163.837C163.694 53.1815 163.591 53.2959 163.591 53.426V61.9335ZM173.452 57.6926C173.452 60.2629 175.529 62.2925 178.115 62.2925C179.999 62.2925 181.337 61.4586 181.337 61.4586C181.389 61.42 181.44 61.3556 181.44 61.2512V57.963C181.44 57.8342 181.337 57.7184 181.207 57.7184H178.713C178.57 57.7184 178.466 57.8214 178.466 57.963V58.977C178.466 59.1058 178.57 59.2088 178.713 59.2088H179.753V60.3015C179.493 60.4045 178.934 60.6219 178.206 60.6219C176.569 60.6219 175.284 59.2731 175.284 57.6783C175.284 56.0721 176.569 54.6976 178.193 54.6976C178.908 54.6976 179.597 54.955 180.155 55.4428C180.272 55.5458 180.389 55.5458 180.493 55.4428L181.298 54.6075C181.402 54.5045 181.389 54.35 181.285 54.2485C180.402 53.5018 179.284 53.0527 178.115 53.0527C175.529 53.0527 173.452 55.121 173.452 57.6926ZM186.911 61.9335C186.911 62.0622 187.014 62.1781 187.158 62.1781H188.353C188.483 62.1781 188.6 62.0622 188.6 61.9335V57.8342L191.6 53.5548C191.704 53.386 191.6 53.1815 191.392 53.1815H190.054C189.95 53.1815 189.885 53.2458 189.846 53.2959L187.767 56.2523L185.689 53.2959C185.65 53.2458 185.585 53.1815 185.481 53.1815H184.155C183.949 53.1815 183.845 53.386 183.949 53.5548L186.911 57.8471V61.9335ZM133.279 61.9335C133.279 62.0622 133.383 62.1781 133.526 62.1781H138.814C138.957 62.1781 139.059 62.0622 139.059 61.9335V60.8808C139.059 60.7521 138.957 60.6362 138.814 60.6362H134.968V58.3863H138.177C138.306 58.3863 138.425 58.2834 138.425 58.1432V57.0762C138.425 56.9474 138.306 56.8316 138.177 56.8316H134.968V54.7233H138.814C138.957 54.7233 139.059 54.6075 139.059 54.4802V53.426C139.059 53.2959 138.957 53.1815 138.814 53.1815H133.526C133.383 53.1815 133.279 53.2959 133.279 53.426V61.9335Z" fill="#E6B209"/>
<path fill-rule="evenodd" clip-rule="evenodd" d="M196.629 54.1828V56.9018H197.136C198.453 56.9018 199.11 56.4484 199.11 55.5416C199.11 55.0324 198.951 54.6777 198.63 54.4803C198.31 54.2815 197.852 54.1828 197.256 54.1828H196.629ZM196.629 57.9974V61.1384H197.23C198.012 61.1384 198.62 61.0154 199.05 60.7694C199.483 60.5234 199.698 60.0971 199.698 59.4893C199.698 58.4952 198.995 57.9974 197.59 57.9974H196.629ZM206.213 54.2629V61.1126H206.92C207.053 61.1126 207.12 61.1799 207.12 61.31V61.958C207.12 62.0881 207.053 62.1553 206.92 62.1553H204.011C203.878 62.1553 203.812 62.0881 203.812 61.958V61.31C203.812 61.1799 203.878 61.1126 204.011 61.1126H204.718V54.2629H204.011C203.878 54.2629 203.812 54.1971 203.812 54.0641V53.3904C203.812 53.2589 203.878 53.1931 204.011 53.1931H206.92C207.053 53.1931 207.12 53.2589 207.12 53.3904V54.0641C207.12 54.1971 207.053 54.2629 206.92 54.2629H206.213ZM212.271 54.2629V61.1126H215.692L215.64 60.1887C215.633 60.0557 215.692 59.9913 215.825 59.9913H216.573C216.707 59.9913 216.774 60.0585 216.774 60.1887V61.9622C216.774 62.0924 216.704 62.1611 216.573 62.1611L210.068 62.1553C209.939 62.1553 209.87 62.0881 209.87 61.958V61.31C209.87 61.1799 209.936 61.1126 210.068 61.1126H210.776V54.2629H210.068C209.936 54.2629 209.87 54.1971 209.87 54.0641V53.3904C209.87 53.2589 209.936 53.1931 210.068 53.1931H213.246C213.377 53.1931 213.445 53.2589 213.445 53.3904V54.0641C213.445 54.1971 213.377 54.2629 213.246 54.2629H212.271ZM221.548 54.2629V61.1126H224.97L224.917 60.1887C224.911 60.0557 224.97 59.9913 225.103 59.9913H225.851C225.984 59.9913 226.052 60.0585 226.052 60.1887V61.9622C226.052 62.0924 225.981 62.1611 225.851 62.1611L219.346 62.1553C219.216 62.1553 219.146 62.0881 219.146 61.958V61.31C219.146 61.1799 219.213 61.1126 219.346 61.1126H220.053V54.2629H219.346C219.213 54.2629 219.146 54.1971 219.146 54.0641V53.3904C219.146 53.2589 219.213 53.1931 219.346 53.1931H222.522C222.655 53.1931 222.722 53.2589 222.722 53.3904V54.0641C222.722 54.1971 222.655 54.2629 222.522 54.2629H221.548ZM194.227 61.958V61.31C194.227 61.1799 194.294 61.1126 194.428 61.1126H195.135V54.2629H194.441C194.308 54.2629 194.242 54.1971 194.242 54.0641V53.3904C194.242 53.2503 194.308 53.1802 194.441 53.1802C195.508 53.1358 196.523 53.1144 197.483 53.1144C198.445 53.1144 199.211 53.296 199.785 53.6622C200.359 54.0269 200.645 54.5476 200.645 55.2255C200.645 55.7175 200.492 56.1466 200.184 56.5128C199.877 56.8789 199.516 57.1436 199.098 57.3123C199.782 57.4167 200.304 57.6685 200.665 58.0632C201.025 58.4594 201.206 58.9429 201.206 59.5164C201.206 60.263 200.926 60.8681 200.365 61.3301C199.805 61.792 199.062 62.0552 198.137 62.1153C197.753 62.141 197.14 62.1553 196.295 62.1553H194.428C194.294 62.1553 194.227 62.0881 194.227 61.958Z" fill="#D1F0DB"/>
<path fill-rule="evenodd" clip-rule="evenodd" d="M115.808 60.6288C114.658 59.5656 113.618 58.3308 112.508 57.1799C112.157 56.8182 111.736 56.9461 111.923 57.4594C112.399 58.7911 113.118 60.3602 114.065 61.8326C115.605 64.2311 118.423 63.0455 115.808 60.6288ZM102.042 60.6288C103.192 59.5656 104.23 58.3308 105.342 57.1799C105.691 56.8182 106.114 56.9461 105.929 57.4594C105.451 58.7911 104.732 60.3602 103.785 61.8326C102.245 64.2311 99.4271 63.0455 102.042 60.6288ZM106.051 51.4513C103.853 52.7008 100.836 53.7055 98.2379 55.1815C89.426 60.194 92.6243 68.5933 101.599 60.004C109.775 52.1765 108.16 52.2478 116.264 60.004C125.235 68.5933 128.437 60.194 119.623 55.1815C117.027 53.7055 114.01 52.7008 111.81 51.4513C111.454 51.2559 111.153 51.4714 111.341 51.7783C111.637 52.2624 112.093 52.772 112.722 53.2068L121.473 59.8963C121.571 59.9693 121.592 60.1082 121.518 60.205C121.446 60.2981 121.307 60.3182 121.209 60.247L112.359 53.7859C111.114 52.8524 110.494 51.961 110.217 51.2595C109.938 50.5599 109.991 49.2392 110.453 48.6053C110.614 48.3843 110.78 48.1797 110.953 47.9879C111.306 47.6006 111.679 47.2736 112.063 46.9923C112.157 46.9229 112.178 46.7932 112.108 46.6982C112.037 46.605 111.904 46.5849 111.81 46.6562C111.4 46.9539 111.007 47.2974 110.638 47.7065C108.965 49.5515 108.466 49.0766 107.225 47.7065C106.854 47.2974 106.461 46.9539 106.053 46.6562C105.957 46.5849 105.826 46.605 105.755 46.6982C105.685 46.7932 105.704 46.9229 105.8 46.9923C106.184 47.2736 106.557 47.6006 106.909 47.9879C107.081 48.1797 107.249 48.3843 107.41 48.6053C107.872 49.2392 107.923 50.5599 107.646 51.2595C107.369 51.961 106.749 52.8524 105.502 53.7859L96.6536 60.247C96.5575 60.3182 96.4172 60.2981 96.3452 60.205C96.2713 60.1082 96.2916 59.9693 96.3876 59.8963L105.14 53.2068C105.768 52.772 106.226 52.2624 106.522 51.7783C106.706 51.4714 106.409 51.2559 106.051 51.4513Z" fill="#D1F0DB"/>
<path fill-rule="evenodd" clip-rule="evenodd" d="M106.987 64.5515C106.841 64.5515 106.708 64.6099 106.614 64.7049H106.612C106.516 64.7999 106.458 64.9296 106.458 65.0739C106.458 65.2182 106.516 65.3516 106.614 65.4429C106.708 65.5397 106.841 65.5963 106.987 65.5963C107.129 65.5963 107.256 65.5415 107.347 65.4484C107.347 65.4484 107.349 65.4484 107.349 65.4502C107.446 65.3516 107.509 65.2146 107.515 65.0629C107.544 64.4364 107.633 64.5496 106.987 64.5515ZM110.876 64.5515C111.021 64.5515 111.154 64.6099 111.25 64.7049H111.252C111.345 64.7999 111.405 64.9296 111.405 65.0739C111.405 65.2182 111.345 65.3516 111.25 65.4429C111.154 65.5397 111.021 65.5963 110.876 65.5963C110.731 65.5963 110.606 65.5415 110.514 65.4484V65.4502C110.414 65.3516 110.353 65.2146 110.346 65.0629C110.318 64.4364 110.229 64.5496 110.876 64.5515ZM109.614 64.0455C109.788 64.0455 109.788 63.9907 109.782 63.839C109.653 61.046 109.526 58.2547 109.4 55.4617C109.365 54.7237 108.493 54.7292 108.464 55.4617C108.335 58.2547 108.207 61.046 108.082 63.839C108.074 63.9907 108.076 64.0455 108.248 64.0455C108.706 64.0436 109.156 64.0436 109.614 64.0455ZM104.374 65.3059C104.527 67.5235 106.239 68.7657 108.137 69.0324C108.41 69.0708 108.482 69.1731 108.53 69.2754C108.7 69.6535 109.149 69.6352 109.334 69.2717C109.385 69.1731 109.479 69.0708 109.777 69.0251C111.655 68.7438 113.337 67.5016 113.488 65.3059C113.632 63.2545 112 60.5966 111.4 58.3717C111.117 57.3322 110.892 56.428 110.567 55.8873C110.292 55.4288 109.912 55.5548 109.934 56.028C110.052 58.6256 110.172 61.2232 110.288 63.8208C110.298 64.0034 110.301 64.0473 110.482 64.0473C110.613 64.0491 110.744 64.0491 110.876 64.0491C111.162 64.0491 111.422 64.1624 111.61 64.3487C111.797 64.535 111.915 64.7926 111.915 65.0739C111.915 65.357 111.797 65.6146 111.61 65.8009C111.422 65.9873 111.162 66.1023 110.876 66.1023C110.591 66.1023 110.338 65.9891 110.153 65.8064C109.967 65.6219 109.851 65.3662 109.838 65.0867C109.832 64.9643 109.827 64.8437 109.821 64.7232C109.816 64.5862 109.777 64.5478 109.629 64.546H108.235C108.087 64.5478 108.047 64.5862 108.039 64.7232C108.034 64.8437 108.028 64.9643 108.024 65.0867C108.011 65.3662 107.893 65.6219 107.71 65.8064C107.522 65.9891 107.271 66.1023 106.987 66.1023C106.7 66.1023 106.44 65.9873 106.252 65.8009C106.063 65.6146 105.947 65.357 105.947 65.0739C105.947 64.7926 106.065 64.535 106.254 64.3487H106.252C106.44 64.1624 106.7 64.0491 106.987 64.0491C107.118 64.0491 107.249 64.0491 107.38 64.0473C107.563 64.0473 107.565 64.0034 107.572 63.8208C107.692 61.2232 107.81 58.6256 107.928 56.028C107.949 55.5548 107.57 55.4288 107.295 55.8873C106.97 56.428 106.745 57.3322 106.464 58.3717C105.862 60.5966 104.23 63.2545 104.374 65.3059Z" fill="#E6B209"/>
<path fill-rule="evenodd" clip-rule="evenodd" d="M114.865 67.2275C114.725 67.0978 114.725 66.8859 114.865 66.758C115.004 66.6283 115.229 66.6283 115.369 66.758L121.291 72.2565C121.431 72.3843 121.431 72.5944 121.291 72.7259C121.153 72.8538 120.925 72.8538 120.787 72.7259L114.865 67.2275ZM105.651 71.3376C105.7 71.1604 105.898 71.0563 106.086 71.102C106.278 71.1495 106.389 71.3303 106.339 71.5075L104.842 76.6899C104.792 76.8653 104.596 76.9712 104.406 76.9256C104.216 76.8763 104.103 76.6972 104.153 76.52L105.651 71.3376ZM102.484 66.7653C102.624 66.6375 102.849 66.6375 102.988 66.7653C103.13 66.895 103.13 67.1051 102.988 67.2348L97.0751 72.7259C96.9347 72.8538 96.7095 72.8538 96.571 72.7259C96.4306 72.5944 96.4306 72.3843 96.571 72.2565L102.484 66.7653ZM108.574 72.441C108.574 72.2583 108.734 72.1103 108.93 72.1103C109.13 72.1103 109.287 72.2583 109.287 72.441V75.1336C109.287 75.3181 109.13 75.466 108.93 75.466C108.734 75.466 108.574 75.3181 108.574 75.1336V72.441ZM113.846 69.8141C113.75 69.6552 113.809 69.4543 113.979 69.3629C114.147 69.2716 114.365 69.3264 114.462 69.4853L116.717 73.1095C116.815 73.2685 116.756 73.4694 116.586 73.5607C116.416 73.6521 116.2 73.5955 116.1 73.4384L113.846 69.8141ZM103.394 69.489C103.494 69.3319 103.712 69.2789 103.882 69.3702C104.053 69.4616 104.111 69.6643 104.011 69.8214L101.76 73.4384C101.662 73.5973 101.444 73.6521 101.274 73.5607C101.104 73.4694 101.045 73.2666 101.143 73.1095L103.394 69.489ZM99.5957 65.8721C99.7674 65.7807 99.9834 65.8337 100.081 65.9926C100.179 66.1516 100.122 66.3525 99.952 66.4438L96.1555 68.4788C95.9838 68.5683 95.7677 68.5135 95.6698 68.3564C95.572 68.1975 95.6311 67.9966 95.8009 67.9052L99.5957 65.8721ZM117.897 66.4365C117.727 66.3452 117.668 66.1443 117.764 65.9853C117.864 65.8264 118.08 65.7734 118.252 65.8629L122.059 67.9052C122.229 67.9966 122.29 68.1975 122.192 68.3564C122.094 68.5135 121.876 68.5683 121.707 68.4788L117.897 66.4365ZM111.521 71.5039C111.471 71.3267 111.584 71.1476 111.774 71.0983C111.964 71.0527 112.16 71.1568 112.21 71.334L113.707 76.52C113.757 76.6972 113.646 76.8763 113.454 76.9256C113.264 76.9712 113.068 76.8653 113.018 76.6899L111.521 71.5039Z" fill="#E6B209"/>
<g clip-path="url(#clip0_1464_31381)">
<path opacity="0.35" d="M278.418 26.0289H291.529C292.471 26.0289 293.234 26.792 293.234 27.7334V32.4534C293.234 33.3947 292.471 34.1578 291.529 34.1578H278.418C277.477 34.1578 276.714 33.3947 276.714 32.4534V27.7334C276.714 26.792 277.477 26.0289 278.418 26.0289Z" stroke="white" stroke-width="0.786667"/>
<path opacity="0.4" d="M294.414 28.52V31.6667C295.047 31.4002 295.458 30.7802 295.458 30.0934C295.458 29.4065 295.047 28.7865 294.414 28.52" fill="white"/>
<path d="M277.894 28.0743C277.894 27.5963 278.281 27.2089 278.759 27.2089H291.188C291.666 27.2089 292.054 27.5963 292.054 28.0743V32.1125C292.054 32.5904 291.666 32.9778 291.188 32.9778H278.759C278.281 32.9778 277.894 32.5904 277.894 32.1125V28.0743Z" fill="white"/>
<path fill-rule="evenodd" clip-rule="evenodd" d="M266.353 27.4251C268.096 27.4251 269.773 28.0949 271.036 29.296C271.131 29.3888 271.283 29.3876 271.377 29.2934L272.286 28.3756C272.334 28.3279 272.36 28.2632 272.36 28.1958C272.36 28.1285 272.332 28.0641 272.284 28.0169C268.968 24.8391 263.737 24.8391 260.421 28.0169C260.373 28.0641 260.346 28.1285 260.346 28.1958C260.345 28.2631 260.372 28.3278 260.419 28.3756L261.329 29.2934C261.422 29.3877 261.575 29.3889 261.67 29.296C262.933 28.0949 264.61 27.4251 266.353 27.4251ZM266.353 30.411C267.311 30.4109 268.235 30.7669 268.944 31.4098C269.04 31.501 269.192 31.4991 269.285 31.4053L270.194 30.4876C270.242 30.4394 270.268 30.3741 270.267 30.3063C270.267 30.2384 270.239 30.1736 270.19 30.1265C268.028 28.1155 264.68 28.1155 262.518 30.1265C262.469 30.1736 262.441 30.2384 262.441 30.3063C262.44 30.3742 262.467 30.4395 262.515 30.4876L263.423 31.4053C263.516 31.4991 263.668 31.501 263.764 31.4098C264.473 30.7674 265.396 30.4114 266.353 30.411ZM268.173 32.42C268.174 32.4881 268.147 32.5537 268.099 32.6013L266.528 34.187C266.481 34.2336 266.419 34.2598 266.353 34.2598C266.288 34.2598 266.225 34.2336 266.179 34.187L264.607 32.6013C264.559 32.5536 264.532 32.488 264.533 32.4199C264.535 32.3519 264.564 32.2875 264.615 32.2418C265.618 31.3931 267.088 31.3931 268.091 32.2418C268.142 32.2875 268.171 32.3519 268.173 32.42Z" fill="white"/>
<path fill-rule="evenodd" clip-rule="evenodd" d="M255.605 25.8978H254.818C254.384 25.8978 254.031 26.25 254.031 26.6845V33.5023C254.031 33.9368 254.384 34.289 254.818 34.289H255.605C256.039 34.289 256.391 33.9368 256.391 33.5023V26.6845C256.391 26.25 256.039 25.8978 255.605 25.8978ZM251.147 27.7334H251.934C252.368 27.7334 252.72 28.0856 252.72 28.5201V33.5023C252.72 33.9368 252.368 34.289 251.934 34.289H251.147C250.712 34.289 250.36 33.9368 250.36 33.5023V28.5201C250.36 28.0856 250.712 27.7334 251.147 27.7334ZM248.263 29.569H247.476C247.041 29.569 246.689 29.9212 246.689 30.3556V33.5023C246.689 33.9368 247.041 34.289 247.476 34.289H248.263C248.697 34.289 249.049 33.9368 249.049 33.5023V30.3556C249.049 29.9212 248.697 29.569 248.263 29.569ZM244.591 31.1423H243.805C243.37 31.1423 243.018 31.4945 243.018 31.929V33.5023C243.018 33.9368 243.37 34.289 243.805 34.289H244.591C245.026 34.289 245.378 33.9368 245.378 33.5023V31.929C245.378 31.4945 245.026 31.1423 244.591 31.1423Z" fill="white"/>
<path d="M41.5117 25.7051C39.7083 25.7051 38.4234 26.9381 38.4234 28.6263V28.6378C38.4234 30.2165 39.5412 31.3804 41.1372 31.3804C42.278 31.3804 43.004 30.7984 43.3094 30.1416H43.4246C43.4246 30.205 43.4188 30.2684 43.4188 30.3317C43.3555 31.922 42.7966 33.2126 41.4771 33.2126C40.7454 33.2126 40.2326 32.8323 40.0137 32.2504L39.9964 32.1928H38.5329L38.5444 32.2562C38.8095 33.5295 39.9503 34.4341 41.4771 34.4341C43.5686 34.4341 44.8305 32.7747 44.8305 29.9745V29.963C44.8305 26.9669 43.2863 25.7051 41.5117 25.7051ZM41.506 30.2396C40.561 30.2396 39.8754 29.5482 39.8754 28.5859V28.5744C39.8754 27.6468 40.6071 26.915 41.5232 26.915C42.4451 26.915 43.1653 27.6583 43.1653 28.609V28.6205C43.1653 29.5597 42.4451 30.2396 41.506 30.2396ZM47.0529 28.8395C47.583 28.8395 47.9691 28.4361 47.9691 27.9291C47.9691 27.4163 47.583 27.0188 47.0529 27.0188C46.5286 27.0188 46.1368 27.4163 46.1368 27.9291C46.1368 28.4361 46.5286 28.8395 47.0529 28.8395ZM47.0529 33.1147C47.583 33.1147 47.9691 32.7171 47.9691 32.2043C47.9691 31.6915 47.583 31.294 47.0529 31.294C46.5286 31.294 46.1368 31.6915 46.1368 32.2043C46.1368 32.7171 46.5286 33.1147 47.0529 33.1147ZM53.3086 34.2267H54.7318V32.6307H55.8496V31.4034H54.7318V25.9125H52.6288C51.4995 27.6295 50.3183 29.5424 49.2409 31.415V32.6307H53.3086V34.2267ZM50.6237 31.438V31.3516C51.4303 29.94 52.3925 28.4016 53.2453 27.0994H53.3317V31.438H50.6237ZM58.9017 34.2267H60.3883V25.9125H58.9075L56.7353 27.4394V28.8395L58.8038 27.376H58.9017V34.2267Z" fill="white"/>
</g>
</g>
<path d="M319 110C321.209 110 323 111.791 323 114V148C323 150.209 321.209 152 319 152V110Z" fill="white"/>
<path d="M319 178C321.209 178 323 179.791 323 182V216C323 218.209 321.209 220 319 220V178Z" fill="white"/>
<path d="M319 220C321.209 220 323 221.791 323 224V258C323 260.209 321.209 262 319 262V220Z" fill="white"/>
<path d="M100 12H224V23.9238C224 30.5933 218.593 36 211.924 36H112.076C105.407 36 100 30.5933 100 23.9238V12Z" fill="white"/>
<defs>
<clipPath id="clip0_1464_31381">
<rect width="295" height="34.6133" fill="white" transform="translate(12 12)"/>
</clipPath>
</defs>
</svg>
