<svg xmlns="http://www.w3.org/2000/svg" viewBox="0 0 560 520" fill="none">
  <defs>
    <clipPath id="clip0">
      <path d="M0 0H560V488C560 505.673 545.673 520 528 520H32C14.3269 520 0 505.673 0 488V0Z" fill="white" />
    </clipPath>
    <clipPath id="clip0_677:14564">
      <rect width="147" height="72" fill="white" transform="translate(98.6666 24)"/>
    </clipPath>
    <clipPath id="clip1_677:14564">
      <rect width="147" height="72" fill="white" transform="translate(98.6666 140)"/>
    </clipPath>
    <clipPath id="clip2_677:14564">
      <rect width="147" height="72" fill="white" transform="translate(98.6666 256)"/>
    </clipPath>
    <clipPath id="clip3_677:14564">
      <rect width="147" height="72" fill="white" transform="translate(98.6666 372)"/>
    </clipPath>
    <clipPath id="clip4_677:14564">
      <rect width="147" height="72" fill="white" transform="translate(98.6666 488)"/>
    </clipPath>
    <clipPath id="clip5_677:14564">
      <rect width="147" height="72" fill="white" transform="translate(98.6666 604)"/>
    </clipPath>
    <clipPath id="clip6_677:14564">
      <rect width="147" height="72" fill="white" transform="translate(98.6666 720)"/>
    </clipPath>
    <clipPath id="clip7_677:14564">
      <rect width="147" height="72" fill="white" transform="translate(98.6666 836)"/>
    </clipPath>
    <clipPath id="clip8_677:14564">
      <rect width="147" height="72" fill="white" transform="translate(98.6666 952)"/>
    </clipPath>
    <clipPath id="clip9_677:14564">
      <rect width="147" height="72" fill="white" transform="translate(98.6666 1068)"/>
    </clipPath>
    <clipPath id="clip10_677:14564">
      <rect width="147" height="72" fill="white" transform="translate(98.6666 1184)"/>
    </clipPath>
    <clipPath id="clip11_677:14564">
      <rect width="147" height="72" fill="white" transform="translate(98.6666 1300)"/>
    </clipPath>
    <clipPath id="clip12_677:14564">
      <rect width="147" height="72" fill="white" transform="translate(98.6666 1416)"/>
    </clipPath>
    <clipPath id="clip13_677:14564">
      <rect width="147" height="72" fill="white" transform="translate(98.6666 1532)"/>
    </clipPath>
    <clipPath id="clip14_677:14564">
      <rect width="147" height="72" fill="white" transform="translate(98.6666 1648)"/>
    </clipPath>
    <clipPath id="clip15_677:14564">
      <rect width="147" height="72" fill="white" transform="translate(98.6666 1764)"/>
    </clipPath>
  </defs>
  <g clip-path="url(#clip0)">
    <!-- We need to keep this `<g>` element for the animation to work after `svgo`, otherwise we merge groups -->
    <g class="">
      <g class="contracts">
        <rect x="0" y="0" width="100%" height="2000" fill="#fff"/>
        <g transform="translate(30 2)">
          <rect opacity="0.1" width="500" height="4" fill="#27252E"/>
          <path d="M59.6699 52.65C59.4206 52.1553 59.0392 51.7392 58.5679 51.448C58.0967 51.1567 57.554 51.0017 57 51H42V33C42.0321 32.3421 41.8469 31.6918 41.4728 31.1496C41.0987 30.6074 40.5565 30.2034 39.93 30C39.3276 29.8018 38.678 29.7996 38.0743 29.9936C37.4707 30.1877 36.944 30.568 36.57 31.08L12.57 64.08C12.2692 64.5146 12.0887 65.0209 12.0465 65.5477C12.0044 66.0745 12.1022 66.6031 12.33 67.08C12.5397 67.6253 12.9041 68.0974 13.3784 68.4385C13.8527 68.7795 14.4163 68.9747 15 69H29.9999V87C30.0004 87.6326 30.2009 88.2489 30.5726 88.7608C30.9444 89.2727 31.4685 89.6539 32.0699 89.85C32.3714 89.9434 32.6844 89.9939 32.9999 90C33.4733 90.0012 33.9402 89.8904 34.3626 89.6767C34.7849 89.4629 35.1507 89.1522 35.43 88.77L59.4299 55.77C59.7532 55.3224 59.9466 54.7943 59.989 54.2438C60.0313 53.6933 59.9209 53.1418 59.6699 52.65Z" fill="#E6B209"/>
          <g clip-path="url(#clip0_677:14564)">
            <rect opacity="0.1" x="98.9996" y="24" width="4" height="68" fill="#27252E"/>
            <rect opacity="0.1" x="98.9996" y="92" width="147" height="4" fill="#27252E"/>
            <path d="M113.528 24.7128C113.528 79.9951 120.527 79.9951 154.404 79.9951C154.404 72.355 154.404 66.4239 154.404 66.4239C154.404 66.4239 196.4 66.3269 245.499 66.3269" stroke="#E6B209" stroke-width="5"/>
          </g>
          <path d="M301.383 69.86C305.943 69.86 309.033 66.89 309.033 62.99C309.033 58.73 305.823 56.48 302.223 56.48C300.033 56.48 298.023 57.71 297.093 59.06C297.063 58.91 297.063 58.79 297.063 58.64C297.063 55.46 299.133 52.97 302.073 52.97C303.843 52.97 304.983 53.51 306.063 54.53L307.983 51.26C306.543 50.03 304.503 49.19 302.073 49.19C296.163 49.19 292.743 53.48 292.743 59.54C292.743 65.18 295.293 69.86 301.383 69.86ZM301.143 66.08C298.353 66.08 297.273 63.95 297.093 62.03C298.053 60.83 299.493 60.14 300.993 60.14C302.913 60.14 304.713 61.04 304.713 63.14C304.713 64.55 303.453 66.08 301.143 66.08ZM313.955 69.83C315.275 69.83 316.385 68.72 316.385 67.4C316.385 66.08 315.275 64.97 313.955 64.97C312.635 64.97 311.525 66.08 311.525 67.4C311.525 68.72 312.635 69.83 313.955 69.83ZM332.67 69.5V65.36H335.25V61.61H332.67V49.49H326.79L318.84 62V65.36H328.41V69.5H332.67ZM328.41 61.61H323.01L328.41 53.27V61.61ZM343.712 72.5H346.472V69.77C348.632 69.47 350.042 68.36 350.852 67.22L348.362 64.91C347.882 65.57 347.252 66.08 346.472 66.32V58.22C347.252 58.43 347.882 58.91 348.362 59.6L350.852 57.26C350.042 56.15 348.632 55.07 346.472 54.74V52.55H343.712V54.77C339.992 55.34 337.442 58.28 337.442 62.24C337.442 66.23 339.992 69.17 343.712 69.74V72.5ZM341.372 62.24C341.372 60.35 342.272 58.94 343.712 58.34V66.17C342.272 65.57 341.372 64.13 341.372 62.24ZM375.178 69.5L369.268 61.58L374.998 55.01H370.318L364.828 61.46V49.49H361.018V69.5H364.828V65.78L366.568 63.92L370.408 69.5H375.178ZM396.202 69.5L401.902 49.49H397.102L393.622 63.95L389.842 49.49H386.512L382.702 63.95L379.192 49.49H374.422L380.152 69.5H384.682L388.162 55.76L391.672 69.5H396.202ZM417.441 69.5V59.21C417.441 56.39 415.911 54.65 412.731 54.65C410.361 54.65 408.561 55.79 407.631 56.9V49.49H403.821V69.5H407.631V59.75C408.291 58.88 409.461 58.04 410.931 58.04C412.581 58.04 413.631 58.67 413.631 60.68V69.5H417.441Z" fill="#27252E"/>
          <path d="M485.848 58.4025L474.598 47.1525C474.384 46.9477 474.131 46.7871 473.855 46.68C473.307 46.455 472.693 46.455 472.145 46.68C471.869 46.7871 471.617 46.9477 471.403 47.1525L460.153 58.4025C459.943 58.6123 459.776 58.8614 459.663 59.1354C459.549 59.4095 459.491 59.7033 459.491 60C459.491 60.5992 459.729 61.1738 460.153 61.5975C460.576 62.0212 461.151 62.2592 461.75 62.2592C462.349 62.2592 462.924 62.0212 463.348 61.5975L470.75 54.1725V71.25C470.75 71.8467 470.987 72.419 471.409 72.841C471.831 73.263 472.403 73.5 473 73.5C473.597 73.5 474.169 73.263 474.591 72.841C475.013 72.419 475.25 71.8467 475.25 71.25V54.1725L482.653 61.5975C482.862 61.8084 483.111 61.9758 483.385 62.09C483.659 62.2042 483.953 62.2631 484.25 62.2631C484.547 62.2631 484.841 62.2042 485.115 62.09C485.39 61.9758 485.638 61.8084 485.848 61.5975C486.058 61.3883 486.226 61.1395 486.34 60.8653C486.454 60.5911 486.513 60.297 486.513 60C486.513 59.703 486.454 59.4089 486.34 59.1347C486.226 58.8605 486.058 58.6117 485.848 58.4025Z" fill="#F47457"/>
          <rect opacity="0.1" y="116" width="500" height="4" fill="#27252E"/>
          <path d="M59.6699 168.65C59.4206 168.155 59.0392 167.739 58.5679 167.448C58.0967 167.157 57.554 167.002 57 167H42V149C42.0321 148.342 41.8469 147.692 41.4728 147.15C41.0987 146.607 40.5565 146.203 39.93 146C39.3276 145.802 38.678 145.8 38.0743 145.994C37.4707 146.188 36.944 146.568 36.57 147.08L12.57 180.08C12.2692 180.515 12.0887 181.021 12.0465 181.548C12.0044 182.075 12.1022 182.603 12.33 183.08C12.5397 183.625 12.9041 184.097 13.3784 184.438C13.8527 184.78 14.4163 184.975 15 185H29.9999V203C30.0004 203.633 30.2009 204.249 30.5726 204.761C30.9444 205.273 31.4685 205.654 32.0699 205.85C32.3714 205.943 32.6844 205.994 32.9999 206C33.4733 206.001 33.9402 205.89 34.3626 205.677C34.7849 205.463 35.1507 205.152 35.43 204.77L59.4299 171.77C59.7532 171.322 59.9466 170.794 59.989 170.244C60.0313 169.693 59.9209 169.142 59.6699 168.65Z" fill="#7B61FF"/>
          <g clip-path="url(#clip1_677:14564)">
            <rect opacity="0.1" x="98.9996" y="140" width="4" height="68" fill="#27252E"/>
            <rect opacity="0.1" x="98.9996" y="208" width="147" height="4" fill="#27252E"/>
            <path d="M113.281 140.65C113.281 180 120.997 187.304 139.965 187.304C140.005 189.265 139.965 192.328 139.965 192.328L165.649 192.328L165.649 200.482C165.649 200.482 188.039 196.644 218.745 196.644C218.745 194.725 218.745 192.328 218.745 192.328L245.361 192.328" stroke="#7B61FF" stroke-width="5"/>
          </g>
          <path d="M286.262 185.5V165.49H282.542L276.242 171.82L278.672 174.37L282.002 170.98V185.5H286.262ZM300.783 185.86C306.483 185.86 309.063 180.67 309.063 175.51C309.063 170.35 306.483 165.19 300.783 165.19C295.053 165.19 292.503 170.35 292.503 175.51C292.503 180.67 295.053 185.86 300.783 185.86ZM300.783 182.08C297.903 182.08 296.823 179.2 296.823 175.51C296.823 171.82 297.903 168.97 300.783 168.97C303.633 168.97 304.713 171.82 304.713 175.51C304.713 179.2 303.633 182.08 300.783 182.08ZM313.955 185.83C315.275 185.83 316.385 184.72 316.385 183.4C316.385 182.08 315.275 180.97 313.955 180.97C312.635 180.97 311.525 182.08 311.525 183.4C311.525 184.72 312.635 185.83 313.955 185.83ZM327.03 185.86C331.83 185.86 334.92 183.43 334.92 179.98C334.92 176.98 332.28 175.39 330.24 175.18C332.46 174.79 334.62 173.14 334.62 170.62C334.62 167.29 331.74 165.19 327.06 165.19C323.55 165.19 321.03 166.54 319.41 168.37L321.54 171.04C322.95 169.69 324.69 168.97 326.61 168.97C328.71 168.97 330.33 169.75 330.33 171.34C330.33 172.81 328.86 173.47 326.64 173.47C325.89 173.47 324.51 173.47 324.15 173.44V177.28C324.45 177.25 325.8 177.22 326.64 177.22C329.43 177.22 330.66 177.94 330.66 179.53C330.66 181.03 329.31 182.08 326.88 182.08C324.93 182.08 322.74 181.24 321.36 179.8L319.14 182.65C320.61 184.45 323.34 185.86 327.03 185.86ZM343.712 188.5H346.472V185.77C348.632 185.47 350.042 184.36 350.852 183.22L348.362 180.91C347.882 181.57 347.252 182.08 346.472 182.32V174.22C347.252 174.43 347.882 174.91 348.362 175.6L350.852 173.26C350.042 172.15 348.632 171.07 346.472 170.74V168.55H343.712V170.77C339.992 171.34 337.442 174.28 337.442 178.24C337.442 182.23 339.992 185.17 343.712 185.74V188.5ZM341.372 178.24C341.372 176.35 342.272 174.94 343.712 174.34V182.17C342.272 181.57 341.372 180.13 341.372 178.24ZM375.178 185.5L369.268 177.58L374.998 171.01H370.318L364.828 177.46V165.49H361.018V185.5H364.828V181.78L366.568 179.92L370.408 185.5H375.178ZM396.202 185.5L401.902 165.49H397.102L393.622 179.95L389.842 165.49H386.512L382.702 179.95L379.192 165.49H374.422L380.152 185.5H384.682L388.162 171.76L391.672 185.5H396.202ZM417.441 185.5V175.21C417.441 172.39 415.911 170.65 412.731 170.65C410.361 170.65 408.561 171.79 407.631 172.9V165.49H403.821V185.5H407.631V175.75C408.291 174.88 409.461 174.04 410.931 174.04C412.581 174.04 413.631 174.67 413.631 176.68V185.5H417.441Z" fill="#27252E"/>
          <path d="M485.848 174.403C485.638 174.192 485.39 174.024 485.115 173.91C484.841 173.796 484.547 173.737 484.25 173.737C483.953 173.737 483.659 173.796 483.385 173.91C483.111 174.024 482.862 174.192 482.653 174.403L475.25 181.828V164.75C475.25 164.153 475.013 163.581 474.591 163.159C474.169 162.737 473.597 162.5 473 162.5C472.403 162.5 471.831 162.737 471.409 163.159C470.987 163.581 470.75 164.153 470.75 164.75V181.828L463.348 174.403C462.924 173.979 462.349 173.741 461.75 173.741C461.151 173.741 460.576 173.979 460.153 174.403C459.729 174.826 459.491 175.401 459.491 176C459.491 176.599 459.729 177.174 460.153 177.598L471.403 188.848C471.617 189.052 471.869 189.213 472.145 189.32C472.414 189.439 472.706 189.501 473 189.501C473.295 189.501 473.586 189.439 473.855 189.32C474.131 189.213 474.384 189.052 474.598 188.848L485.848 177.598C486.058 177.388 486.226 177.139 486.34 176.865C486.454 176.591 486.513 176.297 486.513 176C486.513 175.703 486.454 175.409 486.34 175.135C486.226 174.861 486.058 174.612 485.848 174.403Z" fill="#89B027"/>
          <rect opacity="0.1" y="232" width="500" height="4" fill="#27252E"/>
          <path d="M59.6699 284.65C59.4206 284.155 59.0392 283.739 58.5679 283.448C58.0967 283.157 57.554 283.002 57 283H42V265C42.0321 264.342 41.8469 263.692 41.4728 263.149C41.0987 262.607 40.5565 262.203 39.93 262C39.3276 261.802 38.678 261.799 38.0743 261.994C37.4707 262.188 36.944 262.568 36.57 263.08L12.57 296.08C12.2692 296.514 12.0887 297.021 12.0465 297.548C12.0044 298.074 12.1022 298.603 12.33 299.08C12.5397 299.625 12.9041 300.097 13.3784 300.438C13.8527 300.779 14.4163 300.975 15 301H29.9999V319C30.0004 319.633 30.2009 320.249 30.5726 320.761C30.9444 321.273 31.4685 321.654 32.0699 321.85C32.3714 321.943 32.6844 321.994 32.9999 322C33.4733 322.001 33.9402 321.89 34.3626 321.677C34.7849 321.463 35.1507 321.152 35.43 320.77L59.4299 287.77C59.7532 287.322 59.9466 286.794 59.989 286.244C60.0313 285.693 59.9209 285.142 59.6699 284.65Z" fill="#89B027"/>
          <g clip-path="url(#clip2_677:14564)">
            <rect opacity="0.1" x="98.9996" y="256" width="4" height="68" fill="#27252E"/>
            <rect opacity="0.1" x="98.9996" y="324" width="147" height="4" fill="#27252E"/>
            <path d="M113.171 256.073C113.171 288.368 169.468 312.505 246.034 312.505" stroke="#89B027" stroke-width="5"/>
          </g>
          <path d="M300.753 301.86C304.953 301.86 308.793 300.03 308.793 296.31C308.793 293.88 306.873 292.02 304.473 291.18C306.693 290.4 308.463 288.96 308.463 286.47C308.463 282.72 304.443 281.19 300.753 281.19C297.033 281.19 293.043 282.72 293.043 286.47C293.043 288.96 294.783 290.4 297.003 291.18C294.603 292.02 292.713 293.88 292.713 296.31C292.713 300.06 296.553 301.86 300.753 301.86ZM300.753 289.5C299.523 289.32 297.363 288.63 297.363 287.13C297.363 285.69 298.773 284.85 300.753 284.85C302.703 284.85 304.113 285.69 304.113 287.13C304.113 288.63 301.983 289.32 300.753 289.5ZM300.753 298.2C298.653 298.2 297.033 297.24 297.033 295.77C297.033 294.09 299.493 293.28 300.753 293.1C301.983 293.28 304.473 294.09 304.473 295.77C304.473 297.24 302.793 298.2 300.753 298.2ZM313.955 301.83C315.275 301.83 316.385 300.72 316.385 299.4C316.385 298.08 315.275 296.97 313.955 296.97C312.635 296.97 311.525 298.08 311.525 299.4C311.525 300.72 312.635 301.83 313.955 301.83ZM325.89 301.83C331.8 301.83 335.19 297.54 335.19 291.51C335.19 285.84 332.64 281.16 326.58 281.16C322.02 281.16 318.9 284.13 318.9 288.03C318.9 292.29 322.14 294.54 325.74 294.54C327.93 294.54 329.94 293.31 330.9 291.96C330.9 292.11 330.9 292.26 330.9 292.41C330.9 295.29 329.19 298.05 325.89 298.05C324.12 298.05 322.98 297.51 321.9 296.49L320.01 299.76C321.42 301.02 323.46 301.83 325.89 301.83ZM326.94 290.88C325.08 290.88 323.25 289.98 323.25 287.88C323.25 286.5 324.51 284.94 326.79 284.94C329.61 284.94 330.69 287.1 330.87 289.02C329.91 290.19 328.44 290.88 326.94 290.88ZM343.712 304.5H346.472V301.77C348.632 301.47 350.042 300.36 350.852 299.22L348.362 296.91C347.882 297.57 347.252 298.08 346.472 298.32V290.22C347.252 290.43 347.882 290.91 348.362 291.6L350.852 289.26C350.042 288.15 348.632 287.07 346.472 286.74V284.55H343.712V286.77C339.992 287.34 337.442 290.28 337.442 294.24C337.442 298.23 339.992 301.17 343.712 301.74V304.5ZM341.372 294.24C341.372 292.35 342.272 290.94 343.712 290.34V298.17C342.272 297.57 341.372 296.13 341.372 294.24ZM375.178 301.5L369.268 293.58L374.998 287.01H370.318L364.828 293.46V281.49H361.018V301.5H364.828V297.78L366.568 295.92L370.408 301.5H375.178ZM396.202 301.5L401.902 281.49H397.102L393.622 295.95L389.842 281.49H386.512L382.702 295.95L379.192 281.49H374.422L380.152 301.5H384.682L388.162 287.76L391.672 301.5H396.202ZM417.441 301.5V291.21C417.441 288.39 415.911 286.65 412.731 286.65C410.361 286.65 408.561 287.79 407.631 288.9V281.49H403.821V301.5H407.631V291.75C408.291 290.88 409.461 290.04 410.931 290.04C412.581 290.04 413.631 290.67 413.631 292.68V301.5H417.441Z" fill="#27252E"/>
          <path d="M485.848 290.403C485.638 290.192 485.39 290.024 485.115 289.91C484.841 289.796 484.547 289.737 484.25 289.737C483.953 289.737 483.659 289.796 483.385 289.91C483.111 290.024 482.862 290.192 482.653 290.403L475.25 297.828V280.75C475.25 280.153 475.013 279.581 474.591 279.159C474.169 278.737 473.597 278.5 473 278.5C472.403 278.5 471.831 278.737 471.409 279.159C470.987 279.581 470.75 280.153 470.75 280.75V297.828L463.348 290.403C462.924 289.979 462.349 289.741 461.75 289.741C461.151 289.741 460.576 289.979 460.153 290.403C459.729 290.826 459.491 291.401 459.491 292C459.491 292.599 459.729 293.174 460.153 293.598L471.403 304.848C471.617 305.052 471.869 305.213 472.145 305.32C472.414 305.439 472.706 305.501 473 305.501C473.295 305.501 473.586 305.439 473.855 305.32C474.131 305.213 474.384 305.052 474.598 304.848L485.848 293.598C486.058 293.388 486.226 293.139 486.34 292.865C486.454 292.591 486.513 292.297 486.513 292C486.513 291.703 486.454 291.409 486.34 291.135C486.226 290.861 486.058 290.612 485.848 290.403Z" fill="#89B027"/>
          <rect opacity="0.1" y="348" width="500" height="4" fill="#27252E"/>
          <path d="M59.6699 400.65C59.4206 400.155 59.0392 399.739 58.5679 399.448C58.0967 399.157 57.554 399.002 57 399H42V381C42.0321 380.342 41.8469 379.692 41.4728 379.149C41.0987 378.607 40.5565 378.203 39.93 378C39.3276 377.802 38.678 377.799 38.0743 377.994C37.4707 378.188 36.944 378.568 36.57 379.08L12.57 412.08C12.2692 412.514 12.0887 413.021 12.0465 413.548C12.0044 414.074 12.1022 414.603 12.33 415.08C12.5397 415.625 12.9041 416.097 13.3784 416.438C13.8527 416.779 14.4163 416.975 15 417H29.9999V435C30.0004 435.633 30.2009 436.249 30.5726 436.761C30.9444 437.273 31.4685 437.654 32.0699 437.85C32.3714 437.943 32.6844 437.994 32.9999 438C33.4733 438.001 33.9402 437.89 34.3626 437.677C34.7849 437.463 35.1507 437.152 35.43 436.77L59.4299 403.77C59.7532 403.322 59.9466 402.794 59.989 402.244C60.0313 401.693 59.9209 401.142 59.6699 400.65Z" fill="#20A5D6"/>
          <g clip-path="url(#clip3_677:14564)">
            <rect opacity="0.1" x="98.9996" y="372" width="4" height="68" fill="#27252E"/>
            <rect opacity="0.1" x="98.9996" y="440" width="147" height="4" fill="#27252E"/>
            <path d="M113.274 371.978C113.274 415.262 121.127 417.27 138.241 417.27C138.241 418.93 138.241 421.357 138.241 421.357L165.19 422.123L165.19 430.425C165.19 430.425 188.945 426.849 217.937 426.849C217.937 424.933 217.937 422.764 217.937 422.764L245.523 422.764" stroke="#20A5D6" stroke-width="5"/>
          </g>
          <path d="M286.262 417.5V397.49H282.542L276.242 403.82L278.672 406.37L282.002 402.98V417.5H286.262ZM300.753 417.86C305.583 417.86 308.763 415.19 308.763 410.93C308.763 406.88 305.733 404.45 302.343 404.45C300.513 404.45 298.893 405.17 297.933 406.13V401.24H307.413V397.49H293.673V408.98L296.643 409.76C297.843 408.62 299.193 408.14 300.843 408.14C303.123 408.14 304.443 409.34 304.443 411.11C304.443 412.73 303.093 414.08 300.723 414.08C298.623 414.08 296.763 413.3 295.413 411.89L293.043 414.86C294.753 416.72 297.273 417.86 300.753 417.86ZM313.955 417.83C315.275 417.83 316.385 416.72 316.385 415.4C316.385 414.08 315.275 412.97 313.955 412.97C312.635 412.97 311.525 414.08 311.525 415.4C311.525 416.72 312.635 417.83 313.955 417.83ZM331.32 417.5V397.49H327.6L321.3 403.82L323.73 406.37L327.06 402.98V417.5H331.32ZM343.712 420.5H346.472V417.77C348.632 417.47 350.042 416.36 350.852 415.22L348.362 412.91C347.882 413.57 347.252 414.08 346.472 414.32V406.22C347.252 406.43 347.882 406.91 348.362 407.6L350.852 405.26C350.042 404.15 348.632 403.07 346.472 402.74V400.55H343.712V402.77C339.992 403.34 337.442 406.28 337.442 410.24C337.442 414.23 339.992 417.17 343.712 417.74V420.5ZM341.372 410.24C341.372 408.35 342.272 406.94 343.712 406.34V414.17C342.272 413.57 341.372 412.13 341.372 410.24ZM375.178 417.5L369.268 409.58L374.998 403.01H370.318L364.828 409.46V397.49H361.018V417.5H364.828V413.78L366.568 411.92L370.408 417.5H375.178ZM396.202 417.5L401.902 397.49H397.102L393.622 411.95L389.842 397.49H386.512L382.702 411.95L379.192 397.49H374.422L380.152 417.5H384.682L388.162 403.76L391.672 417.5H396.202ZM417.441 417.5V407.21C417.441 404.39 415.911 402.65 412.731 402.65C410.361 402.65 408.561 403.79 407.631 404.9V397.49H403.821V417.5H407.631V407.75C408.291 406.88 409.461 406.04 410.931 406.04C412.581 406.04 413.631 406.67 413.631 408.68V417.5H417.441Z" fill="#27252E"/>
          <path d="M485.848 406.403L474.598 395.153C474.384 394.948 474.131 394.787 473.855 394.68C473.307 394.455 472.693 394.455 472.145 394.68C471.869 394.787 471.617 394.948 471.403 395.153L460.153 406.403C459.943 406.612 459.776 406.861 459.663 407.135C459.549 407.41 459.491 407.703 459.491 408C459.491 408.599 459.729 409.174 460.153 409.598C460.576 410.021 461.151 410.259 461.75 410.259C462.349 410.259 462.924 410.021 463.348 409.598L470.75 402.173V419.25C470.75 419.847 470.987 420.419 471.409 420.841C471.831 421.263 472.403 421.5 473 421.5C473.597 421.5 474.169 421.263 474.591 420.841C475.013 420.419 475.25 419.847 475.25 419.25V402.173L482.653 409.598C482.862 409.808 483.111 409.976 483.385 410.09C483.659 410.204 483.953 410.263 484.25 410.263C484.547 410.263 484.841 410.204 485.115 410.09C485.39 409.976 485.638 409.808 485.848 409.598C486.058 409.388 486.226 409.139 486.34 408.865C486.454 408.591 486.513 408.297 486.513 408C486.513 407.703 486.454 407.409 486.34 407.135C486.226 406.861 486.058 406.612 485.848 406.403Z" fill="#F47457"/>
          <rect opacity="0.1" y="464" width="500" height="4" fill="#27252E"/>
          <path d="M59.6699 516.65C59.4206 516.155 59.0392 515.739 58.5679 515.448C58.0967 515.157 57.554 515.002 57 515H42V497C42.0321 496.342 41.8469 495.692 41.4728 495.149C41.0987 494.607 40.5565 494.203 39.93 494C39.3276 493.802 38.678 493.799 38.0743 493.994C37.4707 494.188 36.944 494.568 36.57 495.08L12.57 528.08C12.2692 528.514 12.0887 529.021 12.0465 529.548C12.0044 530.074 12.1022 530.603 12.33 531.08C12.5397 531.625 12.9041 532.097 13.3784 532.438C13.8527 532.779 14.4163 532.975 15 533H29.9999V551C30.0004 551.633 30.2009 552.249 30.5726 552.761C30.9444 553.273 31.4685 553.654 32.0699 553.85C32.3714 553.943 32.6844 553.994 32.9999 554C33.4733 554.001 33.9402 553.89 34.3626 553.677C34.7849 553.463 35.1507 553.152 35.43 552.77L59.4299 519.77C59.7532 519.322 59.9466 518.794 59.989 518.244C60.0313 517.693 59.9209 517.142 59.6699 516.65Z" fill="#E6B209"/>
          <g clip-path="url(#clip4_677:14564)">
            <rect opacity="0.1" x="98.9996" y="488" width="4" height="68" fill="#27252E"/>
            <rect opacity="0.1" x="98.9996" y="556" width="147" height="4" fill="#27252E"/>
            <path d="M113.848 488.29C113.848 522.635 135.041 519.049 141.206 519.049C141.206 521.738 141.206 523.791 141.206 523.791L164.293 523.791L164.293 544.111C164.293 544.111 181.19 538.921 190.493 538.921C190.493 535.11 190.493 532.282 190.493 532.282L213.804 529.817L213.804 523.791L245.983 523.791" stroke="#E6B209" stroke-width="5"/>
          </g>
          <path d="M286.262 533.5V513.49H282.542L276.242 519.82L278.672 522.37L282.002 518.98V533.5H286.262ZM304.953 533.5V513.49H301.233L294.933 519.82L297.363 522.37L300.693 518.98V533.5H304.953ZM313.955 533.83C315.275 533.83 316.385 532.72 316.385 531.4C316.385 530.08 315.275 528.97 313.955 528.97C312.635 528.97 311.525 530.08 311.525 531.4C311.525 532.72 312.635 533.83 313.955 533.83ZM334.86 533.5V529.75H326.7C331.89 525.97 334.71 523 334.71 519.58C334.71 515.59 331.32 513.19 327.06 513.19C324.27 513.19 321.3 514.21 319.35 516.46L321.78 519.28C323.13 517.87 324.87 516.97 327.15 516.97C328.8 516.97 330.39 517.84 330.39 519.58C330.39 522.04 327.99 524.11 319.8 530.17V533.5H334.86ZM343.712 536.5H346.472V533.77C348.632 533.47 350.042 532.36 350.852 531.22L348.362 528.91C347.882 529.57 347.252 530.08 346.472 530.32V522.22C347.252 522.43 347.882 522.91 348.362 523.6L350.852 521.26C350.042 520.15 348.632 519.07 346.472 518.74V516.55H343.712V518.77C339.992 519.34 337.442 522.28 337.442 526.24C337.442 530.23 339.992 533.17 343.712 533.74V536.5ZM341.372 526.24C341.372 524.35 342.272 522.94 343.712 522.34V530.17C342.272 529.57 341.372 528.13 341.372 526.24ZM375.178 533.5L369.268 525.58L374.998 519.01H370.318L364.828 525.46V513.49H361.018V533.5H364.828V529.78L366.568 527.92L370.408 533.5H375.178ZM396.202 533.5L401.902 513.49H397.102L393.622 527.95L389.842 513.49H386.512L382.702 527.95L379.192 513.49H374.422L380.152 533.5H384.682L388.162 519.76L391.672 533.5H396.202ZM417.441 533.5V523.21C417.441 520.39 415.911 518.65 412.731 518.65C410.361 518.65 408.561 519.79 407.631 520.9V513.49H403.821V533.5H407.631V523.75C408.291 522.88 409.461 522.04 410.931 522.04C412.581 522.04 413.631 522.67 413.631 524.68V533.5H417.441Z" fill="#27252E"/>
          <path d="M485.848 522.403L474.598 511.153C474.384 510.948 474.131 510.787 473.855 510.68C473.307 510.455 472.693 510.455 472.145 510.68C471.869 510.787 471.617 510.948 471.403 511.153L460.153 522.403C459.943 522.612 459.776 522.861 459.663 523.135C459.549 523.41 459.491 523.703 459.491 524C459.491 524.599 459.729 525.174 460.153 525.598C460.576 526.021 461.151 526.259 461.75 526.259C462.349 526.259 462.924 526.021 463.348 525.598L470.75 518.173V535.25C470.75 535.847 470.987 536.419 471.409 536.841C471.831 537.263 472.403 537.5 473 537.5C473.597 537.5 474.169 537.263 474.591 536.841C475.013 536.419 475.25 535.847 475.25 535.25V518.173L482.653 525.598C482.862 525.808 483.111 525.976 483.385 526.09C483.659 526.204 483.953 526.263 484.25 526.263C484.547 526.263 484.841 526.204 485.115 526.09C485.39 525.976 485.638 525.808 485.848 525.598C486.058 525.388 486.226 525.139 486.34 524.865C486.454 524.591 486.513 524.297 486.513 524C486.513 523.703 486.454 523.409 486.34 523.135C486.226 522.861 486.058 522.612 485.848 522.403Z" fill="#F47457"/>
          <rect opacity="0.1" y="580" width="500" height="4" fill="#27252E"/>
          <path d="M59.6699 632.65C59.4206 632.155 59.0392 631.739 58.5679 631.448C58.0967 631.157 57.554 631.002 57 631H42V613C42.0321 612.342 41.8469 611.692 41.4728 611.149C41.0987 610.607 40.5565 610.203 39.93 610C39.3276 609.802 38.678 609.799 38.0743 609.994C37.4707 610.188 36.944 610.568 36.57 611.08L12.57 644.08C12.2692 644.514 12.0887 645.021 12.0465 645.548C12.0044 646.074 12.1022 646.603 12.33 647.08C12.5397 647.625 12.9041 648.097 13.3784 648.438C13.8527 648.779 14.4163 648.975 15 649H29.9999V667C30.0004 667.633 30.2009 668.249 30.5726 668.761C30.9444 669.273 31.4685 669.654 32.0699 669.85C32.3714 669.943 32.6844 669.994 32.9999 670C33.4733 670.001 33.9402 669.89 34.3626 669.677C34.7849 669.463 35.1507 669.152 35.43 668.77L59.4299 635.77C59.7532 635.322 59.9466 634.794 59.989 634.244C60.0313 633.693 59.9209 633.142 59.6699 632.65Z" fill="#7B61FF"/>
          <g clip-path="url(#clip5_677:14564)">
            <rect opacity="0.1" x="98.9996" y="604" width="4" height="68" fill="#27252E"/>
            <rect opacity="0.1" x="98.9996" y="672" width="147" height="4" fill="#27252E"/>
            <path d="M111 651H119.935L120.942 626H129.487L130.494 651H143.702L144.709 626H153.379L154.386 651H168.097L169.104 626H177.523L178.53 651H191.234L192.619 626H200.786L201.792 651H215.881L216.888 626H225.559L226.566 651H246" stroke="#7B61FF" stroke-width="5"/>
          </g>
          <path d="M286.262 649.5V629.49H282.542L276.242 635.82L278.672 638.37L282.002 634.98V649.5H286.262ZM308.493 649.5V645.75H300.333C305.523 641.97 308.343 639 308.343 635.58C308.343 631.59 304.953 629.19 300.693 629.19C297.903 629.19 294.933 630.21 292.983 632.46L295.413 635.28C296.763 633.87 298.503 632.97 300.783 632.97C302.433 632.97 304.023 633.84 304.023 635.58C304.023 638.04 301.623 640.11 293.433 646.17V649.5H308.493ZM313.955 649.83C315.275 649.83 316.385 648.72 316.385 647.4C316.385 646.08 315.275 644.97 313.955 644.97C312.635 644.97 311.525 646.08 311.525 647.4C311.525 648.72 312.635 649.83 313.955 649.83ZM332.67 649.5V645.36H335.25V641.61H332.67V629.49H326.79L318.84 642V645.36H328.41V649.5H332.67ZM328.41 641.61H323.01L328.41 633.27V641.61ZM343.712 652.5H346.472V649.77C348.632 649.47 350.042 648.36 350.852 647.22L348.362 644.91C347.882 645.57 347.252 646.08 346.472 646.32V638.22C347.252 638.43 347.882 638.91 348.362 639.6L350.852 637.26C350.042 636.15 348.632 635.07 346.472 634.74V632.55H343.712V634.77C339.992 635.34 337.442 638.28 337.442 642.24C337.442 646.23 339.992 649.17 343.712 649.74V652.5ZM341.372 642.24C341.372 640.35 342.272 638.94 343.712 638.34V646.17C342.272 645.57 341.372 644.13 341.372 642.24ZM375.178 649.5L369.268 641.58L374.998 635.01H370.318L364.828 641.46V629.49H361.018V649.5H364.828V645.78L366.568 643.92L370.408 649.5H375.178ZM396.202 649.5L401.902 629.49H397.102L393.622 643.95L389.842 629.49H386.512L382.702 643.95L379.192 629.49H374.422L380.152 649.5H384.682L388.162 635.76L391.672 649.5H396.202ZM417.441 649.5V639.21C417.441 636.39 415.911 634.65 412.731 634.65C410.361 634.65 408.561 635.79 407.631 636.9V629.49H403.821V649.5H407.631V639.75C408.291 638.88 409.461 638.04 410.931 638.04C412.581 638.04 413.631 638.67 413.631 640.68V649.5H417.441Z" fill="#27252E"/>
          <path d="M485.848 638.403C485.638 638.192 485.39 638.024 485.115 637.91C484.841 637.796 484.547 637.737 484.25 637.737C483.953 637.737 483.659 637.796 483.385 637.91C483.111 638.024 482.862 638.192 482.653 638.403L475.25 645.828V628.75C475.25 628.153 475.013 627.581 474.591 627.159C474.169 626.737 473.597 626.5 473 626.5C472.403 626.5 471.831 626.737 471.409 627.159C470.987 627.581 470.75 628.153 470.75 628.75V645.828L463.348 638.403C462.924 637.979 462.349 637.741 461.75 637.741C461.151 637.741 460.576 637.979 460.153 638.403C459.729 638.826 459.491 639.401 459.491 640C459.491 640.599 459.729 641.174 460.153 641.598L471.403 652.848C471.617 653.052 471.869 653.213 472.145 653.32C472.414 653.439 472.706 653.501 473 653.501C473.295 653.501 473.586 653.439 473.855 653.32C474.131 653.213 474.384 653.052 474.598 652.848L485.848 641.598C486.058 641.388 486.226 641.139 486.34 640.865C486.454 640.591 486.513 640.297 486.513 640C486.513 639.703 486.454 639.409 486.34 639.135C486.226 638.861 486.058 638.612 485.848 638.403Z" fill="#89B027"/>
          <rect opacity="0.1" y="696" width="500" height="4" fill="#27252E"/>
          <path d="M59.6699 748.65C59.4206 748.155 59.0392 747.739 58.5679 747.448C58.0967 747.157 57.554 747.002 57 747H42V729C42.0321 728.342 41.8469 727.692 41.4728 727.149C41.0987 726.607 40.5565 726.203 39.93 726C39.3276 725.802 38.678 725.799 38.0743 725.994C37.4707 726.188 36.944 726.568 36.57 727.08L12.57 760.08C12.2692 760.514 12.0887 761.021 12.0465 761.548C12.0044 762.074 12.1022 762.603 12.33 763.08C12.5397 763.625 12.9041 764.097 13.3784 764.438C13.8527 764.779 14.4163 764.975 15 765H29.9999V783C30.0004 783.633 30.2009 784.249 30.5726 784.761C30.9444 785.273 31.4685 785.654 32.0699 785.85C32.3714 785.943 32.6844 785.994 32.9999 786C33.4733 786.001 33.9402 785.89 34.3626 785.677C34.7849 785.463 35.1507 785.152 35.43 784.77L59.4299 751.77C59.7532 751.322 59.9466 750.794 59.989 750.244C60.0313 749.693 59.9209 749.142 59.6699 748.65Z" fill="#89B027"/>
          <g clip-path="url(#clip6_677:14564)">
            <rect opacity="0.1" x="98.9996" y="720" width="4" height="68" fill="#27252E"/>
            <rect opacity="0.1" x="98.9996" y="788" width="147" height="4" fill="#27252E"/>
            <path d="M112.843 720.116C112.843 771.118 144.301 775.73 246.637 775.73" stroke="#89B027" stroke-width="5"/>
          </g>
          <path d="M300.873 765.5L308.313 748.46V745.49H293.283V749.24H303.363L296.193 765.5H300.873ZM313.955 765.83C315.275 765.83 316.385 764.72 316.385 763.4C316.385 762.08 315.275 760.97 313.955 760.97C312.635 760.97 311.525 762.08 311.525 763.4C311.525 764.72 312.635 765.83 313.955 765.83ZM327.12 765.86C331.95 765.86 335.13 763.19 335.13 758.93C335.13 754.88 332.1 752.45 328.71 752.45C326.88 752.45 325.26 753.17 324.3 754.13V749.24H333.78V745.49H320.04V756.98L323.01 757.76C324.21 756.62 325.56 756.14 327.21 756.14C329.49 756.14 330.81 757.34 330.81 759.11C330.81 760.73 329.46 762.08 327.09 762.08C324.99 762.08 323.13 761.3 321.78 759.89L319.41 762.86C321.12 764.72 323.64 765.86 327.12 765.86ZM343.712 768.5H346.472V765.77C348.632 765.47 350.042 764.36 350.852 763.22L348.362 760.91C347.882 761.57 347.252 762.08 346.472 762.32V754.22C347.252 754.43 347.882 754.91 348.362 755.6L350.852 753.26C350.042 752.15 348.632 751.07 346.472 750.74V748.55H343.712V750.77C339.992 751.34 337.442 754.28 337.442 758.24C337.442 762.23 339.992 765.17 343.712 765.74V768.5ZM341.372 758.24C341.372 756.35 342.272 754.94 343.712 754.34V762.17C342.272 761.57 341.372 760.13 341.372 758.24ZM375.178 765.5L369.268 757.58L374.998 751.01H370.318L364.828 757.46V745.49H361.018V765.5H364.828V761.78L366.568 759.92L370.408 765.5H375.178ZM396.202 765.5L401.902 745.49H397.102L393.622 759.95L389.842 745.49H386.512L382.702 759.95L379.192 745.49H374.422L380.152 765.5H384.682L388.162 751.76L391.672 765.5H396.202ZM417.441 765.5V755.21C417.441 752.39 415.911 750.65 412.731 750.65C410.361 750.65 408.561 751.79 407.631 752.9V745.49H403.821V765.5H407.631V755.75C408.291 754.88 409.461 754.04 410.931 754.04C412.581 754.04 413.631 754.67 413.631 756.68V765.5H417.441Z" fill="#27252E"/>
          <path d="M485.848 754.403C485.638 754.192 485.39 754.024 485.115 753.91C484.841 753.796 484.547 753.737 484.25 753.737C483.953 753.737 483.659 753.796 483.385 753.91C483.111 754.024 482.862 754.192 482.653 754.403L475.25 761.828V744.75C475.25 744.153 475.013 743.581 474.591 743.159C474.169 742.737 473.597 742.5 473 742.5C472.403 742.5 471.831 742.737 471.409 743.159C470.987 743.581 470.75 744.153 470.75 744.75V761.828L463.348 754.403C462.924 753.979 462.349 753.741 461.75 753.741C461.151 753.741 460.576 753.979 460.153 754.403C459.729 754.826 459.491 755.401 459.491 756C459.491 756.599 459.729 757.174 460.153 757.598L471.403 768.848C471.617 769.052 471.869 769.213 472.145 769.32C472.414 769.439 472.706 769.501 473 769.501C473.295 769.501 473.586 769.439 473.855 769.32C474.131 769.213 474.384 769.052 474.598 768.848L485.848 757.598C486.058 757.388 486.226 757.139 486.34 756.865C486.454 756.591 486.513 756.297 486.513 756C486.513 755.703 486.454 755.409 486.34 755.135C486.226 754.861 486.058 754.612 485.848 754.403Z" fill="#89B027"/>
          <rect opacity="0.1" y="812" width="500" height="4" fill="#27252E"/>
          <path d="M59.6699 864.65C59.4206 864.155 59.0392 863.739 58.5679 863.448C58.0967 863.157 57.554 863.002 57 863H42V845C42.0321 844.342 41.8469 843.692 41.4728 843.149C41.0987 842.607 40.5565 842.203 39.93 842C39.3276 841.802 38.678 841.799 38.0743 841.994C37.4707 842.188 36.944 842.568 36.57 843.08L12.57 876.08C12.2692 876.514 12.0887 877.021 12.0465 877.548C12.0044 878.074 12.1022 878.603 12.33 879.08C12.5397 879.625 12.9041 880.097 13.3784 880.438C13.8527 880.779 14.4163 880.975 15 881H29.9999V899C30.0004 899.633 30.2009 900.249 30.5726 900.761C30.9444 901.273 31.4685 901.654 32.0699 901.85C32.3714 901.943 32.6844 901.994 32.9999 902C33.4733 902.001 33.9402 901.89 34.3626 901.677C34.7849 901.463 35.1507 901.152 35.43 900.77L59.4299 867.77C59.7532 867.322 59.9466 866.794 59.989 866.244C60.0313 865.693 59.9209 865.142 59.6699 864.65Z" fill="#20A5D6"/>
          <g clip-path="url(#clip7_677:14564)">
            <rect opacity="0.1" x="98.9996" y="836" width="4" height="68" fill="#27252E"/>
            <rect opacity="0.1" x="98.9996" y="904" width="147" height="4" fill="#27252E"/>
            <path d="M113.274 834.978C113.274 878.262 121.127 880.27 138.241 880.27C141 880.27 165.19 880.27 165.19 880.27L165.19 885.123L165.19 893.425C165.19 893.425 188.945 889.849 217.937 889.849C217.937 887.933 217.937 885.764 217.937 885.764L245.523 885.764" stroke="#20A5D6" stroke-width="5"/>
          </g>
          <path d="M286.262 881.5V861.49H282.542L276.242 867.82L278.672 870.37L282.002 866.98V881.5H286.262ZM299.523 881.83C305.433 881.83 308.823 877.54 308.823 871.51C308.823 865.84 306.273 861.16 300.213 861.16C295.653 861.16 292.533 864.13 292.533 868.03C292.533 872.29 295.773 874.54 299.373 874.54C301.563 874.54 303.573 873.31 304.533 871.96C304.533 872.11 304.533 872.26 304.533 872.41C304.533 875.29 302.823 878.05 299.523 878.05C297.753 878.05 296.613 877.51 295.533 876.49L293.643 879.76C295.053 881.02 297.093 881.83 299.523 881.83ZM300.573 870.88C298.713 870.88 296.883 869.98 296.883 867.88C296.883 866.5 298.143 864.94 300.423 864.94C303.243 864.94 304.323 867.1 304.503 869.02C303.543 870.19 302.073 870.88 300.573 870.88ZM313.955 881.83C315.275 881.83 316.385 880.72 316.385 879.4C316.385 878.08 315.275 876.97 313.955 876.97C312.635 876.97 311.525 878.08 311.525 879.4C311.525 880.72 312.635 881.83 313.955 881.83ZM327.12 881.86C331.32 881.86 335.16 880.03 335.16 876.31C335.16 873.88 333.24 872.02 330.84 871.18C333.06 870.4 334.83 868.96 334.83 866.47C334.83 862.72 330.81 861.19 327.12 861.19C323.4 861.19 319.41 862.72 319.41 866.47C319.41 868.96 321.15 870.4 323.37 871.18C320.97 872.02 319.08 873.88 319.08 876.31C319.08 880.06 322.92 881.86 327.12 881.86ZM327.12 869.5C325.89 869.32 323.73 868.63 323.73 867.13C323.73 865.69 325.14 864.85 327.12 864.85C329.07 864.85 330.48 865.69 330.48 867.13C330.48 868.63 328.35 869.32 327.12 869.5ZM327.12 878.2C325.02 878.2 323.4 877.24 323.4 875.77C323.4 874.09 325.86 873.28 327.12 873.1C328.35 873.28 330.84 874.09 330.84 875.77C330.84 877.24 329.16 878.2 327.12 878.2ZM343.712 884.5H346.472V881.77C348.632 881.47 350.042 880.36 350.852 879.22L348.362 876.91C347.882 877.57 347.252 878.08 346.472 878.32V870.22C347.252 870.43 347.882 870.91 348.362 871.6L350.852 869.26C350.042 868.15 348.632 867.07 346.472 866.74V864.55H343.712V866.77C339.992 867.34 337.442 870.28 337.442 874.24C337.442 878.23 339.992 881.17 343.712 881.74V884.5ZM341.372 874.24C341.372 872.35 342.272 870.94 343.712 870.34V878.17C342.272 877.57 341.372 876.13 341.372 874.24ZM375.178 881.5L369.268 873.58L374.998 867.01H370.318L364.828 873.46V861.49H361.018V881.5H364.828V877.78L366.568 875.92L370.408 881.5H375.178ZM396.202 881.5L401.902 861.49H397.102L393.622 875.95L389.842 861.49H386.512L382.702 875.95L379.192 861.49H374.422L380.152 881.5H384.682L388.162 867.76L391.672 881.5H396.202ZM417.441 881.5V871.21C417.441 868.39 415.911 866.65 412.731 866.65C410.361 866.65 408.561 867.79 407.631 868.9V861.49H403.821V881.5H407.631V871.75C408.291 870.88 409.461 870.04 410.931 870.04C412.581 870.04 413.631 870.67 413.631 872.68V881.5H417.441Z" fill="#27252E"/>
          <path d="M485.848 870.403L474.598 859.153C474.384 858.948 474.131 858.787 473.855 858.68C473.307 858.455 472.693 858.455 472.145 858.68C471.869 858.787 471.617 858.948 471.403 859.153L460.153 870.403C459.943 870.612 459.776 870.861 459.663 871.135C459.549 871.41 459.491 871.703 459.491 872C459.491 872.599 459.729 873.174 460.153 873.598C460.576 874.021 461.151 874.259 461.75 874.259C462.349 874.259 462.924 874.021 463.348 873.598L470.75 866.173V883.25C470.75 883.847 470.987 884.419 471.409 884.841C471.831 885.263 472.403 885.5 473 885.5C473.597 885.5 474.169 885.263 474.591 884.841C475.013 884.419 475.25 883.847 475.25 883.25V866.173L482.653 873.598C482.862 873.808 483.111 873.976 483.385 874.09C483.659 874.204 483.953 874.263 484.25 874.263C484.547 874.263 484.841 874.204 485.115 874.09C485.39 873.976 485.638 873.808 485.848 873.598C486.058 873.388 486.226 873.139 486.34 872.865C486.454 872.591 486.513 872.297 486.513 872C486.513 871.703 486.454 871.409 486.34 871.135C486.226 870.861 486.058 870.612 485.848 870.403Z" fill="#F47457"/>
          <rect opacity="0.1" y="928" width="500" height="4" fill="#27252E"/>
          <path d="M59.6699 980.65C59.4206 980.155 59.0392 979.739 58.5679 979.448C58.0967 979.157 57.554 979.002 57 979H42V961C42.0321 960.342 41.8469 959.692 41.4728 959.149C41.0987 958.607 40.5565 958.203 39.93 958C39.3276 957.802 38.678 957.799 38.0743 957.994C37.4707 958.188 36.944 958.568 36.57 959.08L12.57 992.08C12.2692 992.514 12.0887 993.021 12.0465 993.548C12.0044 994.074 12.1022 994.603 12.33 995.08C12.5397 995.625 12.9041 996.097 13.3784 996.438C13.8527 996.779 14.4163 996.975 15 997H29.9999V1015C30.0004 1015.63 30.2009 1016.25 30.5726 1016.76C30.9444 1017.27 31.4685 1017.65 32.0699 1017.85C32.3714 1017.94 32.6844 1017.99 32.9999 1018C33.4733 1018 33.9402 1017.89 34.3626 1017.68C34.7849 1017.46 35.1507 1017.15 35.43 1016.77L59.4299 983.77C59.7532 983.322 59.9466 982.794 59.989 982.244C60.0313 981.693 59.9209 981.142 59.6699 980.65Z" fill="#E6B209"/>
          <g clip-path="url(#clip8_677:14564)">
            <rect opacity="0.1" x="98.9996" y="952" width="4" height="68" fill="#27252E"/>
            <rect opacity="0.1" x="98.9996" y="1020" width="147" height="4" fill="#27252E"/>
            <path d="M113.528 952.713C113.528 1008 120.527 1008 154.404 1008C154.404 1000.36 154.404 994.424 154.404 994.424C154.404 994.424 196.4 994.327 245.499 994.327" stroke="#E6B209" stroke-width="5"/>
          </g>
          <path d="M301.383 997.86C305.943 997.86 309.033 994.89 309.033 990.99C309.033 986.73 305.823 984.48 302.223 984.48C300.033 984.48 298.023 985.71 297.093 987.06C297.063 986.91 297.063 986.79 297.063 986.64C297.063 983.46 299.133 980.97 302.073 980.97C303.843 980.97 304.983 981.51 306.063 982.53L307.983 979.26C306.543 978.03 304.503 977.19 302.073 977.19C296.163 977.19 292.743 981.48 292.743 987.54C292.743 993.18 295.293 997.86 301.383 997.86ZM301.143 994.08C298.353 994.08 297.273 991.95 297.093 990.03C298.053 988.83 299.493 988.14 300.993 988.14C302.913 988.14 304.713 989.04 304.713 991.14C304.713 992.55 303.453 994.08 301.143 994.08ZM313.955 997.83C315.275 997.83 316.385 996.72 316.385 995.4C316.385 994.08 315.275 992.97 313.955 992.97C312.635 992.97 311.525 994.08 311.525 995.4C311.525 996.72 312.635 997.83 313.955 997.83ZM332.67 997.5V993.36H335.25V989.61H332.67V977.49H326.79L318.84 990V993.36H328.41V997.5H332.67ZM328.41 989.61H323.01L328.41 981.27V989.61ZM343.712 1000.5H346.472V997.77C348.632 997.47 350.042 996.36 350.852 995.22L348.362 992.91C347.882 993.57 347.252 994.08 346.472 994.32V986.22C347.252 986.43 347.882 986.91 348.362 987.6L350.852 985.26C350.042 984.15 348.632 983.07 346.472 982.74V980.55H343.712V982.77C339.992 983.34 337.442 986.28 337.442 990.24C337.442 994.23 339.992 997.17 343.712 997.74V1000.5ZM341.372 990.24C341.372 988.35 342.272 986.94 343.712 986.34V994.17C342.272 993.57 341.372 992.13 341.372 990.24ZM375.178 997.5L369.268 989.58L374.998 983.01H370.318L364.828 989.46V977.49H361.018V997.5H364.828V993.78L366.568 991.92L370.408 997.5H375.178ZM396.202 997.5L401.902 977.49H397.102L393.622 991.95L389.842 977.49H386.512L382.702 991.95L379.192 977.49H374.422L380.152 997.5H384.682L388.162 983.76L391.672 997.5H396.202ZM417.441 997.5V987.21C417.441 984.39 415.911 982.65 412.731 982.65C410.361 982.65 408.561 983.79 407.631 984.9V977.49H403.821V997.5H407.631V987.75C408.291 986.88 409.461 986.04 410.931 986.04C412.581 986.04 413.631 986.67 413.631 988.68V997.5H417.441Z" fill="#27252E"/>
          <path d="M485.848 986.403L474.598 975.153C474.384 974.948 474.131 974.787 473.855 974.68C473.307 974.455 472.693 974.455 472.145 974.68C471.869 974.787 471.617 974.948 471.403 975.153L460.153 986.403C459.943 986.612 459.776 986.861 459.663 987.135C459.549 987.41 459.491 987.703 459.491 988C459.491 988.599 459.729 989.174 460.153 989.598C460.576 990.021 461.151 990.259 461.75 990.259C462.349 990.259 462.924 990.021 463.348 989.598L470.75 982.173V999.25C470.75 999.847 470.987 1000.42 471.409 1000.84C471.831 1001.26 472.403 1001.5 473 1001.5C473.597 1001.5 474.169 1001.26 474.591 1000.84C475.013 1000.42 475.25 999.847 475.25 999.25V982.173L482.653 989.598C482.862 989.808 483.111 989.976 483.385 990.09C483.659 990.204 483.953 990.263 484.25 990.263C484.547 990.263 484.841 990.204 485.115 990.09C485.39 989.976 485.638 989.808 485.848 989.598C486.058 989.388 486.226 989.139 486.34 988.865C486.454 988.591 486.513 988.297 486.513 988C486.513 987.703 486.454 987.409 486.34 987.135C486.226 986.861 486.058 986.612 485.848 986.403Z" fill="#F47457"/>
          <rect opacity="0.1" y="1044" width="500" height="4" fill="#27252E"/>
          <path d="M59.6699 1096.65C59.4206 1096.16 59.0392 1095.74 58.5679 1095.45C58.0967 1095.16 57.554 1095 57 1095H42V1077C42.0321 1076.34 41.8469 1075.69 41.4728 1075.15C41.0987 1074.61 40.5565 1074.2 39.93 1074C39.3276 1073.8 38.678 1073.8 38.0743 1073.99C37.4707 1074.19 36.944 1074.57 36.57 1075.08L12.57 1108.08C12.2692 1108.51 12.0887 1109.02 12.0465 1109.55C12.0044 1110.07 12.1022 1110.6 12.33 1111.08C12.5397 1111.63 12.9041 1112.1 13.3784 1112.44C13.8527 1112.78 14.4163 1112.97 15 1113H29.9999V1131C30.0004 1131.63 30.2009 1132.25 30.5726 1132.76C30.9444 1133.27 31.4685 1133.65 32.0699 1133.85C32.3714 1133.94 32.6844 1133.99 32.9999 1134C33.4733 1134 33.9402 1133.89 34.3626 1133.68C34.7849 1133.46 35.1507 1133.15 35.43 1132.77L59.4299 1099.77C59.7532 1099.32 59.9466 1098.79 59.989 1098.24C60.0313 1097.69 59.9209 1097.14 59.6699 1096.65Z" fill="#7B61FF"/>
          <g clip-path="url(#clip9_677:14564)">
            <rect opacity="0.1" x="98.9996" y="1068" width="4" height="68" fill="#27252E"/>
            <rect opacity="0.1" x="98.9996" y="1136" width="147" height="4" fill="#27252E"/>
            <path d="M113.281 1068.65C113.281 1108 120.997 1115.3 139.965 1115.3C140.005 1117.27 139.965 1120.33 139.965 1120.33L165.649 1120.33L165.649 1128.48C165.649 1128.48 188.039 1124.64 218.745 1124.64C218.745 1122.72 218.745 1120.33 218.745 1120.33L245.361 1120.33" stroke="#7B61FF" stroke-width="5"/>
          </g>
          <path d="M286.262 1113.5V1093.49H282.542L276.242 1099.82L278.672 1102.37L282.002 1098.98V1113.5H286.262ZM300.783 1113.86C306.483 1113.86 309.063 1108.67 309.063 1103.51C309.063 1098.35 306.483 1093.19 300.783 1093.19C295.053 1093.19 292.503 1098.35 292.503 1103.51C292.503 1108.67 295.053 1113.86 300.783 1113.86ZM300.783 1110.08C297.903 1110.08 296.823 1107.2 296.823 1103.51C296.823 1099.82 297.903 1096.97 300.783 1096.97C303.633 1096.97 304.713 1099.82 304.713 1103.51C304.713 1107.2 303.633 1110.08 300.783 1110.08ZM313.955 1113.83C315.275 1113.83 316.385 1112.72 316.385 1111.4C316.385 1110.08 315.275 1108.97 313.955 1108.97C312.635 1108.97 311.525 1110.08 311.525 1111.4C311.525 1112.72 312.635 1113.83 313.955 1113.83ZM327.03 1113.86C331.83 1113.86 334.92 1111.43 334.92 1107.98C334.92 1104.98 332.28 1103.39 330.24 1103.18C332.46 1102.79 334.62 1101.14 334.62 1098.62C334.62 1095.29 331.74 1093.19 327.06 1093.19C323.55 1093.19 321.03 1094.54 319.41 1096.37L321.54 1099.04C322.95 1097.69 324.69 1096.97 326.61 1096.97C328.71 1096.97 330.33 1097.75 330.33 1099.34C330.33 1100.81 328.86 1101.47 326.64 1101.47C325.89 1101.47 324.51 1101.47 324.15 1101.44V1105.28C324.45 1105.25 325.8 1105.22 326.64 1105.22C329.43 1105.22 330.66 1105.94 330.66 1107.53C330.66 1109.03 329.31 1110.08 326.88 1110.08C324.93 1110.08 322.74 1109.24 321.36 1107.8L319.14 1110.65C320.61 1112.45 323.34 1113.86 327.03 1113.86ZM343.712 1116.5H346.472V1113.77C348.632 1113.47 350.042 1112.36 350.852 1111.22L348.362 1108.91C347.882 1109.57 347.252 1110.08 346.472 1110.32V1102.22C347.252 1102.43 347.882 1102.91 348.362 1103.6L350.852 1101.26C350.042 1100.15 348.632 1099.07 346.472 1098.74V1096.55H343.712V1098.77C339.992 1099.34 337.442 1102.28 337.442 1106.24C337.442 1110.23 339.992 1113.17 343.712 1113.74V1116.5ZM341.372 1106.24C341.372 1104.35 342.272 1102.94 343.712 1102.34V1110.17C342.272 1109.57 341.372 1108.13 341.372 1106.24ZM375.178 1113.5L369.268 1105.58L374.998 1099.01H370.318L364.828 1105.46V1093.49H361.018V1113.5H364.828V1109.78L366.568 1107.92L370.408 1113.5H375.178ZM396.202 1113.5L401.902 1093.49H397.102L393.622 1107.95L389.842 1093.49H386.512L382.702 1107.95L379.192 1093.49H374.422L380.152 1113.5H384.682L388.162 1099.76L391.672 1113.5H396.202ZM417.441 1113.5V1103.21C417.441 1100.39 415.911 1098.65 412.731 1098.65C410.361 1098.65 408.561 1099.79 407.631 1100.9V1093.49H403.821V1113.5H407.631V1103.75C408.291 1102.88 409.461 1102.04 410.931 1102.04C412.581 1102.04 413.631 1102.67 413.631 1104.68V1113.5H417.441Z" fill="#27252E"/>
          <path d="M485.848 1102.4C485.638 1102.19 485.39 1102.02 485.115 1101.91C484.841 1101.8 484.547 1101.74 484.25 1101.74C483.953 1101.74 483.659 1101.8 483.385 1101.91C483.111 1102.02 482.862 1102.19 482.653 1102.4L475.25 1109.83V1092.75C475.25 1092.15 475.013 1091.58 474.591 1091.16C474.169 1090.74 473.597 1090.5 473 1090.5C472.403 1090.5 471.831 1090.74 471.409 1091.16C470.987 1091.58 470.75 1092.15 470.75 1092.75V1109.83L463.348 1102.4C462.924 1101.98 462.349 1101.74 461.75 1101.74C461.151 1101.74 460.576 1101.98 460.153 1102.4C459.729 1102.83 459.491 1103.4 459.491 1104C459.491 1104.6 459.729 1105.17 460.153 1105.6L471.403 1116.85C471.617 1117.05 471.869 1117.21 472.145 1117.32C472.414 1117.44 472.706 1117.5 473 1117.5C473.295 1117.5 473.586 1117.44 473.855 1117.32C474.131 1117.21 474.384 1117.05 474.598 1116.85L485.848 1105.6C486.058 1105.39 486.226 1105.14 486.34 1104.87C486.454 1104.59 486.513 1104.3 486.513 1104C486.513 1103.7 486.454 1103.41 486.34 1103.13C486.226 1102.86 486.058 1102.61 485.848 1102.4Z" fill="#89B027"/>
          <rect opacity="0.1" y="1160" width="500" height="4" fill="#27252E"/>
          <path d="M59.6699 1212.65C59.4206 1212.16 59.0392 1211.74 58.5679 1211.45C58.0967 1211.16 57.554 1211 57 1211H42V1193C42.0321 1192.34 41.8469 1191.69 41.4728 1191.15C41.0987 1190.61 40.5565 1190.2 39.93 1190C39.3276 1189.8 38.678 1189.8 38.0743 1189.99C37.4707 1190.19 36.944 1190.57 36.57 1191.08L12.57 1224.08C12.2692 1224.51 12.0887 1225.02 12.0465 1225.55C12.0044 1226.07 12.1022 1226.6 12.33 1227.08C12.5397 1227.63 12.9041 1228.1 13.3784 1228.44C13.8527 1228.78 14.4163 1228.97 15 1229H29.9999V1247C30.0004 1247.63 30.2009 1248.25 30.5726 1248.76C30.9444 1249.27 31.4685 1249.65 32.0699 1249.85C32.3714 1249.94 32.6844 1249.99 32.9999 1250C33.4733 1250 33.9402 1249.89 34.3626 1249.68C34.7849 1249.46 35.1507 1249.15 35.43 1248.77L59.4299 1215.77C59.7532 1215.32 59.9466 1214.79 59.989 1214.24C60.0313 1213.69 59.9209 1213.14 59.6699 1212.65Z" fill="#89B027"/>
          <g clip-path="url(#clip10_677:14564)">
            <rect opacity="0.1" x="98.9996" y="1184" width="4" height="68" fill="#27252E"/>
            <rect opacity="0.1" x="98.9996" y="1252" width="147" height="4" fill="#27252E"/>
            <path d="M113.171 1184.07C113.171 1216.37 169.468 1240.5 246.034 1240.5" stroke="#89B027" stroke-width="5"/>
          </g>
          <path d="M300.753 1229.86C304.953 1229.86 308.793 1228.03 308.793 1224.31C308.793 1221.88 306.873 1220.02 304.473 1219.18C306.693 1218.4 308.463 1216.96 308.463 1214.47C308.463 1210.72 304.443 1209.19 300.753 1209.19C297.033 1209.19 293.043 1210.72 293.043 1214.47C293.043 1216.96 294.783 1218.4 297.003 1219.18C294.603 1220.02 292.713 1221.88 292.713 1224.31C292.713 1228.06 296.553 1229.86 300.753 1229.86ZM300.753 1217.5C299.523 1217.32 297.363 1216.63 297.363 1215.13C297.363 1213.69 298.773 1212.85 300.753 1212.85C302.703 1212.85 304.113 1213.69 304.113 1215.13C304.113 1216.63 301.983 1217.32 300.753 1217.5ZM300.753 1226.2C298.653 1226.2 297.033 1225.24 297.033 1223.77C297.033 1222.09 299.493 1221.28 300.753 1221.1C301.983 1221.28 304.473 1222.09 304.473 1223.77C304.473 1225.24 302.793 1226.2 300.753 1226.2ZM313.955 1229.83C315.275 1229.83 316.385 1228.72 316.385 1227.4C316.385 1226.08 315.275 1224.97 313.955 1224.97C312.635 1224.97 311.525 1226.08 311.525 1227.4C311.525 1228.72 312.635 1229.83 313.955 1229.83ZM325.89 1229.83C331.8 1229.83 335.19 1225.54 335.19 1219.51C335.19 1213.84 332.64 1209.16 326.58 1209.16C322.02 1209.16 318.9 1212.13 318.9 1216.03C318.9 1220.29 322.14 1222.54 325.74 1222.54C327.93 1222.54 329.94 1221.31 330.9 1219.96C330.9 1220.11 330.9 1220.26 330.9 1220.41C330.9 1223.29 329.19 1226.05 325.89 1226.05C324.12 1226.05 322.98 1225.51 321.9 1224.49L320.01 1227.76C321.42 1229.02 323.46 1229.83 325.89 1229.83ZM326.94 1218.88C325.08 1218.88 323.25 1217.98 323.25 1215.88C323.25 1214.5 324.51 1212.94 326.79 1212.94C329.61 1212.94 330.69 1215.1 330.87 1217.02C329.91 1218.19 328.44 1218.88 326.94 1218.88ZM343.712 1232.5H346.472V1229.77C348.632 1229.47 350.042 1228.36 350.852 1227.22L348.362 1224.91C347.882 1225.57 347.252 1226.08 346.472 1226.32V1218.22C347.252 1218.43 347.882 1218.91 348.362 1219.6L350.852 1217.26C350.042 1216.15 348.632 1215.07 346.472 1214.74V1212.55H343.712V1214.77C339.992 1215.34 337.442 1218.28 337.442 1222.24C337.442 1226.23 339.992 1229.17 343.712 1229.74V1232.5ZM341.372 1222.24C341.372 1220.35 342.272 1218.94 343.712 1218.34V1226.17C342.272 1225.57 341.372 1224.13 341.372 1222.24ZM375.178 1229.5L369.268 1221.58L374.998 1215.01H370.318L364.828 1221.46V1209.49H361.018V1229.5H364.828V1225.78L366.568 1223.92L370.408 1229.5H375.178ZM396.202 1229.5L401.902 1209.49H397.102L393.622 1223.95L389.842 1209.49H386.512L382.702 1223.95L379.192 1209.49H374.422L380.152 1229.5H384.682L388.162 1215.76L391.672 1229.5H396.202ZM417.441 1229.5V1219.21C417.441 1216.39 415.911 1214.65 412.731 1214.65C410.361 1214.65 408.561 1215.79 407.631 1216.9V1209.49H403.821V1229.5H407.631V1219.75C408.291 1218.88 409.461 1218.04 410.931 1218.04C412.581 1218.04 413.631 1218.67 413.631 1220.68V1229.5H417.441Z" fill="#27252E"/>
          <path d="M485.848 1218.4C485.638 1218.19 485.39 1218.02 485.115 1217.91C484.841 1217.8 484.547 1217.74 484.25 1217.74C483.953 1217.74 483.659 1217.8 483.385 1217.91C483.111 1218.02 482.862 1218.19 482.653 1218.4L475.25 1225.83V1208.75C475.25 1208.15 475.013 1207.58 474.591 1207.16C474.169 1206.74 473.597 1206.5 473 1206.5C472.403 1206.5 471.831 1206.74 471.409 1207.16C470.987 1207.58 470.75 1208.15 470.75 1208.75V1225.83L463.348 1218.4C462.924 1217.98 462.349 1217.74 461.75 1217.74C461.151 1217.74 460.576 1217.98 460.153 1218.4C459.729 1218.83 459.491 1219.4 459.491 1220C459.491 1220.6 459.729 1221.17 460.153 1221.6L471.403 1232.85C471.617 1233.05 471.869 1233.21 472.145 1233.32C472.414 1233.44 472.706 1233.5 473 1233.5C473.295 1233.5 473.586 1233.44 473.855 1233.32C474.131 1233.21 474.384 1233.05 474.598 1232.85L485.848 1221.6C486.058 1221.39 486.226 1221.14 486.34 1220.87C486.454 1220.59 486.513 1220.3 486.513 1220C486.513 1219.7 486.454 1219.41 486.34 1219.13C486.226 1218.86 486.058 1218.61 485.848 1218.4Z" fill="#89B027"/>
          <rect opacity="0.1" y="1276" width="500" height="4" fill="#27252E"/>
          <path d="M59.6699 1328.65C59.4206 1328.16 59.0392 1327.74 58.5679 1327.45C58.0967 1327.16 57.554 1327 57 1327H42V1309C42.0321 1308.34 41.8469 1307.69 41.4728 1307.15C41.0987 1306.61 40.5565 1306.2 39.93 1306C39.3276 1305.8 38.678 1305.8 38.0743 1305.99C37.4707 1306.19 36.944 1306.57 36.57 1307.08L12.57 1340.08C12.2692 1340.51 12.0887 1341.02 12.0465 1341.55C12.0044 1342.07 12.1022 1342.6 12.33 1343.08C12.5397 1343.63 12.9041 1344.1 13.3784 1344.44C13.8527 1344.78 14.4163 1344.97 15 1345H29.9999V1363C30.0004 1363.63 30.2009 1364.25 30.5726 1364.76C30.9444 1365.27 31.4685 1365.65 32.0699 1365.85C32.3714 1365.94 32.6844 1365.99 32.9999 1366C33.4733 1366 33.9402 1365.89 34.3626 1365.68C34.7849 1365.46 35.1507 1365.15 35.43 1364.77L59.4299 1331.77C59.7532 1331.32 59.9466 1330.79 59.989 1330.24C60.0313 1329.69 59.9209 1329.14 59.6699 1328.65Z" fill="#20A5D6"/>
          <g clip-path="url(#clip11_677:14564)">
            <rect opacity="0.1" x="98.9996" y="1300" width="4" height="68" fill="#27252E"/>
            <rect opacity="0.1" x="98.9996" y="1368" width="147" height="4" fill="#27252E"/>
            <path d="M113.274 1299.98C113.274 1343.26 121.127 1345.27 138.241 1345.27C138.241 1346.93 138.241 1349.36 138.241 1349.36L165.19 1350.12L165.19 1358.42C165.19 1358.42 188.945 1354.85 217.937 1354.85C217.937 1352.93 217.937 1350.76 217.937 1350.76L245.523 1350.76" stroke="#20A5D6" stroke-width="5"/>
          </g>
          <path d="M286.262 1345.5V1325.49H282.542L276.242 1331.82L278.672 1334.37L282.002 1330.98V1345.5H286.262ZM300.753 1345.86C305.583 1345.86 308.763 1343.19 308.763 1338.93C308.763 1334.88 305.733 1332.45 302.343 1332.45C300.513 1332.45 298.893 1333.17 297.933 1334.13V1329.24H307.413V1325.49H293.673V1336.98L296.643 1337.76C297.843 1336.62 299.193 1336.14 300.843 1336.14C303.123 1336.14 304.443 1337.34 304.443 1339.11C304.443 1340.73 303.093 1342.08 300.723 1342.08C298.623 1342.08 296.763 1341.3 295.413 1339.89L293.043 1342.86C294.753 1344.72 297.273 1345.86 300.753 1345.86ZM313.955 1345.83C315.275 1345.83 316.385 1344.72 316.385 1343.4C316.385 1342.08 315.275 1340.97 313.955 1340.97C312.635 1340.97 311.525 1342.08 311.525 1343.4C311.525 1344.72 312.635 1345.83 313.955 1345.83ZM331.32 1345.5V1325.49H327.6L321.3 1331.82L323.73 1334.37L327.06 1330.98V1345.5H331.32ZM343.712 1348.5H346.472V1345.77C348.632 1345.47 350.042 1344.36 350.852 1343.22L348.362 1340.91C347.882 1341.57 347.252 1342.08 346.472 1342.32V1334.22C347.252 1334.43 347.882 1334.91 348.362 1335.6L350.852 1333.26C350.042 1332.15 348.632 1331.07 346.472 1330.74V1328.55H343.712V1330.77C339.992 1331.34 337.442 1334.28 337.442 1338.24C337.442 1342.23 339.992 1345.17 343.712 1345.74V1348.5ZM341.372 1338.24C341.372 1336.35 342.272 1334.94 343.712 1334.34V1342.17C342.272 1341.57 341.372 1340.13 341.372 1338.24ZM375.178 1345.5L369.268 1337.58L374.998 1331.01H370.318L364.828 1337.46V1325.49H361.018V1345.5H364.828V1341.78L366.568 1339.92L370.408 1345.5H375.178ZM396.202 1345.5L401.902 1325.49H397.102L393.622 1339.95L389.842 1325.49H386.512L382.702 1339.95L379.192 1325.49H374.422L380.152 1345.5H384.682L388.162 1331.76L391.672 1345.5H396.202ZM417.441 1345.5V1335.21C417.441 1332.39 415.911 1330.65 412.731 1330.65C410.361 1330.65 408.561 1331.79 407.631 1332.9V1325.49H403.821V1345.5H407.631V1335.75C408.291 1334.88 409.461 1334.04 410.931 1334.04C412.581 1334.04 413.631 1334.67 413.631 1336.68V1345.5H417.441Z" fill="#27252E"/>
          <path d="M485.848 1334.4L474.598 1323.15C474.384 1322.95 474.131 1322.79 473.855 1322.68C473.307 1322.45 472.693 1322.45 472.145 1322.68C471.869 1322.79 471.617 1322.95 471.403 1323.15L460.153 1334.4C459.943 1334.61 459.776 1334.86 459.663 1335.14C459.549 1335.41 459.491 1335.7 459.491 1336C459.491 1336.6 459.729 1337.17 460.153 1337.6C460.576 1338.02 461.151 1338.26 461.75 1338.26C462.349 1338.26 462.924 1338.02 463.348 1337.6L470.75 1330.17V1347.25C470.75 1347.85 470.987 1348.42 471.409 1348.84C471.831 1349.26 472.403 1349.5 473 1349.5C473.597 1349.5 474.169 1349.26 474.591 1348.84C475.013 1348.42 475.25 1347.85 475.25 1347.25V1330.17L482.653 1337.6C482.862 1337.81 483.111 1337.98 483.385 1338.09C483.659 1338.2 483.953 1338.26 484.25 1338.26C484.547 1338.26 484.841 1338.2 485.115 1338.09C485.39 1337.98 485.638 1337.81 485.848 1337.6C486.058 1337.39 486.226 1337.14 486.34 1336.87C486.454 1336.59 486.513 1336.3 486.513 1336C486.513 1335.7 486.454 1335.41 486.34 1335.13C486.226 1334.86 486.058 1334.61 485.848 1334.4Z" fill="#F47457"/>
          <rect opacity="0.1" y="1392" width="500" height="4" fill="#27252E"/>
          <path d="M59.6699 1444.65C59.4206 1444.16 59.0392 1443.74 58.5679 1443.45C58.0967 1443.16 57.554 1443 57 1443H42V1425C42.0321 1424.34 41.8469 1423.69 41.4728 1423.15C41.0987 1422.61 40.5565 1422.2 39.93 1422C39.3276 1421.8 38.678 1421.8 38.0743 1421.99C37.4707 1422.19 36.944 1422.57 36.57 1423.08L12.57 1456.08C12.2692 1456.51 12.0887 1457.02 12.0465 1457.55C12.0044 1458.07 12.1022 1458.6 12.33 1459.08C12.5397 1459.63 12.9041 1460.1 13.3784 1460.44C13.8527 1460.78 14.4163 1460.97 15 1461H29.9999V1479C30.0004 1479.63 30.2009 1480.25 30.5726 1480.76C30.9444 1481.27 31.4685 1481.65 32.0699 1481.85C32.3714 1481.94 32.6844 1481.99 32.9999 1482C33.4733 1482 33.9402 1481.89 34.3626 1481.68C34.7849 1481.46 35.1507 1481.15 35.43 1480.77L59.4299 1447.77C59.7532 1447.32 59.9466 1446.79 59.989 1446.24C60.0313 1445.69 59.9209 1445.14 59.6699 1444.65Z" fill="#E6B209"/>
          <g clip-path="url(#clip12_677:14564)">
            <rect opacity="0.1" x="98.9996" y="1416" width="4" height="68" fill="#27252E"/>
            <rect opacity="0.1" x="98.9996" y="1484" width="147" height="4" fill="#27252E"/>
            <path d="M113.848 1416.29C113.848 1450.64 135.041 1447.05 141.206 1447.05C141.206 1449.74 141.206 1451.79 141.206 1451.79L164.293 1451.79L164.293 1472.11C164.293 1472.11 181.19 1466.92 190.493 1466.92C190.493 1463.11 190.493 1460.28 190.493 1460.28L213.804 1457.82L213.804 1451.79L245.983 1451.79" stroke="#E6B209" stroke-width="5"/>
          </g>
          <path d="M286.262 1461.5V1441.49H282.542L276.242 1447.82L278.672 1450.37L282.002 1446.98V1461.5H286.262ZM304.953 1461.5V1441.49H301.233L294.933 1447.82L297.363 1450.37L300.693 1446.98V1461.5H304.953ZM313.955 1461.83C315.275 1461.83 316.385 1460.72 316.385 1459.4C316.385 1458.08 315.275 1456.97 313.955 1456.97C312.635 1456.97 311.525 1458.08 311.525 1459.4C311.525 1460.72 312.635 1461.83 313.955 1461.83ZM334.86 1461.5V1457.75H326.7C331.89 1453.97 334.71 1451 334.71 1447.58C334.71 1443.59 331.32 1441.19 327.06 1441.19C324.27 1441.19 321.3 1442.21 319.35 1444.46L321.78 1447.28C323.13 1445.87 324.87 1444.97 327.15 1444.97C328.8 1444.97 330.39 1445.84 330.39 1447.58C330.39 1450.04 327.99 1452.11 319.8 1458.17V1461.5H334.86ZM343.712 1464.5H346.472V1461.77C348.632 1461.47 350.042 1460.36 350.852 1459.22L348.362 1456.91C347.882 1457.57 347.252 1458.08 346.472 1458.32V1450.22C347.252 1450.43 347.882 1450.91 348.362 1451.6L350.852 1449.26C350.042 1448.15 348.632 1447.07 346.472 1446.74V1444.55H343.712V1446.77C339.992 1447.34 337.442 1450.28 337.442 1454.24C337.442 1458.23 339.992 1461.17 343.712 1461.74V1464.5ZM341.372 1454.24C341.372 1452.35 342.272 1450.94 343.712 1450.34V1458.17C342.272 1457.57 341.372 1456.13 341.372 1454.24ZM375.178 1461.5L369.268 1453.58L374.998 1447.01H370.318L364.828 1453.46V1441.49H361.018V1461.5H364.828V1457.78L366.568 1455.92L370.408 1461.5H375.178ZM396.202 1461.5L401.902 1441.49H397.102L393.622 1455.95L389.842 1441.49H386.512L382.702 1455.95L379.192 1441.49H374.422L380.152 1461.5H384.682L388.162 1447.76L391.672 1461.5H396.202ZM417.441 1461.5V1451.21C417.441 1448.39 415.911 1446.65 412.731 1446.65C410.361 1446.65 408.561 1447.79 407.631 1448.9V1441.49H403.821V1461.5H407.631V1451.75C408.291 1450.88 409.461 1450.04 410.931 1450.04C412.581 1450.04 413.631 1450.67 413.631 1452.68V1461.5H417.441Z" fill="#27252E"/>
          <path d="M485.848 1450.4L474.598 1439.15C474.384 1438.95 474.131 1438.79 473.855 1438.68C473.307 1438.45 472.693 1438.45 472.145 1438.68C471.869 1438.79 471.617 1438.95 471.403 1439.15L460.153 1450.4C459.943 1450.61 459.776 1450.86 459.663 1451.14C459.549 1451.41 459.491 1451.7 459.491 1452C459.491 1452.6 459.729 1453.17 460.153 1453.6C460.576 1454.02 461.151 1454.26 461.75 1454.26C462.349 1454.26 462.924 1454.02 463.348 1453.6L470.75 1446.17V1463.25C470.75 1463.85 470.987 1464.42 471.409 1464.84C471.831 1465.26 472.403 1465.5 473 1465.5C473.597 1465.5 474.169 1465.26 474.591 1464.84C475.013 1464.42 475.25 1463.85 475.25 1463.25V1446.17L482.653 1453.6C482.862 1453.81 483.111 1453.98 483.385 1454.09C483.659 1454.2 483.953 1454.26 484.25 1454.26C484.547 1454.26 484.841 1454.2 485.115 1454.09C485.39 1453.98 485.638 1453.81 485.848 1453.6C486.058 1453.39 486.226 1453.14 486.34 1452.87C486.454 1452.59 486.513 1452.3 486.513 1452C486.513 1451.7 486.454 1451.41 486.34 1451.13C486.226 1450.86 486.058 1450.61 485.848 1450.4Z" fill="#F47457"/>
          <rect opacity="0.1" y="1508" width="500" height="4" fill="#27252E"/>
          <path d="M59.6699 1560.65C59.4206 1560.16 59.0392 1559.74 58.5679 1559.45C58.0967 1559.16 57.554 1559 57 1559H42V1541C42.0321 1540.34 41.8469 1539.69 41.4728 1539.15C41.0987 1538.61 40.5565 1538.2 39.93 1538C39.3276 1537.8 38.678 1537.8 38.0743 1537.99C37.4707 1538.19 36.944 1538.57 36.57 1539.08L12.57 1572.08C12.2692 1572.51 12.0887 1573.02 12.0465 1573.55C12.0044 1574.07 12.1022 1574.6 12.33 1575.08C12.5397 1575.63 12.9041 1576.1 13.3784 1576.44C13.8527 1576.78 14.4163 1576.97 15 1577H29.9999V1595C30.0004 1595.63 30.2009 1596.25 30.5726 1596.76C30.9444 1597.27 31.4685 1597.65 32.0699 1597.85C32.3714 1597.94 32.6844 1597.99 32.9999 1598C33.4733 1598 33.9402 1597.89 34.3626 1597.68C34.7849 1597.46 35.1507 1597.15 35.43 1596.77L59.4299 1563.77C59.7532 1563.32 59.9466 1562.79 59.989 1562.24C60.0313 1561.69 59.9209 1561.14 59.6699 1560.65Z" fill="#7B61FF"/>
          <g clip-path="url(#clip13_677:14564)">
            <rect opacity="0.1" x="98.9996" y="1532" width="4" height="68" fill="#27252E"/>
            <rect opacity="0.1" x="98.9996" y="1600" width="147" height="4" fill="#27252E"/>
            <path d="M111 1579H119.935L120.942 1554H129.487L130.494 1579H143.702L144.709 1554H153.379L154.386 1579H168.097L169.104 1554H177.523L178.53 1579H191.234L192.619 1554H200.786L201.792 1579H215.881L216.888 1554H225.559L226.566 1579H246" stroke="#7B61FF" stroke-width="5"/>
          </g>
          <path d="M286.262 1577.5V1557.49H282.542L276.242 1563.82L278.672 1566.37L282.002 1562.98V1577.5H286.262ZM308.493 1577.5V1573.75H300.333C305.523 1569.97 308.343 1567 308.343 1563.58C308.343 1559.59 304.953 1557.19 300.693 1557.19C297.903 1557.19 294.933 1558.21 292.983 1560.46L295.413 1563.28C296.763 1561.87 298.503 1560.97 300.783 1560.97C302.433 1560.97 304.023 1561.84 304.023 1563.58C304.023 1566.04 301.623 1568.11 293.433 1574.17V1577.5H308.493ZM313.955 1577.83C315.275 1577.83 316.385 1576.72 316.385 1575.4C316.385 1574.08 315.275 1572.97 313.955 1572.97C312.635 1572.97 311.525 1574.08 311.525 1575.4C311.525 1576.72 312.635 1577.83 313.955 1577.83ZM332.67 1577.5V1573.36H335.25V1569.61H332.67V1557.49H326.79L318.84 1570V1573.36H328.41V1577.5H332.67ZM328.41 1569.61H323.01L328.41 1561.27V1569.61ZM343.712 1580.5H346.472V1577.77C348.632 1577.47 350.042 1576.36 350.852 1575.22L348.362 1572.91C347.882 1573.57 347.252 1574.08 346.472 1574.32V1566.22C347.252 1566.43 347.882 1566.91 348.362 1567.6L350.852 1565.26C350.042 1564.15 348.632 1563.07 346.472 1562.74V1560.55H343.712V1562.77C339.992 1563.34 337.442 1566.28 337.442 1570.24C337.442 1574.23 339.992 1577.17 343.712 1577.74V1580.5ZM341.372 1570.24C341.372 1568.35 342.272 1566.94 343.712 1566.34V1574.17C342.272 1573.57 341.372 1572.13 341.372 1570.24ZM375.178 1577.5L369.268 1569.58L374.998 1563.01H370.318L364.828 1569.46V1557.49H361.018V1577.5H364.828V1573.78L366.568 1571.92L370.408 1577.5H375.178ZM396.202 1577.5L401.902 1557.49H397.102L393.622 1571.95L389.842 1557.49H386.512L382.702 1571.95L379.192 1557.49H374.422L380.152 1577.5H384.682L388.162 1563.76L391.672 1577.5H396.202ZM417.441 1577.5V1567.21C417.441 1564.39 415.911 1562.65 412.731 1562.65C410.361 1562.65 408.561 1563.79 407.631 1564.9V1557.49H403.821V1577.5H407.631V1567.75C408.291 1566.88 409.461 1566.04 410.931 1566.04C412.581 1566.04 413.631 1566.67 413.631 1568.68V1577.5H417.441Z" fill="#27252E"/>
          <path d="M485.848 1566.4C485.638 1566.19 485.39 1566.02 485.115 1565.91C484.841 1565.8 484.547 1565.74 484.25 1565.74C483.953 1565.74 483.659 1565.8 483.385 1565.91C483.111 1566.02 482.862 1566.19 482.653 1566.4L475.25 1573.83V1556.75C475.25 1556.15 475.013 1555.58 474.591 1555.16C474.169 1554.74 473.597 1554.5 473 1554.5C472.403 1554.5 471.831 1554.74 471.409 1555.16C470.987 1555.58 470.75 1556.15 470.75 1556.75V1573.83L463.348 1566.4C462.924 1565.98 462.349 1565.74 461.75 1565.74C461.151 1565.74 460.576 1565.98 460.153 1566.4C459.729 1566.83 459.491 1567.4 459.491 1568C459.491 1568.6 459.729 1569.17 460.153 1569.6L471.403 1580.85C471.617 1581.05 471.869 1581.21 472.145 1581.32C472.414 1581.44 472.706 1581.5 473 1581.5C473.295 1581.5 473.586 1581.44 473.855 1581.32C474.131 1581.21 474.384 1581.05 474.598 1580.85L485.848 1569.6C486.058 1569.39 486.226 1569.14 486.34 1568.87C486.454 1568.59 486.513 1568.3 486.513 1568C486.513 1567.7 486.454 1567.41 486.34 1567.13C486.226 1566.86 486.058 1566.61 485.848 1566.4Z" fill="#89B027"/>
          <rect opacity="0.1" y="1624" width="500" height="4" fill="#27252E"/>
          <path d="M59.6699 1676.65C59.4206 1676.16 59.0392 1675.74 58.5679 1675.45C58.0967 1675.16 57.554 1675 57 1675H42V1657C42.0321 1656.34 41.8469 1655.69 41.4728 1655.15C41.0987 1654.61 40.5565 1654.2 39.93 1654C39.3276 1653.8 38.678 1653.8 38.0743 1653.99C37.4707 1654.19 36.944 1654.57 36.57 1655.08L12.57 1688.08C12.2692 1688.51 12.0887 1689.02 12.0465 1689.55C12.0044 1690.07 12.1022 1690.6 12.33 1691.08C12.5397 1691.63 12.9041 1692.1 13.3784 1692.44C13.8527 1692.78 14.4163 1692.97 15 1693H29.9999V1711C30.0004 1711.63 30.2009 1712.25 30.5726 1712.76C30.9444 1713.27 31.4685 1713.65 32.0699 1713.85C32.3714 1713.94 32.6844 1713.99 32.9999 1714C33.4733 1714 33.9402 1713.89 34.3626 1713.68C34.7849 1713.46 35.1507 1713.15 35.43 1712.77L59.4299 1679.77C59.7532 1679.32 59.9466 1678.79 59.989 1678.24C60.0313 1677.69 59.9209 1677.14 59.6699 1676.65Z" fill="#89B027"/>
          <g clip-path="url(#clip14_677:14564)">
            <rect opacity="0.1" x="98.9996" y="1648" width="4" height="68" fill="#27252E"/>
            <rect opacity="0.1" x="98.9996" y="1716" width="147" height="4" fill="#27252E"/>
            <path d="M112.843 1648.12C112.843 1699.12 144.301 1703.73 246.637 1703.73" stroke="#89B027" stroke-width="5"/>
          </g>
          <path d="M300.873 1693.5L308.313 1676.46V1673.49H293.283V1677.24H303.363L296.193 1693.5H300.873ZM313.955 1693.83C315.275 1693.83 316.385 1692.72 316.385 1691.4C316.385 1690.08 315.275 1688.97 313.955 1688.97C312.635 1688.97 311.525 1690.08 311.525 1691.4C311.525 1692.72 312.635 1693.83 313.955 1693.83ZM327.12 1693.86C331.95 1693.86 335.13 1691.19 335.13 1686.93C335.13 1682.88 332.1 1680.45 328.71 1680.45C326.88 1680.45 325.26 1681.17 324.3 1682.13V1677.24H333.78V1673.49H320.04V1684.98L323.01 1685.76C324.21 1684.62 325.56 1684.14 327.21 1684.14C329.49 1684.14 330.81 1685.34 330.81 1687.11C330.81 1688.73 329.46 1690.08 327.09 1690.08C324.99 1690.08 323.13 1689.3 321.78 1687.89L319.41 1690.86C321.12 1692.72 323.64 1693.86 327.12 1693.86ZM343.712 1696.5H346.472V1693.77C348.632 1693.47 350.042 1692.36 350.852 1691.22L348.362 1688.91C347.882 1689.57 347.252 1690.08 346.472 1690.32V1682.22C347.252 1682.43 347.882 1682.91 348.362 1683.6L350.852 1681.26C350.042 1680.15 348.632 1679.07 346.472 1678.74V1676.55H343.712V1678.77C339.992 1679.34 337.442 1682.28 337.442 1686.24C337.442 1690.23 339.992 1693.17 343.712 1693.74V1696.5ZM341.372 1686.24C341.372 1684.35 342.272 1682.94 343.712 1682.34V1690.17C342.272 1689.57 341.372 1688.13 341.372 1686.24ZM375.178 1693.5L369.268 1685.58L374.998 1679.01H370.318L364.828 1685.46V1673.49H361.018V1693.5H364.828V1689.78L366.568 1687.92L370.408 1693.5H375.178ZM396.202 1693.5L401.902 1673.49H397.102L393.622 1687.95L389.842 1673.49H386.512L382.702 1687.95L379.192 1673.49H374.422L380.152 1693.5H384.682L388.162 1679.76L391.672 1693.5H396.202ZM417.441 1693.5V1683.21C417.441 1680.39 415.911 1678.65 412.731 1678.65C410.361 1678.65 408.561 1679.79 407.631 1680.9V1673.49H403.821V1693.5H407.631V1683.75C408.291 1682.88 409.461 1682.04 410.931 1682.04C412.581 1682.04 413.631 1682.67 413.631 1684.68V1693.5H417.441Z" fill="#27252E"/>
          <path d="M485.848 1682.4C485.638 1682.19 485.39 1682.02 485.115 1681.91C484.841 1681.8 484.547 1681.74 484.25 1681.74C483.953 1681.74 483.659 1681.8 483.385 1681.91C483.111 1682.02 482.862 1682.19 482.653 1682.4L475.25 1689.83V1672.75C475.25 1672.15 475.013 1671.58 474.591 1671.16C474.169 1670.74 473.597 1670.5 473 1670.5C472.403 1670.5 471.831 1670.74 471.409 1671.16C470.987 1671.58 470.75 1672.15 470.75 1672.75V1689.83L463.348 1682.4C462.924 1681.98 462.349 1681.74 461.75 1681.74C461.151 1681.74 460.576 1681.98 460.153 1682.4C459.729 1682.83 459.491 1683.4 459.491 1684C459.491 1684.6 459.729 1685.17 460.153 1685.6L471.403 1696.85C471.617 1697.05 471.869 1697.21 472.145 1697.32C472.414 1697.44 472.706 1697.5 473 1697.5C473.295 1697.5 473.586 1697.44 473.855 1697.32C474.131 1697.21 474.384 1697.05 474.598 1696.85L485.848 1685.6C486.058 1685.39 486.226 1685.14 486.34 1684.87C486.454 1684.59 486.513 1684.3 486.513 1684C486.513 1683.7 486.454 1683.41 486.34 1683.13C486.226 1682.86 486.058 1682.61 485.848 1682.4Z" fill="#89B027"/>
          <rect opacity="0.1" y="1740" width="500" height="4" fill="#27252E"/>
          <path d="M59.6699 1792.65C59.4206 1792.16 59.0392 1791.74 58.5679 1791.45C58.0967 1791.16 57.554 1791 57 1791H42V1773C42.0321 1772.34 41.8469 1771.69 41.4728 1771.15C41.0987 1770.61 40.5565 1770.2 39.93 1770C39.3276 1769.8 38.678 1769.8 38.0743 1769.99C37.4707 1770.19 36.944 1770.57 36.57 1771.08L12.57 1804.08C12.2692 1804.51 12.0887 1805.02 12.0465 1805.55C12.0044 1806.07 12.1022 1806.6 12.33 1807.08C12.5397 1807.63 12.9041 1808.1 13.3784 1808.44C13.8527 1808.78 14.4163 1808.97 15 1809H29.9999V1827C30.0004 1827.63 30.2009 1828.25 30.5726 1828.76C30.9444 1829.27 31.4685 1829.65 32.0699 1829.85C32.3714 1829.94 32.6844 1829.99 32.9999 1830C33.4733 1830 33.9402 1829.89 34.3626 1829.68C34.7849 1829.46 35.1507 1829.15 35.43 1828.77L59.4299 1795.77C59.7532 1795.32 59.9466 1794.79 59.989 1794.24C60.0313 1793.69 59.9209 1793.14 59.6699 1792.65Z" fill="#20A5D6"/>
          <g clip-path="url(#clip15_677:14564)">
            <rect opacity="0.1" x="98.9996" y="1764" width="4" height="68" fill="#27252E"/>
            <rect opacity="0.1" x="98.9996" y="1832" width="147" height="4" fill="#27252E"/>
            <path d="M113.274 1762.98C113.274 1806.26 121.127 1808.27 138.241 1808.27C141 1808.27 165.19 1808.27 165.19 1808.27L165.19 1813.12L165.19 1821.42C165.19 1821.42 188.945 1817.85 217.937 1817.85C217.937 1815.93 217.937 1813.76 217.937 1813.76L245.523 1813.76" stroke="#20A5D6" stroke-width="5"/>
          </g>
          <path d="M286.262 1809.5V1789.49H282.542L276.242 1795.82L278.672 1798.37L282.002 1794.98V1809.5H286.262ZM299.523 1809.83C305.433 1809.83 308.823 1805.54 308.823 1799.51C308.823 1793.84 306.273 1789.16 300.213 1789.16C295.653 1789.16 292.533 1792.13 292.533 1796.03C292.533 1800.29 295.773 1802.54 299.373 1802.54C301.563 1802.54 303.573 1801.31 304.533 1799.96C304.533 1800.11 304.533 1800.26 304.533 1800.41C304.533 1803.29 302.823 1806.05 299.523 1806.05C297.753 1806.05 296.613 1805.51 295.533 1804.49L293.643 1807.76C295.053 1809.02 297.093 1809.83 299.523 1809.83ZM300.573 1798.88C298.713 1798.88 296.883 1797.98 296.883 1795.88C296.883 1794.5 298.143 1792.94 300.423 1792.94C303.243 1792.94 304.323 1795.1 304.503 1797.02C303.543 1798.19 302.073 1798.88 300.573 1798.88ZM313.955 1809.83C315.275 1809.83 316.385 1808.72 316.385 1807.4C316.385 1806.08 315.275 1804.97 313.955 1804.97C312.635 1804.97 311.525 1806.08 311.525 1807.4C311.525 1808.72 312.635 1809.83 313.955 1809.83ZM327.12 1809.86C331.32 1809.86 335.16 1808.03 335.16 1804.31C335.16 1801.88 333.24 1800.02 330.84 1799.18C333.06 1798.4 334.83 1796.96 334.83 1794.47C334.83 1790.72 330.81 1789.19 327.12 1789.19C323.4 1789.19 319.41 1790.72 319.41 1794.47C319.41 1796.96 321.15 1798.4 323.37 1799.18C320.97 1800.02 319.08 1801.88 319.08 1804.31C319.08 1808.06 322.92 1809.86 327.12 1809.86ZM327.12 1797.5C325.89 1797.32 323.73 1796.63 323.73 1795.13C323.73 1793.69 325.14 1792.85 327.12 1792.85C329.07 1792.85 330.48 1793.69 330.48 1795.13C330.48 1796.63 328.35 1797.32 327.12 1797.5ZM327.12 1806.2C325.02 1806.2 323.4 1805.24 323.4 1803.77C323.4 1802.09 325.86 1801.28 327.12 1801.1C328.35 1801.28 330.84 1802.09 330.84 1803.77C330.84 1805.24 329.16 1806.2 327.12 1806.2ZM343.712 1812.5H346.472V1809.77C348.632 1809.47 350.042 1808.36 350.852 1807.22L348.362 1804.91C347.882 1805.57 347.252 1806.08 346.472 1806.32V1798.22C347.252 1798.43 347.882 1798.91 348.362 1799.6L350.852 1797.26C350.042 1796.15 348.632 1795.07 346.472 1794.74V1792.55H343.712V1794.77C339.992 1795.34 337.442 1798.28 337.442 1802.24C337.442 1806.23 339.992 1809.17 343.712 1809.74V1812.5ZM341.372 1802.24C341.372 1800.35 342.272 1798.94 343.712 1798.34V1806.17C342.272 1805.57 341.372 1804.13 341.372 1802.24ZM375.178 1809.5L369.268 1801.58L374.998 1795.01H370.318L364.828 1801.46V1789.49H361.018V1809.5H364.828V1805.78L366.568 1803.92L370.408 1809.5H375.178ZM396.202 1809.5L401.902 1789.49H397.102L393.622 1803.95L389.842 1789.49H386.512L382.702 1803.95L379.192 1789.49H374.422L380.152 1809.5H384.682L388.162 1795.76L391.672 1809.5H396.202ZM417.441 1809.5V1799.21C417.441 1796.39 415.911 1794.65 412.731 1794.65C410.361 1794.65 408.561 1795.79 407.631 1796.9V1789.49H403.821V1809.5H407.631V1799.75C408.291 1798.88 409.461 1798.04 410.931 1798.04C412.581 1798.04 413.631 1798.67 413.631 1800.68V1809.5H417.441Z" fill="#27252E"/>
          <path d="M485.848 1798.4L474.598 1787.15C474.384 1786.95 474.131 1786.79 473.855 1786.68C473.307 1786.45 472.693 1786.45 472.145 1786.68C471.869 1786.79 471.617 1786.95 471.403 1787.15L460.153 1798.4C459.943 1798.61 459.776 1798.86 459.663 1799.14C459.549 1799.41 459.491 1799.7 459.491 1800C459.491 1800.6 459.729 1801.17 460.153 1801.6C460.576 1802.02 461.151 1802.26 461.75 1802.26C462.349 1802.26 462.924 1802.02 463.348 1801.6L470.75 1794.17V1811.25C470.75 1811.85 470.987 1812.42 471.409 1812.84C471.831 1813.26 472.403 1813.5 473 1813.5C473.597 1813.5 474.169 1813.26 474.591 1812.84C475.013 1812.42 475.25 1811.85 475.25 1811.25V1794.17L482.653 1801.6C482.862 1801.81 483.111 1801.98 483.385 1802.09C483.659 1802.2 483.953 1802.26 484.25 1802.26C484.547 1802.26 484.841 1802.2 485.115 1802.09C485.39 1801.98 485.638 1801.81 485.848 1801.6C486.058 1801.39 486.226 1801.14 486.34 1800.87C486.454 1800.59 486.513 1800.3 486.513 1800C486.513 1799.7 486.454 1799.41 486.34 1799.13C486.226 1798.86 486.058 1798.61 485.848 1798.4Z" fill="#F47457"/>
        </g>
      </g>
    </g>
  </g>
  <style>
    @media (prefers-reduced-motion: no-preference) {
      @keyframes ticker {
        from {transform: translateY(0);}
        to   {transform: translateY(-928px);}
      }
      .contracts {
        animation: ticker 15000ms linear 1000ms infinite;
      }
    }
  </style>
</svg>
