<svg xmlns="http://www.w3.org/2000/svg" viewBox="0 0 2850 1664" fill="none">
  <path fill-rule="evenodd" clip-rule="evenodd" d="M1485 900H285V1000C285 1033.14 553.629 1060 885 1060C1216.37 1060 1485 1033.14 1485 1000V900Z" fill="#27252E" />
  <ellipse cx="885" cy="900" rx="600" ry="60" fill="#3A3842" />
  <mask id="mask0" style="mask-type:alpha" maskUnits="userSpaceOnUse" x="465" y="875" width="840" height="51">
    <ellipse cx="885" cy="900" rx="420" ry="25" fill="white" />
  </mask>
  <g mask="url(#mask0)">
    <ellipse cx="885" cy="900" rx="420" ry="25" fill="#27252E" />
    <ellipse cx="885" cy="920" rx="420" ry="25" fill="#D1F0DB" />
  </g>
  <path fill-rule="evenodd" clip-rule="evenodd" d="M1073.86 319.352C1038.93 300.689 1005.52 277.143 970.946 256.117C960.103 249.519 950.705 255.409 958.613 266.841C978.922 296.411 1006.69 330.237 1039.45 360.273C1092.58 409.131 1153.27 361.72 1073.86 319.352ZM739.411 408.967C760.381 375.326 777.428 338.26 796.858 302.764C802.949 291.628 814.09 292.015 813.016 305.854C810.155 341.632 803.023 384.809 789.728 427.185C768.03 496.093 691.763 485.38 739.411 408.967ZM776.384 157.473C731.24 202.496 664.505 246.805 611.122 299.984C430.076 480.387 563.042 665.865 724.49 396.532C871.614 151.087 832.886 163.303 1080.79 301.062C1355.26 453.531 1377.74 226.46 1130.69 160.765C1057.93 141.387 977.982 136.381 916.317 119.978C906.334 117.502 900.494 124.769 907.094 131.095C917.476 141.005 931.874 150.576 950.015 157.181L1206.69 264.507C1209.51 265.652 1210.87 268.905 1209.72 271.725C1208.64 274.531 1205.34 275.965 1202.51 274.763L945.007 173.729C908.612 158.955 887.695 141.075 876.33 125.664C864.981 110.31 857.532 77.4784 864.576 58.913C867.082 52.4777 869.78 46.2977 872.714 40.5447C878.736 28.6915 885.629 18.2602 893.099 8.83925C894.943 6.56702 894.584 3.16815 892.312 1.32434C889.925 -0.488844 886.599 -0.0880865 884.755 2.18415C876.835 12.2161 869.477 23.2011 863.193 35.6766C834.643 91.8279 819.517 83.4336 780.24 57.9038C768.561 50.2417 756.753 44.3919 744.821 39.6792C742.088 38.6333 739.007 39.9494 737.904 42.6976C736.858 45.4305 738.19 48.5688 740.923 49.6147C752.16 54.023 763.288 59.6256 774.486 66.8648C779.904 70.3798 785.33 74.383 790.719 78.7029C806.044 91.2746 816.01 123.432 813.915 142.388C811.778 161.417 802.546 187.375 778.471 218.352L605.987 434.6C604.075 437.075 600.619 437.449 598.16 435.594C595.758 433.723 595.311 430.225 597.239 427.808L765.86 206.525C778.211 191.75 786.009 176.232 789.987 162.473C792.483 153.711 783.792 150.337 776.384 157.473Z" fill="#27252E" />
  <path fill-rule="evenodd" clip-rule="evenodd" d="M885.28 473.073C881.733 474.023 878.912 476.312 877.252 479.271L877.195 479.286C875.52 482.188 874.963 485.832 875.914 489.379C876.864 492.926 879.153 495.746 882.112 497.406C885.029 499.139 888.615 499.71 892.162 498.76C895.709 497.81 898.316 495.639 900.007 492.795C901.766 489.748 902.349 485.975 901.581 482.195C898.087 466.637 900.94 468.816 885.28 473.073ZM979.732 447.765C983.336 446.799 986.98 447.355 989.897 449.088L989.954 449.073C992.856 450.748 995.16 453.625 996.11 457.172C997.061 460.719 996.489 464.306 994.756 467.223C993.096 470.182 990.219 472.486 986.615 473.452C983.182 474.371 979.782 473.811 976.896 472.193C973.849 470.434 971.515 467.442 970.289 463.784C965.479 448.579 964.098 451.892 979.732 447.765ZM945.799 443.551C950.032 442.417 949.679 441.101 948.553 437.356C927.043 369.663 905.574 301.897 884.048 234.146C878.46 216.268 857.308 221.997 861.393 240.217C876.626 309.653 891.973 379.06 907.191 448.439C908.031 452.261 908.441 453.561 912.56 452.458C923.701 449.411 934.685 446.468 945.799 443.551ZM826.801 508.609C845.098 562.018 894.875 581.424 942.748 575.647C949.557 574.743 952.078 576.827 953.896 579.037C960.499 587.201 971.318 583.873 973.389 573.753C974.046 570.94 975.603 567.825 982.577 564.791C1026.25 545.61 1058.99 504.214 1048.31 449.254C1038.2 398.006 981.106 343.281 951.821 292.571C938.177 268.88 926.737 248.154 915.286 236.997C905.515 227.536 897.189 233.078 900.831 244.61C920.784 307.632 940.778 370.581 960.746 433.66C962.17 438.061 962.446 439.091 966.909 437.895C970.071 437.109 973.331 436.235 976.421 435.408C983.4 433.537 990.502 434.639 996.305 437.99C1002.11 441.34 1006.61 446.939 1008.47 453.861C1010.34 460.841 1009.22 467.885 1005.87 473.688C1002.5 479.434 996.921 483.996 989.941 485.866C983.076 487.705 976.261 486.527 970.488 483.291L970.473 483.234C964.8 479.91 960.268 474.441 958.07 467.61C957.159 464.666 956.247 461.722 955.294 458.85C954.275 455.506 953.057 454.851 949.438 455.759C938.11 458.795 926.954 461.784 915.57 464.834C912.038 465.842 911.254 467.033 912.044 470.439C912.654 473.403 913.337 476.408 914.019 479.414C915.588 486.413 914.398 493.415 911.09 499.146L911.105 499.203C907.839 504.861 902.411 509.319 895.489 511.174C888.567 513.029 881.507 511.855 875.662 508.577C869.859 505.227 865.427 499.669 863.557 492.69C861.702 485.768 862.746 478.682 866.097 472.879C869.504 467.06 875.046 462.571 881.969 460.716C885.172 459.857 888.376 458.999 891.564 458.083C895.969 456.903 895.751 455.858 894.727 451.35C880.537 386.723 866.378 322.21 852.089 257.671C849.477 245.862 839.496 245.225 835.765 258.304C831.427 273.692 831.882 297.361 831.911 324.7C831.905 383.259 809.807 459.143 826.801 508.609Z" fill="white" />
  <path class="beam" opacity="0.7" fill-rule="evenodd" clip-rule="evenodd" d="M1505 195H275L465 900C465 913.807 653.04 925 885 925C1116.96 925 1305 913.807 1305 900L1505 195Z" fill="url(#paint0_linear)" />
  <path d="M899.995 1060C899.998 1060.33 900 1060.67 900 1061V1227C900 1282.23 855.228 1327 800 1327H310V1297H800C838.66 1297 870 1265.66 870 1227V1061C870 1060.67 869.998 1060.33 869.993 1060H899.995Z" fill="#D1F0DB" />
  <path d="M0.00489656 1664C0.00163471 1663.67 0 1663.33 0 1663V1397C0 1341.77 44.7715 1297 100 1297H740V1327H100C61.3401 1327 30 1358.34 30 1397V1663C30 1663.33 30.0023 1663.67 30.007 1664H0.00489656Z" fill="#D1F0DB" />
  <path d="M870.005 1060C870.002 1060.33 870 1060.67 870 1061V1227C870 1282.23 914.772 1327 970 1327H2850V1297H970C931.34 1297 900 1265.66 900 1227V1061C900 1060.67 900.002 1060.33 900.007 1060H870.005Z" fill="#3A3842" />
  <path d="M911.849 1001.78C911.567 1001.22 911.136 1000.75 910.603 1000.42C910.071 1000.09 909.457 999.912 908.831 999.91H891.873V979.561C891.91 978.818 891.7 978.082 891.277 977.47C890.854 976.857 890.241 976.4 889.533 976.17C888.852 975.946 888.118 975.943 887.435 976.163C886.753 976.382 886.157 976.812 885.735 977.391L858.603 1014.7C858.263 1015.19 858.058 1015.76 858.011 1016.36C857.963 1016.95 858.074 1017.55 858.331 1018.09C858.568 1018.71 858.98 1019.24 859.516 1019.62C860.053 1020.01 860.69 1020.23 861.35 1020.26H878.307V1040.61C878.308 1041.32 878.534 1042.02 878.955 1042.6C879.375 1043.18 879.967 1043.61 880.647 1043.83C880.988 1043.94 881.342 1043.99 881.699 1044C882.234 1044 882.762 1043.88 883.239 1043.63C883.717 1043.39 884.13 1043.04 884.446 1042.61L911.578 1005.3C911.943 1004.8 912.162 1004.2 912.21 1003.58C912.258 1002.96 912.133 1002.33 911.849 1001.78Z" fill="#D1F0DB" />
  <defs>
    <linearGradient id="paint0_linear" x1="890" y1="195" x2="890" y2="900" gradientUnits="userSpaceOnUse">
      <stop stop-color="white" stop-opacity="0" />
      <stop offset="1" stop-color="white" />
    </linearGradient>
  </defs>
  <style>
    @keyframes fade {
      0%   {opacity: 0.7;}
      50%  {opacity: 0.4;}
      100% {opacity: 0.7;}
    }
    @media (prefers-reduced-motion: no-preference) {
      .beam {
        animation: fade 3500ms ease-in-out 0s infinite;
      }
    }
  </style>
</svg>
