<svg xmlns="http://www.w3.org/2000/svg" viewBox="0 0 68 68" fill="none">
  <path
    fill-rule="evenodd"
    clip-rule="evenodd"
    d="M46.1418 19.8508C41.8892 19.9909 37.5219 19.5962 33.1675 19.4943C31.7987 19.4625 31.2385 20.5129 32.5881 21.1559C36.0768 22.8175 40.4759 24.4727 45.1423 25.5104C52.7118 27.1975 55.8185 19.5198 46.1418 19.8508ZM19.8239 46.1624C19.9767 41.9162 19.5756 37.5426 19.4737 33.1944C19.4419 31.8257 20.4987 31.2655 21.1289 32.6151C22.7969 36.1038 24.4521 40.5029 25.4898 45.1629C27.1768 52.7387 19.4992 55.8327 19.8239 46.1624ZM9.7525 20.7676C7.97632 27.3884 4.13749 35.0979 2.03027 42.9157C-5.13172 69.4437 17.2137 79.5596 17.7739 45.8123C18.2769 15.0507 15.3229 18.272 45.8108 17.7755C79.5581 17.2216 69.4358 -5.13021 42.9141 2.03179C35.0964 4.13901 27.3869 7.97147 20.7724 9.76038C19.7093 10.0596 19.5501 11.0527 20.505 11.2883C22.0011 11.6575 23.86 11.7657 25.9036 11.4092L55.5575 7.60223C55.8821 7.55767 56.1877 7.78685 56.2323 8.11153C56.2832 8.44257 56.054 8.74179 55.7293 8.79272L26.3301 13.2172C22.1348 13.7966 19.2318 13.2618 17.3538 12.4342C15.4694 11.6193 13.012 8.96461 12.6682 6.85739C12.5536 6.11891 12.4772 5.39952 12.439 4.7056C12.3563 3.27957 12.439 1.94267 12.6364 0.656693C12.681 0.351112 12.4645 0.0518951 12.1526 0.00733185C11.8343 -0.0435944 11.5414 0.179222 11.4968 0.484802C11.2931 1.84717 11.2104 3.26684 11.2868 4.7629C11.6496 11.5238 9.7907 11.5557 4.76775 11.2883C3.26532 11.2055 1.84565 11.2946 0.489648 11.4984C0.177703 11.5429 -0.0387499 11.8358 0.00581367 12.1541C0.0567434 12.466 0.349591 12.6825 0.65517 12.6315C1.94751 12.4406 3.28442 12.3642 4.70409 12.4342C5.40437 12.4724 6.12375 12.5552 6.85587 12.6697C8.96309 13.0135 11.6178 15.4709 12.439 17.3489C13.2603 19.2333 13.8014 22.1427 13.2221 26.3253L8.7912 55.7245C8.74664 56.0555 8.43469 56.2847 8.11001 56.2338C7.7917 56.1892 7.55615 55.89 7.60072 55.559L11.4077 25.9051C11.7706 23.8552 11.656 21.9963 11.2868 20.5066C11.0512 19.5516 10.0644 19.7108 9.7525 20.7676Z"
    fill="#27252E"
  />
  <path
    fill-rule="evenodd"
    clip-rule="evenodd"
    d="M36.8602 44.2927C36.5801 44.5728 36.4464 44.9421 36.4464 45.3049L36.44 45.3113C36.44 45.6742 36.5801 46.0371 36.8602 46.3172C37.1403 46.5973 37.5096 46.7373 37.8661 46.7373C38.2353 46.7373 38.5982 46.5973 38.8783 46.3172C39.1521 46.0434 39.2857 45.6933 39.2857 45.3431H39.2921C39.2857 44.9612 39.1393 44.5792 38.8592 44.2736C37.7069 43.0067 38.0889 43.0577 36.8602 44.2927ZM44.296 36.8633C44.5697 36.5832 44.9453 36.4432 45.3018 36.4432C45.6711 36.4432 46.0339 36.5832 46.3141 36.8633C46.5942 37.1371 46.7342 37.5063 46.7342 37.8692C46.7342 38.2384 46.5942 38.6013 46.3077 38.8814C46.0403 39.1552 45.6902 39.2889 45.34 39.2889C44.958 39.2889 44.5824 39.1424 44.2705 38.8623C43.01 37.7037 43.0545 38.092 44.296 36.8633ZM40.9028 38.2894C41.2402 37.9647 41.132 37.8565 40.8264 37.5763C35.1859 32.4261 29.5518 27.2694 23.905 22.1192C22.4153 20.7568 20.76 22.4311 22.1224 23.9081C27.2727 29.5485 32.423 35.189 37.5732 40.8295C37.8533 41.1351 37.9616 41.2369 38.2926 40.9059C39.1648 40.0273 40.0242 39.1679 40.9028 38.2894ZM33.3206 50.7544C37.8979 54.7397 43.5766 53.8675 47.721 50.7544C48.313 50.3024 48.6568 50.3661 48.9369 50.4743C49.9937 50.8817 50.815 49.9905 50.4712 48.9337C50.3757 48.6408 50.3566 48.2652 50.8341 47.6095C53.8835 43.4715 54.7047 37.8565 50.7513 33.3237C47.0589 29.0838 38.8019 27.0657 33.3524 23.9144C30.8059 22.4502 28.6287 21.126 26.9607 20.7059C25.5474 20.3494 25.0636 21.317 26.0249 22.1956C31.2707 26.983 36.5101 31.7767 41.7622 36.5705C42.1314 36.9079 42.2206 36.9843 42.5644 36.6405C42.819 36.3859 43.0736 36.1376 43.3219 35.8893C43.8758 35.3354 44.5888 35.0617 45.3018 35.0617V35.0681C46.0212 35.0681 46.747 35.3418 47.2945 35.8893C47.8419 36.4368 48.1157 37.1498 48.1157 37.8692C48.1157 38.5886 47.8419 39.308 47.2945 39.8555C46.747 40.4029 46.0467 40.664 45.34 40.664C44.627 40.664 43.9076 40.3966 43.3474 39.8746C43.0991 39.6517 42.8508 39.4289 42.6089 39.2061C42.3288 38.9514 42.1824 38.9578 41.9023 39.2379C41.0046 40.1292 40.1325 41.0077 39.2348 41.9054C38.9547 42.1855 38.9483 42.3319 39.203 42.612C39.4258 42.8539 39.6486 43.0959 39.8778 43.3441C40.3935 43.9107 40.6672 44.6301 40.6672 45.3368V45.3431C40.6672 46.0434 40.4062 46.7501 39.8587 47.2912C39.3112 47.8387 38.5855 48.1124 37.8661 48.1124C37.1531 48.1124 36.4337 47.8451 35.8862 47.2912C35.3387 46.7437 35.0649 46.0243 35.0649 45.3113C35.0649 45.3049 35.0649 45.3049 35.0649 45.3113C35.0649 44.5856 35.3387 43.8725 35.8862 43.3187H35.8926C36.1408 43.0704 36.3891 42.8221 36.6374 42.5675C36.9875 42.2237 36.9048 42.1282 36.5674 41.7653C31.7736 36.5132 26.9862 31.2738 22.1861 26.0217C21.3203 25.0667 20.3462 25.5506 20.7091 26.9639C21.1229 28.6318 22.4471 30.8091 23.9177 33.3555C27.0626 38.805 29.0871 47.062 33.3206 50.7544Z"
    fill="#E6B209"
  />
</svg>
