<svg viewBox="0 0 68 68" fill="none"
  xmlns="http://www.w3.org/2000/svg">
  <path fill-rule="evenodd" clip-rule="evenodd" d="M 43.9 29.124 C 40.541 29.238 37.091 28.924 33.649 28.842 C 32.568 28.816 32.122 29.648 33.192 30.158 C 35.95 31.47 39.425 32.777 43.112 33.596 C 49.092 34.932 51.546 28.862 43.9 29.124 Z M 23.105 49.915 C 23.228 46.562 22.908 43.106 22.828 39.669 C 22.802 38.588 23.639 38.143 24.137 39.211 C 25.456 41.968 26.762 45.444 27.58 49.126 C 28.914 55.112 22.849 57.555 23.105 49.915 Z M 15.146 29.849 C 13.744 35.081 10.711 41.172 9.046 47.351 C 3.387 68.314 21.04 76.304 21.486 49.639 C 21.881 25.332 19.548 27.877 43.637 27.485 C 70.305 27.049 62.307 9.388 41.351 15.046 C 35.173 16.712 29.081 19.738 23.853 21.153 C 23.014 21.388 22.889 22.172 23.644 22.358 C 24.825 22.65 26.295 22.736 27.91 22.456 L 51.34 19.445 C 51.598 19.411 51.837 19.593 51.873 19.849 C 51.917 20.112 51.735 20.347 51.477 20.388 L 28.245 23.883 C 24.932 24.341 22.637 23.919 21.153 23.264 C 19.664 22.62 17.723 20.523 17.45 18.859 C 17.36 18.275 17.299 17.708 17.271 17.159 C 17.206 16.031 17.271 14.973 17.425 13.957 C 17.462 13.718 17.291 13.481 17.044 13.445 C 16.791 13.407 16.56 13.581 16.524 13.823 C 16.363 14.899 16.298 16.021 16.358 17.204 C 16.647 22.544 15.178 22.571 11.207 22.358 C 10.021 22.294 8.901 22.363 7.829 22.524 C 7.583 22.559 7.41 22.793 7.446 23.044 C 7.485 23.289 7.716 23.46 7.958 23.421 C 8.98 23.269 10.037 23.21 11.157 23.264 C 11.711 23.294 12.279 23.36 12.858 23.449 C 14.523 23.722 16.62 25.662 17.271 27.149 C 17.92 28.637 18.346 30.934 17.888 34.24 L 14.388 57.473 C 14.353 57.733 14.106 57.915 13.849 57.874 C 13.596 57.839 13.411 57.602 13.445 57.341 L 16.455 33.908 C 16.74 32.29 16.651 30.821 16.358 29.644 C 16.175 28.887 15.394 29.014 15.146 29.849 Z" fill="#D1F0DB" style="" transform="matrix(0.707107, 0.707107, -0.707107, 0.707107, 38.242494, -12.325614)"/>
  <path fill-rule="evenodd" clip-rule="evenodd" d="M 33.867 49.558 C 33.648 49.777 33.54 50.071 33.54 50.357 L 33.536 50.364 C 33.536 50.65 33.648 50.935 33.867 51.158 C 34.09 51.38 34.381 51.488 34.663 51.488 C 34.955 51.488 35.24 51.38 35.463 51.158 C 35.679 50.94 35.783 50.664 35.783 50.388 L 35.789 50.388 C 35.783 50.086 35.668 49.783 35.448 49.543 C 34.536 48.541 34.84 48.58 33.867 49.558 Z M 39.744 43.687 C 39.96 43.466 40.257 43.356 40.538 43.356 C 40.831 43.356 41.117 43.466 41.339 43.687 C 41.559 43.905 41.67 44.197 41.67 44.481 C 41.67 44.774 41.559 45.062 41.332 45.283 C 41.123 45.498 40.847 45.603 40.569 45.603 C 40.268 45.603 39.971 45.488 39.725 45.268 C 38.727 44.35 38.764 44.656 39.744 43.687 Z M 37.063 44.815 C 37.33 44.557 37.245 44.472 37.001 44.25 C 32.546 40.181 28.092 36.106 23.631 32.034 C 22.454 30.959 21.146 32.283 22.223 33.45 C 26.293 37.909 30.359 42.364 34.432 46.822 C 34.652 47.061 34.739 47.145 35 46.881 C 35.689 46.188 36.369 45.508 37.063 44.815 Z M 31.071 54.664 C 34.688 57.813 39.176 57.122 42.45 54.664 C 42.917 54.307 43.19 54.356 43.412 54.442 C 44.246 54.763 44.895 54.06 44.622 53.228 C 44.547 52.991 44.533 52.696 44.909 52.179 C 47.321 48.91 47.968 44.472 44.845 40.891 C 41.927 37.54 35.403 35.945 31.096 33.455 C 29.083 32.299 27.366 31.251 26.045 30.918 C 24.929 30.639 24.546 31.404 25.306 32.095 C 29.452 35.88 33.591 39.667 37.74 43.456 C 38.036 43.722 38.104 43.783 38.375 43.511 C 38.577 43.309 38.778 43.115 38.974 42.916 C 39.412 42.478 39.976 42.262 40.538 42.262 L 40.538 42.267 C 41.108 42.267 41.68 42.484 42.114 42.916 C 42.545 43.351 42.761 43.914 42.761 44.481 C 42.761 45.051 42.545 45.618 42.114 46.052 C 41.68 46.483 41.128 46.689 40.569 46.689 C 40.006 46.689 39.437 46.479 38.995 46.067 C 38.798 45.891 38.603 45.713 38.411 45.538 C 38.188 45.338 38.073 45.341 37.854 45.564 C 37.143 46.267 36.454 46.963 35.744 47.672 C 35.523 47.894 35.517 48.007 35.721 48.229 C 35.895 48.422 36.071 48.612 36.251 48.807 C 36.658 49.256 36.876 49.823 36.876 50.382 L 36.876 50.388 C 36.876 50.94 36.67 51.498 36.238 51.928 C 35.804 52.359 35.232 52.576 34.663 52.576 C 34.1 52.576 33.53 52.364 33.099 51.928 C 32.665 51.493 32.449 50.925 32.449 50.364 C 32.449 50.357 32.449 50.357 32.449 50.364 C 32.449 49.787 32.665 49.226 33.099 48.789 L 33.103 48.789 C 33.299 48.592 33.495 48.394 33.692 48.193 C 33.969 47.925 33.903 47.846 33.638 47.56 C 29.849 43.409 26.066 39.269 22.274 35.118 C 21.588 34.366 20.819 34.747 21.106 35.864 C 21.433 37.181 22.48 38.902 23.642 40.915 C 26.126 45.22 27.727 51.745 31.071 54.664 Z" fill="#E6B209" style="" transform="matrix(0.707107, 0.707107, -0.707107, 0.707107, 40.941918, -11.208908)"/>
</svg>