<svg width="32" height="32" fill="none" xmlns="http://www.w3.org/2000/svg"><circle style="fill:#e6b209" cx="16" cy="16" r="16"/><path fill-rule="evenodd" clip-rule="evenodd" d="M22.364 14.939c-1.065-.982-2.027-2.125-3.055-3.189-.324-.334-.713-.216-.54.26a20.32 20.32 0 0 0 1.98 4.043c1.426 2.22 4.032 1.122 1.615-1.114Zm-12.737 0c1.065-.982 2.025-2.125 3.053-3.189.323-.334.714-.216.544.26a20.391 20.391 0 0 1-1.982 4.043c-1.426 2.22-4.032 1.122-1.615-1.114Zm3.71-8.488c-2.034 1.156-4.825 2.085-7.229 3.451-8.151 4.636-5.192 12.406 3.109 4.461 7.566-7.242 6.069-7.176 13.568 0 8.298 7.945 11.26.175 3.107-4.461-2.401-1.366-5.193-2.295-7.227-3.451-.33-.182-.609.019-.435.302.274.449.696.919 1.278 1.321l8.095 6.189c.092.067.11.196.041.286a.209.209 0 0 1-.285.039l-8.188-5.979c-1.151-.862-1.725-1.687-1.981-2.337-.257-.646-.208-1.869.219-2.455.148-.204.303-.394.463-.571a6.928 6.928 0 0 1 1.026-.921.193.193 0 0 0 .041-.271.195.195 0 0 0-.274-.04 7.093 7.093 0 0 0-1.086.971c-1.547 1.708-2.008 1.268-3.155 0a7.188 7.188 0 0 0-1.086-.971.198.198 0 0 0-.276.04.19.19 0 0 0 .043.271c.355.26.699.563 1.025.921.16.177.315.367.463.571.426.586.476 1.809.22 2.455-.257.65-.83 1.475-1.985 2.337l-8.185 5.979a.208.208 0 0 1-.284-.039.203.203 0 0 1 .038-.286l8.096-6.189a4.47 4.47 0 0 0 1.278-1.321c.172-.283-.103-.484-.434-.302Z" fill="#27252E"/><path fill-rule="evenodd" clip-rule="evenodd" d="M14.203 18.569a.483.483 0 0 0-.345.142h-.002a.476.476 0 0 0 .002.683c.086.09.208.142.345.142.13 0 .247-.051.331-.136h.002a.525.525 0 0 0 .155-.358c.026-.579.109-.474-.488-.473Zm3.596 0c.136 0 .258.055.348.142h.001a.487.487 0 0 1-.001.683.486.486 0 0 1-.683.006.524.524 0 0 1-.154-.358c-.026-.579-.109-.474.489-.473Zm-1.166-.468c.161 0 .161-.05.155-.19-.12-2.585-.237-5.168-.352-7.75-.035-.684-.84-.678-.867 0-.12 2.582-.238 5.165-.354 7.75-.007.14-.006.19.154.19h1.264Zm-4.849 1.165c.143 2.054 1.725 3.2 3.482 3.448.253.035.32.13.363.226.159.349.573.333.744-.004.048-.092.135-.187.41-.228 1.737-.262 3.294-1.41 3.433-3.442.133-1.896-1.376-4.355-1.931-6.414-.261-.961-.469-1.797-.771-2.298-.254-.425-.608-.307-.586.13.11 2.402.221 4.806.329 7.21.009.168.012.208.18.208.119.002.241.002.362.002a.957.957 0 0 1 .962.95.95.95 0 0 1-.282.671.965.965 0 0 1-.68.279.938.938 0 0 1-.668-.275.988.988 0 0 1-.291-.664l-.016-.337c-.006-.126-.041-.161-.179-.164h-1.288c-.136.003-.175.038-.182.164l-.014.337c-.01.257-.121.495-.289.664a.958.958 0 0 1-1.632-.675c0-.261.11-.5.284-.673h-.001a.96.96 0 0 1 .68-.277c.12 0 .242 0 .363-.002.168 0 .171-.04.177-.208l.331-7.21c.019-.437-.332-.555-.586-.13-.302.501-.509 1.337-.769 2.298-.556 2.059-2.069 4.518-1.935 6.414Zm9.705 1.778a.292.292 0 0 1 0-.433c.13-.12.339-.12.467 0l5.479 5.085a.294.294 0 0 1 0 .435.347.347 0 0 1-.466 0l-5.48-5.087Zm-8.522 3.803c.045-.164.228-.26.402-.218.178.044.28.21.233.375l-1.385 4.795c-.045.162-.227.259-.402.216-.176-.044-.281-.21-.234-.373l1.386-4.795Zm-2.931-4.23a.351.351 0 0 1 .466 0 .288.288 0 0 1 0 .435l-5.469 5.079a.348.348 0 0 1-.467 0 .293.293 0 0 1 0-.435l5.47-5.079Zm5.634 5.251c0-.17.149-.307.33-.307.185 0 .331.137.331.307v2.491c0 .17-.146.307-.331.307-.181 0-.33-.137-.33-.307v-2.491Zm4.877-2.431a.296.296 0 0 1 .123-.417.34.34 0 0 1 .448.114l2.086 3.351a.296.296 0 0 1-.122.418.344.344 0 0 1-.45-.113l-2.085-3.353Zm-9.669-.3a.348.348 0 0 1 .452-.11.294.294 0 0 1 .12.418L9.367 26.79a.34.34 0 0 1-.45.113.295.295 0 0 1-.12-.418l2.081-3.348Zm-3.513-3.346a.34.34 0 0 1 .449.112.292.292 0 0 1-.12.417l-3.512 1.882a.344.344 0 0 1-.449-.113.292.292 0 0 1 .122-.416l3.51-1.882Zm16.929.523a.298.298 0 0 1-.122-.418.345.345 0 0 1 .45-.114l3.523 1.891a.292.292 0 0 1 .123.416.343.343 0 0 1-.448.113l-3.526-1.888Zm-5.897 4.688c-.046-.166.058-.33.234-.376.176-.042.357.052.402.218l1.385 4.798c.048.163-.055.329-.233.373-.176.043-.357-.054-.403-.216l-1.385-4.797Z" fill="#fff"/></svg>