<svg width="32" height="32" fill="none" xmlns="http://www.w3.org/2000/svg"><path d="M32 16c0 8.837-7.163 16-16 16S0 24.837 0 16 7.163 0 16 0s16 7.163 16 16Zm-9.636-1.061c-1.065-.982-2.027-2.125-3.055-3.189-.324-.334-.713-.216-.54.26a20.284 20.284 0 0 0 1.98 4.043c1.426 2.22 4.032 1.122 1.615-1.114Zm-11.122 1.114a20.346 20.346 0 0 0 1.982-4.043c.17-.476-.221-.594-.544-.26-1.028 1.064-1.988 2.207-3.053 3.189-2.417 2.236.189 3.334 1.615 1.114Zm2.095-9.602c-2.034 1.156-4.825 2.085-7.229 3.451-8.151 4.636-5.192 12.406 3.109 4.461 7.566-7.242 6.069-7.176 13.568 0 8.298 7.945 11.26.175 3.107-4.461-2.401-1.366-5.193-2.295-7.227-3.451-.33-.182-.609.019-.435.302.274.449.696.919 1.278 1.321l8.095 6.189c.092.067.11.196.041.286a.209.209 0 0 1-.285.039l-8.188-5.979c-1.151-.862-1.725-1.687-1.981-2.337-.257-.646-.208-1.869.219-2.455.148-.204.303-.394.463-.571.311-.34.654-.649 1.026-.921a.193.193 0 0 0 .041-.271.195.195 0 0 0-.274-.04 7.153 7.153 0 0 0-1.086.971c-1.547 1.708-2.008 1.268-3.155 0a7.153 7.153 0 0 0-1.086-.971.198.198 0 0 0-.276.04.19.19 0 0 0 .043.271c.355.26.699.563 1.025.921.16.177.315.367.463.571.426.586.476 1.809.22 2.455-.257.65-.83 1.475-1.985 2.337l-8.185 5.979a.207.207 0 0 1-.284-.039.203.203 0 0 1 .038-.286l8.096-6.189a4.47 4.47 0 0 0 1.278-1.321c.172-.283-.103-.484-.434-.302Zm.866 12.118a.48.48 0 0 0-.345.142h-.002a.476.476 0 0 0 .002.683c.086.09.208.142.345.142.13 0 .247-.051.331-.136h.002a.524.524 0 0 0 .155-.358c.026-.579.109-.474-.488-.473Zm3.107.473a.523.523 0 0 0 .154.358.486.486 0 0 0 .684-.689h-.001a.499.499 0 0 0-.348-.142c-.598-.001-.515-.106-.489.473Zm-.677-.941c.161 0 .161-.05.155-.19-.12-2.585-.237-5.168-.352-7.75-.035-.684-.84-.678-.867 0-.12 2.582-.238 5.165-.354 7.75-.007.14-.006.19.154.19Zm-4.849 1.165c.143 2.054 1.725 3.2 3.482 3.448.253.035.32.13.363.226.159.349.573.333.744-.004.048-.092.135-.187.41-.228 1.737-.262 3.294-1.41 3.433-3.442.133-1.896-1.376-4.355-1.931-6.414-.261-.961-.469-1.797-.771-2.298-.254-.425-.608-.307-.586.13.11 2.402.221 4.806.329 7.21.009.168.012.208.18.208.119.002.241.002.362.002a.957.957 0 0 1 .962.95.95.95 0 0 1-.282.671.966.966 0 0 1-.68.279.94.94 0 0 1-.668-.275.984.984 0 0 1-.291-.664l-.016-.337c-.006-.126-.041-.161-.179-.164h-1.288c-.136.003-.175.038-.182.164l-.014.337c-.01.257-.121.495-.289.664a.958.958 0 0 1-1.632-.675c0-.261.11-.5.284-.673h-.001a.962.962 0 0 1 .68-.277c.12 0 .242 0 .363-.002.168 0 .171-.04.177-.208l.331-7.21c.019-.437-.332-.555-.586-.13-.302.501-.509 1.337-.769 2.298-.556 2.059-2.069 4.518-1.935 6.414Zm15.185 6.865c.132.12.334.12.466 0a.294.294 0 0 0 0-.435l-5.479-5.085a.348.348 0 0 0-.467 0 .292.292 0 0 0 0 .433Zm-15.388 3.511c-.047.163.058.329.234.373.175.043.357-.054.402-.216l1.385-4.795c.047-.165-.055-.331-.233-.375-.174-.042-.357.054-.402.218Zm-7.015-3.946a.293.293 0 0 0 0 .435c.133.12.334.12.467 0l5.469-5.079a.288.288 0 0 0 0-.435.351.351 0 0 0-.466 0Zm11.104 2.663c0 .17.149.307.33.307.185 0 .331-.137.331-.307v-2.491c0-.17-.146-.307-.331-.307-.181 0-.33.137-.33.307Zm6.962-1.569a.345.345 0 0 0 .45.113.296.296 0 0 0 .122-.418l-2.086-3.351a.34.34 0 0 0-.448-.114.296.296 0 0 0-.123.417Zm-13.835-.305a.295.295 0 0 0 .12.418.34.34 0 0 0 .45-.113l2.083-3.345a.294.294 0 0 0-.12-.418.348.348 0 0 0-.452.11Zm-4.942-4.812a.292.292 0 0 0-.122.416.344.344 0 0 0 .449.113l3.512-1.882a.292.292 0 0 0 .12-.417.34.34 0 0 0-.449-.112Zm23.965.529c.156.084.35.035.448-.113a.292.292 0 0 0-.123-.416l-3.523-1.891a.345.345 0 0 0-.45.114.298.298 0 0 0 .122.418Zm-8.038 7.597c.046.162.227.259.403.216.178-.044.281-.21.233-.373l-1.385-4.798c-.045-.166-.226-.26-.402-.218-.176.046-.28.21-.234.376Z" style="fill:#e6b209"/></svg>