<svg xmlns="http://www.w3.org/2000/svg" viewBox="0 0 663.01 663.01"><defs><style>.cls-1,.cls-2{fill:#26252e;}.cls-2{fill-rule:evenodd;}</style></defs><g id="Layer_2" data-name="Layer 2"><g id="Purple_Orange_Two_Tone_copy_3" data-name="Purple Orange Two Tone copy 3"><path class="cls-1" d="M129.31,331.46a5.44,5.44,0,1,0,0,7.67A5.43,5.43,0,0,0,129.31,331.46Z"/><path class="cls-1" d="M114,346.75a4.54,4.54,0,1,0,0,6.42A4.54,4.54,0,0,0,114,346.75Z"/><path class="cls-1" d="M144.65,316.13a6.42,6.42,0,1,0,0,9.07A6.43,6.43,0,0,0,144.65,316.13Z"/><path class="cls-1" d="M220.54,328.91a9.26,9.26,0,1,0,0,13.1A9.23,9.23,0,0,0,220.54,328.91Z"/><path class="cls-1" d="M98.66,362.11a3.51,3.51,0,1,0,0,4.95A3.49,3.49,0,0,0,98.66,362.11Z"/><path class="cls-1" d="M83.31,377.46a2.5,2.5,0,0,0-3.55,0A2.51,2.51,0,1,0,83.31,381,2.49,2.49,0,0,0,83.31,377.46Z"/><path class="cls-1" d="M68,392.82a1.47,1.47,0,0,0-2.1,0,1.51,1.51,0,0,0,0,2.15,1.53,1.53,0,0,0,2.14,0A1.49,1.49,0,0,0,68,392.82Z"/><ellipse class="cls-1" cx="110.8" cy="379.21" rx="3.99" ry="3.97" transform="translate(-235.69 189.42) rotate(-45)"/><path class="cls-1" d="M113.2,406.14a3.36,3.36,0,1,0,0,4.75A3.36,3.36,0,0,0,113.2,406.14Z"/><path class="cls-1" d="M82.88,407.13a1.91,1.91,0,0,0-2.7,0,1.92,1.92,0,1,0,2.72,2.71A1.91,1.91,0,0,0,82.88,407.13Z"/><path class="cls-1" d="M97.78,421.56a2.27,2.27,0,1,0,0,3.18A2.24,2.24,0,0,0,97.78,421.56Z"/><path class="cls-1" d="M98.25,391.76a3,3,0,1,0-4.17,4.18,3,3,0,1,0,4.17-4.18Z"/><path class="cls-1" d="M159.66,330.35a7,7,0,1,0,0,9.88A6.94,6.94,0,0,0,159.66,330.35Z"/><path class="cls-1" d="M144.29,345.72a6,6,0,1,0,0,8.41A5.92,5.92,0,0,0,144.29,345.72Z"/><path class="cls-1" d="M129,361a5,5,0,1,0,0,7.16A5,5,0,0,0,129,361Z"/><path class="cls-1" d="M83.93,318.28a3.37,3.37,0,1,0,0,4.77A3.37,3.37,0,0,0,83.93,318.28Z"/><path class="cls-1" d="M68.59,333.61a2.42,2.42,0,1,0,0,3.39A2.39,2.39,0,0,0,68.59,333.61Z"/><path class="cls-1" d="M99.19,303a4.26,4.26,0,1,0,0,6A4.26,4.26,0,0,0,99.19,303Z"/><path class="cls-1" d="M53.33,348.88A1.51,1.51,0,1,0,51.19,351a1.51,1.51,0,0,0,2.14-2.14Z"/><path class="cls-1" d="M83.63,347.82a3,3,0,1,0,0,4.25A3,3,0,0,0,83.63,347.82Z"/><path class="cls-1" d="M99,332.48a4,4,0,1,0,0,5.66A4,4,0,0,0,99,332.48Z"/><path class="cls-1" d="M114.25,317.19a4.89,4.89,0,1,0,0,6.93A4.86,4.86,0,0,0,114.25,317.19Z"/><path class="cls-1" d="M68.31,363.13a2,2,0,0,0-2.89,2.9,2,2,0,1,0,2.89-2.9Z"/><path class="cls-1" d="M187.78,448.69a5.31,5.31,0,1,0,0,7.53A5.3,5.3,0,0,0,187.78,448.69Z"/><path class="cls-1" d="M172.39,464.08a4.26,4.26,0,1,0,0,6A4.28,4.28,0,0,0,172.39,464.08Z"/><path class="cls-1" d="M157,479.49a3.14,3.14,0,0,0-4.43,4.44,3.14,3.14,0,0,0,4.43-4.44Z"/><path class="cls-1" d="M219.33,387.84a8.5,8.5,0,1,0,0,12.05A8.51,8.51,0,0,0,219.33,387.84Z"/><path class="cls-1" d="M141.5,495a2,2,0,1,0,0,2.84A2,2,0,0,0,141.5,495Z"/><path class="cls-1" d="M142.22,465A3,3,0,0,0,138,469.2a3,3,0,1,0,4.25-4.25Z"/><path class="cls-1" d="M203.86,403.31a7.36,7.36,0,1,0,0,10.38A7.35,7.35,0,0,0,203.86,403.31Z"/><path class="cls-1" d="M157.64,449.53a4.12,4.12,0,1,0,0,5.81A4.12,4.12,0,0,0,157.64,449.53Z"/><path class="cls-1" d="M188.47,418.7a6.31,6.31,0,1,0,0,8.92A6.3,6.3,0,0,0,188.47,418.7Z"/><path class="cls-1" d="M128.54,390.8a4.35,4.35,0,1,0,0,6.17A4.36,4.36,0,0,0,128.54,390.8Z"/><path class="cls-1" d="M248.78,417a8.77,8.77,0,1,0,0,12.38A8.73,8.73,0,0,0,248.78,417Z"/><path class="cls-1" d="M202.49,463.24a5.42,5.42,0,1,0,0,7.66A5.42,5.42,0,0,0,202.49,463.24Z"/><path class="cls-1" d="M217.91,447.82a6.53,6.53,0,1,0,0,9.25A6.5,6.5,0,0,0,217.91,447.82Z"/><path class="cls-1" d="M187.08,478.66a4.33,4.33,0,1,0,0,6.12A4.33,4.33,0,0,0,187.08,478.66Z"/><path class="cls-1" d="M233.36,432.38a7.64,7.64,0,1,0,0,10.8A7.65,7.65,0,0,0,233.36,432.38Z"/><path class="cls-1" d="M203.22,433.24a6.46,6.46,0,1,0,0,9.12A6.44,6.44,0,0,0,203.22,433.24Z"/><path class="cls-1" d="M126.78,480.39a1.89,1.89,0,0,0-2.67,2.67,1.89,1.89,0,1,0,2.67-2.67Z"/><path class="cls-1" d="M234.09,402.38a8.65,8.65,0,1,0,0,12.25A8.7,8.7,0,0,0,234.09,402.38Z"/><path class="cls-1" d="M218.64,417.82a7.54,7.54,0,1,0,0,10.66A7.56,7.56,0,0,0,218.64,417.82Z"/><path class="cls-1" d="M171.63,494.1a3.19,3.19,0,1,0,0,4.52A3.18,3.18,0,0,0,171.63,494.1Z"/><path class="cls-1" d="M156.19,509.55a2.06,2.06,0,1,0,0,2.92A2.06,2.06,0,0,0,156.19,509.55Z"/><path class="cls-1" d="M173.06,434.12a5.2,5.2,0,1,0,0,7.37A5.19,5.19,0,0,0,173.06,434.12Z"/><path class="cls-1" d="M112.62,436a2.56,2.56,0,1,0,0,3.63A2.57,2.57,0,0,0,112.62,436Z"/><path class="cls-1" d="M97.21,451.4a1.48,1.48,0,1,0,0,2.1A1.48,1.48,0,0,0,97.21,451.4Z"/><path class="cls-1" d="M143.43,405.17a4.7,4.7,0,1,0,0,6.68A4.69,4.69,0,0,0,143.43,405.17Z"/><path class="cls-1" d="M128,420.56a3.67,3.67,0,1,0,0,5.18A3.66,3.66,0,0,0,128,420.56Z"/><path class="cls-1" d="M174.66,344.67a7.47,7.47,0,1,0,0,10.56A7.44,7.44,0,0,0,174.66,344.67Z"/><path class="cls-1" d="M159.29,360a6.42,6.42,0,1,0,0,9.07A6.42,6.42,0,0,0,159.29,360Z"/><path class="cls-1" d="M143.93,375.41a5.42,5.42,0,1,0,0,7.67A5.39,5.39,0,0,0,143.93,375.41Z"/><path class="cls-1" d="M190,329.31a8.49,8.49,0,1,0,0,12A8.47,8.47,0,0,0,190,329.31Z"/><path class="cls-1" d="M158.83,389.78a5.78,5.78,0,1,0,0,8.18A5.76,5.76,0,0,0,158.83,389.78Z"/><path class="cls-1" d="M174.19,374.42a6.81,6.81,0,1,0,0,9.59A6.78,6.78,0,0,0,174.19,374.42Z"/><path class="cls-1" d="M158.29,419.61a5,5,0,1,0,0,7.1A5,5,0,0,0,158.29,419.61Z"/><path class="cls-1" d="M142.87,435a3.93,3.93,0,1,0,0,5.53A3.92,3.92,0,0,0,142.87,435Z"/><path class="cls-1" d="M173.71,404.19a6.11,6.11,0,1,0,0,8.64A6.16,6.16,0,0,0,173.71,404.19Z"/><path class="cls-1" d="M189.07,388.83a7.13,7.13,0,1,0,0,10.07A7.12,7.12,0,0,0,189.07,388.83Z"/><path class="cls-1" d="M204.49,373.41a8.24,8.24,0,1,0,0,11.65A8.25,8.25,0,0,0,204.49,373.41Z"/><path class="cls-1" d="M205,343.61a8.94,8.94,0,1,0,0,12.65A9,9,0,0,0,205,343.61Z"/><path class="cls-1" d="M189.61,359a7.89,7.89,0,1,0,0,11.18A7.9,7.9,0,0,0,189.61,359Z"/><path class="cls-1" d="M219.91,358a9.33,9.33,0,1,0,0,13.16A9.3,9.3,0,0,0,219.91,358Z"/><path class="cls-1" d="M112,465.89a1.7,1.7,0,0,0-2.4,2.4,1.7,1.7,0,1,0,2.4-2.4Z"/><path class="cls-1" d="M127.45,450.45a2.82,2.82,0,1,0,0,4A2.83,2.83,0,0,0,127.45,450.45Z"/><path class="cls-1" d="M307.58,444.67q.3.36.63.69"/><path class="cls-1" d="M53.48,319.39a1.79,1.79,0,1,0,0,2.52A1.79,1.79,0,0,0,53.48,319.39Z"/><path class="cls-1" d="M68.8,304.08a2.72,2.72,0,1,0,0,3.88A2.73,2.73,0,0,0,68.8,304.08Z"/><path class="cls-1" d="M53.71,289.93a2.07,2.07,0,0,0-2.93,0,2.05,2.05,0,1,0,2.93,0Z"/><path class="cls-1" d="M376.17,611.72a2.5,2.5,0,0,0-3.6,0,2.55,2.55,0,1,0,3.6,0Z"/><path class="cls-1" d="M258.78,582.66a2.19,2.19,0,1,0,0,3.1A2.2,2.2,0,0,0,258.78,582.66Z"/><path class="cls-1" d="M291.49,491.35a7.06,7.06,0,1,0,0,10A7,7,0,0,0,291.49,491.35Z"/><path class="cls-1" d="M306.91,475.94a8.15,8.15,0,1,0,0,11.55A8.15,8.15,0,0,0,306.91,475.94Z"/><path class="cls-1" d="M322.3,460.54a9.22,9.22,0,1,0,.08,13.07A9.22,9.22,0,0,0,322.3,460.54Z"/><path class="cls-1" d="M276.13,506.72a6,6,0,1,0,0,8.55A6.06,6.06,0,0,0,276.13,506.72Z"/><path class="cls-1" d="M229.9,552.94a2.79,2.79,0,1,0,0,3.94A2.78,2.78,0,0,0,229.9,552.94Z"/><path class="cls-1" d="M214.46,568.39a1.65,1.65,0,0,0-2.33,0,1.68,1.68,0,0,0,0,2.33,1.66,1.66,0,0,0,2.35,0A1.63,1.63,0,0,0,214.46,568.39Z"/><path class="cls-1" d="M245.29,537.55a3.85,3.85,0,1,0,.05,5.48A3.86,3.86,0,0,0,245.29,537.55Z"/><path class="cls-1" d="M260.71,522.14a4.94,4.94,0,1,0,0,7A4.94,4.94,0,0,0,260.71,522.14Z"/><path class="cls-1" d="M244.35,567.81a2.49,2.49,0,1,0-3.52,3.52,2.49,2.49,0,1,0,3.52-3.52Z"/><path class="cls-1" d="M290.55,521.61a5.7,5.7,0,1,0,0,8.09A5.74,5.74,0,0,0,290.55,521.61Z"/><path class="cls-1" d="M170.81,524.22a2,2,0,0,0-2.88,0,2.06,2.06,0,1,0,2.91,2.91A2,2,0,0,0,170.81,524.22Z"/><path class="cls-1" d="M274.17,567.27a3.25,3.25,0,1,0,0,4.59A3.26,3.26,0,0,0,274.17,567.27Z"/><path class="cls-1" d="M259.77,552.39a3.58,3.58,0,1,0,0,5.07A3.6,3.6,0,0,0,259.77,552.39Z"/><path class="cls-1" d="M289.54,551.9a4.28,4.28,0,1,0,0,6.08A4.26,4.26,0,0,0,289.54,551.9Z"/><path class="cls-1" d="M304.93,536.51a5.33,5.33,0,1,0,0,7.57A5.33,5.33,0,0,0,304.93,536.51Z"/><path class="cls-1" d="M336.68,475.49a8.84,8.84,0,1,0,0,12.45A8.85,8.85,0,0,0,336.68,475.49Z"/><path class="cls-1" d="M307.87,445.7a9.52,9.52,0,1,0,.06,13.46A9.54,9.54,0,0,0,307.87,445.7Z"/><path class="cls-1" d="M275.14,537a4.63,4.63,0,1,0,0,6.55A4.65,4.65,0,0,0,275.14,537Z"/><path class="cls-1" d="M321.31,490.86a7.78,7.78,0,1,0,0,11A7.79,7.79,0,0,0,321.31,490.86Z"/><path class="cls-1" d="M305.92,506.25a6.73,6.73,0,1,0,0,9.49A6.74,6.74,0,0,0,305.92,506.25Z"/><path class="cls-1" d="M320.27,521.17a6.31,6.31,0,1,0,0,8.92A6.33,6.33,0,0,0,320.27,521.17Z"/><path class="cls-1" d="M263.4,431.64a8.73,8.73,0,1,0,0,12.34A8.72,8.72,0,0,0,263.4,431.64Z"/><path class="cls-1" d="M185.42,538.88a2,2,0,1,0-2.82,2.82,2,2,0,0,0,2.82-2.82Z"/><path class="cls-1" d="M216.31,508a4.24,4.24,0,1,0,0,6A4.24,4.24,0,0,0,216.31,508Z"/><path class="cls-1" d="M200.84,523.47a3.08,3.08,0,0,0-4.36,0,3.1,3.1,0,1,0,4.38,4.38A3.08,3.08,0,0,0,200.84,523.47Z"/><path class="cls-1" d="M231.67,492.63a5.29,5.29,0,1,0,0,7.49A5.28,5.28,0,0,0,231.67,492.63Z"/><path class="cls-1" d="M201.72,493.31a4.31,4.31,0,1,0,0,6.1A4.3,4.3,0,0,0,201.72,493.31Z"/><path class="cls-1" d="M186.28,508.75a3.19,3.19,0,1,0-4.51,4.51,3.19,3.19,0,1,0,4.51-4.51Z"/><path class="cls-1" d="M248,447.06a7.6,7.6,0,1,0,0,10.76A7.59,7.59,0,0,0,248,447.06Z"/><path class="cls-1" d="M232.56,462.47a6.51,6.51,0,1,0,0,9.24A6.54,6.54,0,0,0,232.56,462.47Z"/><path class="cls-1" d="M217.14,477.89a5.42,5.42,0,1,0,0,7.67A5.42,5.42,0,0,0,217.14,477.89Z"/><path class="cls-1" d="M230.81,522.76a4.08,4.08,0,0,0-5.76,5.77,4.08,4.08,0,1,0,5.76-5.77Z"/><path class="cls-1" d="M247.14,477.16a6.44,6.44,0,1,0,0,9.13A6.45,6.45,0,0,0,247.14,477.16Z"/><path class="cls-1" d="M215.39,538.18a3,3,0,0,0-4.2,4.2,3,3,0,1,0,4.2-4.2Z"/><path class="cls-1" d="M246.23,507.34a5.17,5.17,0,1,0,0,7.33A5.18,5.18,0,0,0,246.23,507.34Z"/><path class="cls-1" d="M261.65,491.93a6.27,6.27,0,1,0,0,8.89A6.26,6.26,0,0,0,261.65,491.93Z"/><path class="cls-1" d="M277,476.56a7.28,7.28,0,1,0,.06,10.33A7.29,7.29,0,0,0,277,476.56Z"/><path class="cls-1" d="M292.48,461.09a8.45,8.45,0,1,0,0,12A8.44,8.44,0,0,0,292.48,461.09Z"/><path class="cls-1" d="M262.54,461.77a7.51,7.51,0,1,0,0,10.62A7.51,7.51,0,0,0,262.54,461.77Z"/><path class="cls-1" d="M200,553.62a1.85,1.85,0,1,0,0,2.63A1.82,1.82,0,0,0,200,553.62Z"/><circle class="cls-1" cx="271.87" cy="452.43" r="8.63" transform="translate(-225.21 274.91) rotate(-39.35)"/><path class="cls-1" d="M348.83,551.2a5.29,5.29,0,1,0,0,7.46A5.31,5.31,0,0,0,348.83,551.2Z"/><path class="cls-1" d="M317.19,612.16a1.92,1.92,0,1,0,0,2.69A1.91,1.91,0,0,0,317.19,612.16Z"/><path class="cls-1" d="M332.48,596.88a2.84,2.84,0,1,0,0,4A2.85,2.85,0,0,0,332.48,596.88Z"/><path class="cls-1" d="M363.13,566.22a4.78,4.78,0,1,0,0,6.71A4.75,4.75,0,0,0,363.13,566.22Z"/><path class="cls-1" d="M347.82,581.54a3.84,3.84,0,1,0,0,5.39A3.8,3.8,0,0,0,347.82,581.54Z"/><path class="cls-1" d="M346.72,611.9a2.29,2.29,0,0,0-3.24,3.24,2.29,2.29,0,0,0,3.24-3.24Z"/><path class="cls-1" d="M362,596.61a3.21,3.21,0,1,0,0,4.54A3.21,3.21,0,0,0,362,596.61Z"/><path class="cls-1" d="M334.56,536.2a5.81,5.81,0,1,0,0,8.19A5.79,5.79,0,0,0,334.56,536.2Z"/><path class="cls-1" d="M303.91,566.85a3.85,3.85,0,1,0-5.45,5.45,3.85,3.85,0,0,0,5.45-5.45Z"/><path class="cls-1" d="M319.27,551.48a4.89,4.89,0,1,0,0,6.94A4.91,4.91,0,0,0,319.27,551.48Z"/><path class="cls-1" d="M349.93,520.83a6.84,6.84,0,1,0,0,9.68A6.87,6.87,0,0,0,349.93,520.83Z"/><path class="cls-1" d="M288.54,582.21a2.86,2.86,0,1,0,0,4A2.84,2.84,0,0,0,288.54,582.21Z"/><path class="cls-1" d="M335.63,505.81a7.36,7.36,0,1,0,0,10.4A7.33,7.33,0,0,0,335.63,505.81Z"/><path class="cls-1" d="M273.18,597.58a1.82,1.82,0,1,0-2.58,2.58,1.82,1.82,0,0,0,2.58-2.58Z"/><path class="cls-1" d="M333.54,566.48a4.39,4.39,0,0,0-6.21,6.21,4.39,4.39,0,1,0,6.21-6.21Z"/><path class="cls-1" d="M337.14,445.24a9.65,9.65,0,0,0-5.57-2.75l-.65-.07a9.7,9.7,0,1,0,6.22,2.82Z"/><path class="cls-1" d="M302.86,597.16a2.4,2.4,0,1,0,0,3.39A2.39,2.39,0,0,0,302.86,597.16Z"/><path class="cls-1" d="M318.18,581.85a3.36,3.36,0,1,0,0,4.77A3.35,3.35,0,0,0,318.18,581.85Z"/><path class="cls-2" d="M252.36,320.32c-20.09,23.14-15.25,52.21.94,73.64,2.34,3.05,2,4.78,1.53,6.25-2,5.36,2.59,9.63,8,7.91,1.52-.43,3.44-.52,6.83,2,21.35,15.84,50.12,20.42,73,.5,21.43-18.6,31.21-60.7,47-88.36,7.34-12.91,13.94-24,16-32.46,1.73-7.22-3.23-9.73-7.65-4.92q-36.26,39.78-72.49,79.54c-1.7,1.86-2.08,2.33-.3,4.12l3.88,3.9h0a14.7,14.7,0,0,1,4.35,10.22h0a13.86,13.86,0,0,1-14.16,14.16A14.61,14.61,0,0,1,309,392.48a14.31,14.31,0,0,1-4.24-10h0a14.74,14.74,0,0,1,3.89-10.15c1.12-1.25,2.26-2.47,3.37-3.72,1.3-1.38,1.25-2.16-.2-3.62-4.62-4.65-9.17-9.19-13.81-13.81-1.46-1.45-2.22-1.48-3.62-.2-1.25,1.11-2.47,2.25-3.73,3.37a14.85,14.85,0,0,1-10.12,3.91h0a14.41,14.41,0,0,1-10-4.26,14.75,14.75,0,0,1-4.35-10.22,13.87,13.87,0,0,1,14.16-14.16h0a14.74,14.74,0,0,1,10.22,4.35h0c1.28,1.29,2.59,2.58,3.9,3.88,1.8,1.81,2.25,1.4,4.12-.29L378.1,265c4.83-4.4,2.29-9.39-4.92-7.65-8.47,2-19.55,8.63-32.46,16-27.66,15.74-69.76,25.53-88.36,47Zm64.23,39.61c1.7,1.7,2.24,1.2,3.66-.35l77.94-85.51c6.85-7.54-1.81-16.11-9.28-9.29l-85.51,78c-1.55,1.41-2,2-.35,3.65,4.56,4.53,9,9,13.54,13.55Zm7.55,17.42h0a7.57,7.57,0,0,1,2.23,5.22h0a7,7,0,0,1-2.09,5.12,7.17,7.17,0,0,1-5.13,2.09,7.51,7.51,0,0,1-5.21-2.23,7.18,7.18,0,0,1-2.12-5h0a7.9,7.9,0,0,1,2.1-5.44c5.82-6.4,3.86-6.17,10.24.24Zm-38.51-38.51h0a7.53,7.53,0,0,0-5.21-2.23h0a7.12,7.12,0,0,0-5.13,2.09,7.19,7.19,0,0,0-2.09,5.13,7.6,7.6,0,0,0,2.23,5.21,7.17,7.17,0,0,0,5,2.12l0,0a8.07,8.07,0,0,0,5.42-2.12c6.39-5.83,6.17-3.87-.24-10.24Z"/><path class="cls-1" d="M272.09,283.07a311.52,311.52,0,0,0,65-22.55c7-3.33,4.09-8.81-3-8.62-22.51.51-45.16,2.56-67.23,1.87C216.8,252.05,232.84,291.84,272.09,283.07Zm233.83,85.84c-11-40.5-34.86-76.35-44.13-110.64,0,0-5.91-14.74-1.05-24,6.16-11.84,21.81-25.65,35.49-27.83a113.53,113.53,0,0,1,14-1.53,126.13,126.13,0,0,1,26.27,1.28c2.09.32,4.6-2.73,4.86-4.79s-.93-4.88-2.92-5.19a136.29,136.29,0,0,0-27.82-1.35c-44,2.35-44.19-9.74-42.43-42.43a134.47,134.47,0,0,0-1.36-27.84c-.32-2-3.76-4.48-5.83-4.18s-4.91,2.31-4.64,4.4A128.2,128.2,0,0,1,457.66,151a123.53,123.53,0,0,1-1.53,14c-2.2,13.69-15.67,30.77-27.36,37.21-10.52,5.86-24-1-24-1C370.46,192,334.58,168,294.11,157.1c-137.48-37-189.86,78.73-15,81.57C438.48,241.26,421.71,226,424.32,383.9,427.2,558.77,543,506.4,505.92,368.91Zm-96.08,27.83c-.69-22.07,1.36-44.71,1.87-67.23.18-7.11-5.27-10-8.61-3a311.53,311.53,0,0,0-22.54,65C371.77,430.77,411.58,446.83,409.84,396.74Z"/><path class="cls-1" d="M97,566C-32.32,436.7-32.33,226.32,97,97S436.72-32.34,566,97s129.32,339.75,0,469.09S226.31,695.32,97,566ZM532.24,130.74c-110.68-110.68-290.78-110.66-401.49,0s-110.68,290.77,0,401.45,290.79,110.71,401.48,0S642.94,241.44,532.24,130.74Z"/></g></g></svg>